{
    "asset" : {
        "generator" : "Khronos glTF Blender I/O v1.2.75",
        "version" : "2.0"
    },
    "scene" : 0,
    "scenes" : [
        {
            "name" : "Scene",
            "nodes" : [
                0
            ]
        }
    ],
    "nodes" : [
        {
            "mesh" : 0,
            "name" : "Cylinder"
        }
    ],
    "materials" : [
        {
            "doubleSided" : true,
            "emissiveFactor" : [
                0,
                0,
                0
            ],
            "name" : "Material.001",
            "pbrMetallicRoughness" : {
                "baseColorTexture" : {
                    "index" : 0,
                    "texCoord" : 0
                },
                "metallicFactor" : 0,
                "roughnessFactor" : 0.5
            }
        }
    ],
    "meshes" : [
        {
            "name" : "Cylinder.001",
            "primitives" : [
                {
                    "attributes" : {
                        "POSITION" : 0,
                        "NORMAL" : 1,
                        "TEXCOORD_0" : 2
                    },
                    "indices" : 3,
                    "material" : 0
                }
            ]
        }
    ],
    "textures" : [
        {
            "source" : 0
        }
    ],
    "images" : [
        {
            "bufferView" : 4,
            "mimeType" : "image/png",
            "name" : "castletexture"
        }
    ],
    "accessors" : [
        {
            "bufferView" : 0,
            "componentType" : 5126,
            "count" : 518,
            "max" : [
                0.037882495671510696,
                0.14792069792747498,
                0.03721173480153084
            ],
            "min" : [
                -0.03788240626454353,
                -0.00017521344125270844,
                -0.03855316713452339
            ],
            "type" : "VEC3"
        },
        {
            "bufferView" : 1,
            "componentType" : 5126,
            "count" : 518,
            "type" : "VEC3"
        },
        {
            "bufferView" : 2,
            "componentType" : 5126,
            "count" : 518,
            "type" : "VEC2"
        },
        {
            "bufferView" : 3,
            "componentType" : 5123,
            "count" : 828,
            "type" : "SCALAR"
        }
    ],
    "bufferViews" : [
        {
            "buffer" : 0,
            "byteLength" : 6216,
            "byteOffset" : 0
        },
        {
            "buffer" : 0,
            "byteLength" : 6216,
            "byteOffset" : 6216
        },
        {
            "buffer" : 0,
            "byteLength" : 4144,
            "byteOffset" : 12432
        },
        {
            "buffer" : 0,
            "byteLength" : 1656,
            "byteOffset" : 16576
        },
        {
            "buffer" : 0,
            "byteLength" : 4651,
            "byteOffset" : 18232
        }
    ],
    "buffers" : [
        {
            "byteLength" : 22884,
            "uri" : "data:application/octet-stream;base64,"
        }
    ]
}
