{
    "asset" : {
        "generator" : "Khronos glTF Blender I/O v1.2.75",
        "version" : "2.0"
    },
    "scene" : 0,
    "scenes" : [
        {
            "name" : "Scene",
            "nodes" : [
                0
            ]
        }
    ],
    "nodes" : [
        {
            "mesh" : 0,
            "name" : "Cube"
        }
    ],
    "materials" : [
        {
            "emissiveFactor" : [
                0,
                0,
                0
            ],
            "name" : "Material",
            "pbrMetallicRoughness" : {
                "baseColorTexture" : {
                    "index" : 0,
                    "texCoord" : 0
                },
                "metallicFactor" : 0,
                "roughnessFactor" : 0.5
            }
        }
    ],
    "meshes" : [
        {
            "name" : "Cube.001",
            "primitives" : [
                {
                    "attributes" : {
                        "POSITION" : 0,
                        "NORMAL" : 1,
                        "TEXCOORD_0" : 2
                    },
                    "indices" : 3,
                    "material" : 0
                }
            ]
        }
    ],
    "textures" : [
        {
            "source" : 0
        }
    ],
    "images" : [
        {
            "bufferView" : 4,
            "mimeType" : "image/png",
            "name" : "castletexture"
        }
    ],
    "accessors" : [
        {
            "bufferView" : 0,
            "componentType" : 5126,
            "count" : 584,
            "max" : [
                0.08774809539318085,
                0.0541333369910717,
                0.157605841755867
            ],
            "min" : [
                -0.08774809539318085,
                -0.005015862639993429,
                -0.157605841755867
            ],
            "type" : "VEC3"
        },
        {
            "bufferView" : 1,
            "componentType" : 5126,
            "count" : 584,
            "type" : "VEC3"
        },
        {
            "bufferView" : 2,
            "componentType" : 5126,
            "count" : 584,
            "type" : "VEC2"
        },
        {
            "bufferView" : 3,
            "componentType" : 5123,
            "count" : 1314,
            "type" : "SCALAR"
        }
    ],
    "bufferViews" : [
        {
            "buffer" : 0,
            "byteLength" : 7008,
            "byteOffset" : 0
        },
        {
            "buffer" : 0,
            "byteLength" : 7008,
            "byteOffset" : 7008
        },
        {
            "buffer" : 0,
            "byteLength" : 4672,
            "byteOffset" : 14016
        },
        {
            "buffer" : 0,
            "byteLength" : 2628,
            "byteOffset" : 18688
        },
        {
            "buffer" : 0,
            "byteLength" : 4651,
            "byteOffset" : 21316
        }
    ],
    "buffers" : [
        {
            "byteLength" : 25968,
            "uri" : "data:application/octet-stream;base64,"
        }
    ]
}
