{
    "asset" : {
        "generator" : "Khronos glTF Blender I/O v1.2.75",
        "version" : "2.0"
    },
    "scene" : 0,
    "scenes" : [
        {
            "name" : "Scene",
            "nodes" : [
                0
            ]
        }
    ],
    "nodes" : [
        {
            "mesh" : 0,
            "name" : "Cube"
        }
    ],
    "materials" : [
        {
            "emissiveFactor" : [
                0,
                0,
                0
            ],
            "name" : "Material",
            "pbrMetallicRoughness" : {
                "baseColorTexture" : {
                    "index" : 0,
                    "texCoord" : 0
                },
                "metallicFactor" : 0,
                "roughnessFactor" : 0.5
            }
        }
    ],
    "meshes" : [
        {
            "name" : "Cube.001",
            "primitives" : [
                {
                    "attributes" : {
                        "POSITION" : 0,
                        "NORMAL" : 1,
                        "TEXCOORD_0" : 2
                    },
                    "indices" : 3,
                    "material" : 0
                }
            ]
        }
    ],
    "textures" : [
        {
            "source" : 0
        }
    ],
    "images" : [
        {
            "bufferView" : 4,
            "mimeType" : "image/png",
            "name" : "castletexture"
        }
    ],
    "accessors" : [
        {
            "bufferView" : 0,
            "componentType" : 5126,
            "count" : 735,
            "max" : [
                0.08598058670759201,
                0.043776948004961014,
                0.16977918148040771
            ],
            "min" : [
                -0.08599624782800674,
                -0.0050158631056547165,
                -0.17325425148010254
            ],
            "type" : "VEC3"
        },
        {
            "bufferView" : 1,
            "componentType" : 5126,
            "count" : 735,
            "type" : "VEC3"
        },
        {
            "bufferView" : 2,
            "componentType" : 5126,
            "count" : 735,
            "type" : "VEC2"
        },
        {
            "bufferView" : 3,
            "componentType" : 5123,
            "count" : 1314,
            "type" : "SCALAR"
        }
    ],
    "bufferViews" : [
        {
            "buffer" : 0,
            "byteLength" : 8820,
            "byteOffset" : 0
        },
        {
            "buffer" : 0,
            "byteLength" : 8820,
            "byteOffset" : 8820
        },
        {
            "buffer" : 0,
            "byteLength" : 5880,
            "byteOffset" : 17640
        },
        {
            "buffer" : 0,
            "byteLength" : 2628,
            "byteOffset" : 23520
        },
        {
            "buffer" : 0,
            "byteLength" : 4651,
            "byteOffset" : 26148
        }
    ],
    "buffers" : [
        {
            "byteLength" : 30800,
            "uri" : "data:application/octet-stream;base64,"
        }
    ]
}
