{
    "asset" : {
        "generator" : "Khronos glTF Blender I/O v1.2.75",
        "version" : "2.0"
    },
    "scene" : 0,
    "scenes" : [
        {
            "name" : "Scene",
            "nodes" : [
                0
            ]
        }
    ],
    "nodes" : [
        {
            "mesh" : 0,
            "name" : "Cube.001"
        }
    ],
    "materials" : [
        {
            "emissiveFactor" : [
                0,
                0,
                0
            ],
            "name" : "Material.001",
            "pbrMetallicRoughness" : {
                "baseColorTexture" : {
                    "index" : 0,
                    "texCoord" : 0
                },
                "metallicFactor" : 0,
                "roughnessFactor" : 0.5
            }
        }
    ],
    "meshes" : [
        {
            "name" : "Cube.004",
            "primitives" : [
                {
                    "attributes" : {
                        "POSITION" : 0,
                        "NORMAL" : 1,
                        "TEXCOORD_0" : 2
                    },
                    "indices" : 3,
                    "material" : 0
                }
            ]
        }
    ],
    "textures" : [
        {
            "source" : 0
        }
    ],
    "images" : [
        {
            "bufferView" : 4,
            "mimeType" : "image/png",
            "name" : "castletexture"
        }
    ],
    "accessors" : [
        {
            "bufferView" : 0,
            "componentType" : 5126,
            "count" : 1124,
            "max" : [
                0.08627592027187347,
                0.20559100806713104,
                0.04099906235933304
            ],
            "min" : [
                -0.07105498015880585,
                0.0050764381885528564,
                -0.04056687280535698
            ],
            "type" : "VEC3"
        },
        {
            "bufferView" : 1,
            "componentType" : 5126,
            "count" : 1124,
            "type" : "VEC3"
        },
        {
            "bufferView" : 2,
            "componentType" : 5126,
            "count" : 1124,
            "type" : "VEC2"
        },
        {
            "bufferView" : 3,
            "componentType" : 5123,
            "count" : 1950,
            "type" : "SCALAR"
        }
    ],
    "bufferViews" : [
        {
            "buffer" : 0,
            "byteLength" : 13488,
            "byteOffset" : 0
        },
        {
            "buffer" : 0,
            "byteLength" : 13488,
            "byteOffset" : 13488
        },
        {
            "buffer" : 0,
            "byteLength" : 8992,
            "byteOffset" : 26976
        },
        {
            "buffer" : 0,
            "byteLength" : 3900,
            "byteOffset" : 35968
        },
        {
            "buffer" : 0,
            "byteLength" : 4651,
            "byteOffset" : 39868
        }
    ],
    "buffers" : [
        {
            "byteLength" : 44520,
            "uri" : "data:application/octet-stream;base64,"
        }
    ]
}
