{
    "asset" : {
        "generator" : "Khronos glTF Blender I/O v1.2.75",
        "version" : "2.0"
    },
    "scene" : 0,
    "scenes" : [
        {
            "name" : "Scene",
            "nodes" : [
                0
            ]
        }
    ],
    "nodes" : [
        {
            "mesh" : 0,
            "name" : "Cylinder"
        }
    ],
    "materials" : [
        {
            "emissiveFactor" : [
                0,
                0,
                0
            ],
            "name" : "Material.001",
            "pbrMetallicRoughness" : {
                "baseColorTexture" : {
                    "index" : 0,
                    "texCoord" : 0
                },
                "metallicFactor" : 0,
                "roughnessFactor" : 0.5
            }
        }
    ],
    "meshes" : [
        {
            "name" : "Cylinder",
            "primitives" : [
                {
                    "attributes" : {
                        "POSITION" : 0,
                        "NORMAL" : 1,
                        "TEXCOORD_0" : 2
                    },
                    "indices" : 3,
                    "material" : 0
                }
            ]
        }
    ],
    "textures" : [
        {
            "source" : 0
        }
    ],
    "images" : [
        {
            "bufferView" : 4,
            "mimeType" : "image/png",
            "name" : "castletexture"
        }
    ],
    "accessors" : [
        {
            "bufferView" : 0,
            "componentType" : 5126,
            "count" : 650,
            "max" : [
                0.0521925613284111,
                0.3193454146385193,
                0.05835292860865593
            ],
            "min" : [
                -0.06451338529586792,
                0.0010416358709335327,
                -0.058353032916784286
            ],
            "type" : "VEC3"
        },
        {
            "bufferView" : 1,
            "componentType" : 5126,
            "count" : 650,
            "type" : "VEC3"
        },
        {
            "bufferView" : 2,
            "componentType" : 5126,
            "count" : 650,
            "type" : "VEC2"
        },
        {
            "bufferView" : 3,
            "componentType" : 5123,
            "count" : 978,
            "type" : "SCALAR"
        }
    ],
    "bufferViews" : [
        {
            "buffer" : 0,
            "byteLength" : 7800,
            "byteOffset" : 0
        },
        {
            "buffer" : 0,
            "byteLength" : 7800,
            "byteOffset" : 7800
        },
        {
            "buffer" : 0,
            "byteLength" : 5200,
            "byteOffset" : 15600
        },
        {
            "buffer" : 0,
            "byteLength" : 1956,
            "byteOffset" : 20800
        },
        {
            "buffer" : 0,
            "byteLength" : 4651,
            "byteOffset" : 22756
        }
    ],
    "buffers" : [
        {
            "byteLength" : 27408,
            "uri" : "data:application/octet-stream;base64,"
        }
    ]
}
