{
    "asset" : {
        "generator" : "Khronos glTF Blender I/O v1.2.75",
        "version" : "2.0"
    },
    "scene" : 0,
    "scenes" : [
        {
            "name" : "Scene",
            "nodes" : [
                0
            ]
        }
    ],
    "nodes" : [
        {
            "mesh" : 0,
            "name" : "Cylinder.001"
        }
    ],
    "materials" : [
        {
            "emissiveFactor" : [
                0,
                0,
                0
            ],
            "name" : "Material.001",
            "pbrMetallicRoughness" : {
                "baseColorTexture" : {
                    "index" : 0,
                    "texCoord" : 0
                },
                "metallicFactor" : 0,
                "roughnessFactor" : 0.5
            }
        }
    ],
    "meshes" : [
        {
            "name" : "Cylinder.001",
            "primitives" : [
                {
                    "attributes" : {
                        "POSITION" : 0,
                        "NORMAL" : 1,
                        "TEXCOORD_0" : 2
                    },
                    "indices" : 3,
                    "material" : 0
                }
            ]
        }
    ],
    "textures" : [
        {
            "source" : 0
        }
    ],
    "images" : [
        {
            "bufferView" : 4,
            "mimeType" : "image/png",
            "name" : "castletexture"
        }
    ],
    "accessors" : [
        {
            "bufferView" : 0,
            "componentType" : 5126,
            "count" : 718,
            "max" : [
                0.1110314279794693,
                0.2103419154882431,
                0.06892618536949158
            ],
            "min" : [
                -0.06892618536949158,
                -0.0003586225211620331,
                -0.06892618536949158
            ],
            "type" : "VEC3"
        },
        {
            "bufferView" : 1,
            "componentType" : 5126,
            "count" : 718,
            "type" : "VEC3"
        },
        {
            "bufferView" : 2,
            "componentType" : 5126,
            "count" : 718,
            "type" : "VEC2"
        },
        {
            "bufferView" : 3,
            "componentType" : 5123,
            "count" : 1146,
            "type" : "SCALAR"
        }
    ],
    "bufferViews" : [
        {
            "buffer" : 0,
            "byteLength" : 8616,
            "byteOffset" : 0
        },
        {
            "buffer" : 0,
            "byteLength" : 8616,
            "byteOffset" : 8616
        },
        {
            "buffer" : 0,
            "byteLength" : 5744,
            "byteOffset" : 17232
        },
        {
            "buffer" : 0,
            "byteLength" : 2292,
            "byteOffset" : 22976
        },
        {
            "buffer" : 0,
            "byteLength" : 4651,
            "byteOffset" : 25268
        }
    ],
    "buffers" : [
        {
            "byteLength" : 29920,
            "uri" : "data:application/octet-stream;base64,"
        }
    ]
}
