{
    "asset" : {
        "generator" : "Khronos glTF Blender I/O v1.2.75",
        "version" : "2.0"
    },
    "scene" : 0,
    "scenes" : [
        {
            "name" : "Scene",
            "nodes" : [
                0
            ]
        }
    ],
    "nodes" : [
        {
            "mesh" : 0,
            "name" : "Cylinder"
        }
    ],
    "materials" : [
        {
            "doubleSided" : true,
            "emissiveFactor" : [
                0,
                0,
                0
            ],
            "name" : "Material.001",
            "pbrMetallicRoughness" : {
                "baseColorTexture" : {
                    "index" : 0,
                    "texCoord" : 0
                },
                "metallicFactor" : 0,
                "roughnessFactor" : 0.5
            }
        }
    ],
    "meshes" : [
        {
            "name" : "Cylinder.002",
            "primitives" : [
                {
                    "attributes" : {
                        "POSITION" : 0,
                        "NORMAL" : 1,
                        "TEXCOORD_0" : 2
                    },
                    "indices" : 3,
                    "material" : 0
                }
            ]
        }
    ],
    "textures" : [
        {
            "source" : 0
        }
    ],
    "images" : [
        {
            "bufferView" : 4,
            "mimeType" : "image/png",
            "name" : "castletexture"
        }
    ],
    "accessors" : [
        {
            "bufferView" : 0,
            "componentType" : 5126,
            "count" : 331,
            "max" : [
                0.040000028908252716,
                0.01674657315015793,
                0.03999998793005943
            ],
            "min" : [
                -0.03999996930360794,
                0.0019144979305565357,
                -0.040000010281801224
            ],
            "type" : "VEC3"
        },
        {
            "bufferView" : 1,
            "componentType" : 5126,
            "count" : 331,
            "type" : "VEC3"
        },
        {
            "bufferView" : 2,
            "componentType" : 5126,
            "count" : 331,
            "type" : "VEC2"
        },
        {
            "bufferView" : 3,
            "componentType" : 5123,
            "count" : 564,
            "type" : "SCALAR"
        }
    ],
    "bufferViews" : [
        {
            "buffer" : 0,
            "byteLength" : 3972,
            "byteOffset" : 0
        },
        {
            "buffer" : 0,
            "byteLength" : 3972,
            "byteOffset" : 3972
        },
        {
            "buffer" : 0,
            "byteLength" : 2648,
            "byteOffset" : 7944
        },
        {
            "buffer" : 0,
            "byteLength" : 1128,
            "byteOffset" : 10592
        },
        {
            "buffer" : 0,
            "byteLength" : 4651,
            "byteOffset" : 11720
        }
    ],
    "buffers" : [
        {
            "byteLength" : 16372,
            "uri" : "data:application/octet-stream;base64,"
        }
    ]
}
