{
    "asset" : {
        "generator" : "Khronos glTF Blender I/O v1.2.75",
        "version" : "2.0"
    },
    "scene" : 0,
    "scenes" : [
        {
            "name" : "Scene",
            "nodes" : [
                0
            ]
        }
    ],
    "nodes" : [
        {
            "mesh" : 0,
            "name" : "Cube.001"
        }
    ],
    "materials" : [
        {
            "doubleSided" : true,
            "emissiveFactor" : [
                0,
                0,
                0
            ],
            "name" : "Material.001",
            "pbrMetallicRoughness" : {
                "baseColorTexture" : {
                    "index" : 0,
                    "texCoord" : 0
                },
                "metallicFactor" : 0,
                "roughnessFactor" : 0.5
            }
        }
    ],
    "meshes" : [
        {
            "name" : "Cube.003",
            "primitives" : [
                {
                    "attributes" : {
                        "POSITION" : 0,
                        "NORMAL" : 1,
                        "TEXCOORD_0" : 2
                    },
                    "indices" : 3,
                    "material" : 0
                }
            ]
        }
    ],
    "textures" : [
        {
            "source" : 0
        }
    ],
    "images" : [
        {
            "bufferView" : 4,
            "mimeType" : "image/png",
            "name" : "castletexture"
        }
    ],
    "accessors" : [
        {
            "bufferView" : 0,
            "componentType" : 5126,
            "count" : 283,
            "max" : [
                0.12373823672533035,
                0.08388544619083405,
                0.29992541670799255
            ],
            "min" : [
                -0.0828510969877243,
                -0.02679578587412834,
                -0.3043038845062256
            ],
            "type" : "VEC3"
        },
        {
            "bufferView" : 1,
            "componentType" : 5126,
            "count" : 283,
            "type" : "VEC3"
        },
        {
            "bufferView" : 2,
            "componentType" : 5126,
            "count" : 283,
            "type" : "VEC2"
        },
        {
            "bufferView" : 3,
            "componentType" : 5123,
            "count" : 510,
            "type" : "SCALAR"
        }
    ],
    "bufferViews" : [
        {
            "buffer" : 0,
            "byteLength" : 3396,
            "byteOffset" : 0
        },
        {
            "buffer" : 0,
            "byteLength" : 3396,
            "byteOffset" : 3396
        },
        {
            "buffer" : 0,
            "byteLength" : 2264,
            "byteOffset" : 6792
        },
        {
            "buffer" : 0,
            "byteLength" : 1020,
            "byteOffset" : 9056
        },
        {
            "buffer" : 0,
            "byteLength" : 4651,
            "byteOffset" : 10076
        }
    ],
    "buffers" : [
        {
            "byteLength" : 14728,
            "uri" : "data:application/octet-stream;base64,"
        }
    ]
}
