{
    "asset" : {
        "generator" : "Khronos glTF Blender I/O v1.2.75",
        "version" : "2.0"
    },
    "scene" : 0,
    "scenes" : [
        {
            "name" : "Scene",
            "nodes" : [
                0
            ]
        }
    ],
    "nodes" : [
        {
            "mesh" : 0,
            "name" : "Cube"
        }
    ],
    "materials" : [
        {
            "emissiveFactor" : [
                0,
                0,
                0
            ],
            "name" : "Material.001",
            "pbrMetallicRoughness" : {
                "baseColorTexture" : {
                    "index" : 0,
                    "texCoord" : 0
                },
                "metallicFactor" : 0,
                "roughnessFactor" : 0.5
            }
        }
    ],
    "meshes" : [
        {
            "name" : "Cube.001",
            "primitives" : [
                {
                    "attributes" : {
                        "POSITION" : 0,
                        "NORMAL" : 1,
                        "TEXCOORD_0" : 2
                    },
                    "indices" : 3,
                    "material" : 0
                }
            ]
        }
    ],
    "textures" : [
        {
            "source" : 0
        }
    ],
    "images" : [
        {
            "bufferView" : 4,
            "mimeType" : "image/png",
            "name" : "castletexture"
        }
    ],
    "accessors" : [
        {
            "bufferView" : 0,
            "componentType" : 5126,
            "count" : 278,
            "max" : [
                0.09267401695251465,
                0.00422905758023262,
                0.008641492575407028
            ],
            "min" : [
                -0.09766349196434021,
                -7.029867265373468e-05,
                -0.010516487993299961
            ],
            "type" : "VEC3"
        },
        {
            "bufferView" : 1,
            "componentType" : 5126,
            "count" : 278,
            "type" : "VEC3"
        },
        {
            "bufferView" : 2,
            "componentType" : 5126,
            "count" : 278,
            "type" : "VEC2"
        },
        {
            "bufferView" : 3,
            "componentType" : 5123,
            "count" : 432,
            "type" : "SCALAR"
        }
    ],
    "bufferViews" : [
        {
            "buffer" : 0,
            "byteLength" : 3336,
            "byteOffset" : 0
        },
        {
            "buffer" : 0,
            "byteLength" : 3336,
            "byteOffset" : 3336
        },
        {
            "buffer" : 0,
            "byteLength" : 2224,
            "byteOffset" : 6672
        },
        {
            "buffer" : 0,
            "byteLength" : 864,
            "byteOffset" : 8896
        },
        {
            "buffer" : 0,
            "byteLength" : 4651,
            "byteOffset" : 9760
        }
    ],
    "buffers" : [
        {
            "byteLength" : 14412,
            "uri" : "data:application/octet-stream;base64,"
        }
    ]
}
