{
    "asset" : {
        "generator" : "Khronos glTF Blender I/O v1.2.75",
        "version" : "2.0"
    },
    "scene" : 0,
    "scenes" : [
        {
            "name" : "Scene",
            "nodes" : [
                0
            ]
        }
    ],
    "nodes" : [
        {
            "mesh" : 0,
            "name" : "Cylinder"
        }
    ],
    "materials" : [
        {
            "emissiveFactor" : [
                0,
                0,
                0
            ],
            "name" : "Material.001",
            "pbrMetallicRoughness" : {
                "baseColorTexture" : {
                    "index" : 0,
                    "texCoord" : 0
                },
                "metallicFactor" : 0,
                "roughnessFactor" : 0.5
            }
        }
    ],
    "meshes" : [
        {
            "name" : "Cylinder",
            "primitives" : [
                {
                    "attributes" : {
                        "POSITION" : 0,
                        "NORMAL" : 1,
                        "TEXCOORD_0" : 2
                    },
                    "indices" : 3,
                    "material" : 0
                }
            ]
        }
    ],
    "textures" : [
        {
            "source" : 0
        }
    ],
    "images" : [
        {
            "bufferView" : 4,
            "mimeType" : "image/png",
            "name" : "castletexture"
        }
    ],
    "accessors" : [
        {
            "bufferView" : 0,
            "componentType" : 5126,
            "count" : 500,
            "max" : [
                0.07426176965236664,
                0.3100290298461914,
                0.07808344811201096
            ],
            "min" : [
                -0.07426178455352783,
                0.0033497214317321777,
                -0.07808344066143036
            ],
            "type" : "VEC3"
        },
        {
            "bufferView" : 1,
            "componentType" : 5126,
            "count" : 500,
            "type" : "VEC3"
        },
        {
            "bufferView" : 2,
            "componentType" : 5126,
            "count" : 500,
            "type" : "VEC2"
        },
        {
            "bufferView" : 3,
            "componentType" : 5123,
            "count" : 768,
            "type" : "SCALAR"
        }
    ],
    "bufferViews" : [
        {
            "buffer" : 0,
            "byteLength" : 6000,
            "byteOffset" : 0
        },
        {
            "buffer" : 0,
            "byteLength" : 6000,
            "byteOffset" : 6000
        },
        {
            "buffer" : 0,
            "byteLength" : 4000,
            "byteOffset" : 12000
        },
        {
            "buffer" : 0,
            "byteLength" : 1536,
            "byteOffset" : 16000
        },
        {
            "buffer" : 0,
            "byteLength" : 4651,
            "byteOffset" : 17536
        }
    ],
    "buffers" : [
        {
            "byteLength" : 22188,
            "uri" : "data:application/octet-stream;base64,"
        }
    ]
}
