{
    "asset" : {
        "generator" : "Khronos glTF Blender I/O v1.2.75",
        "version" : "2.0"
    },
    "scene" : 0,
    "scenes" : [
        {
            "name" : "Scene",
            "nodes" : [
                0
            ]
        }
    ],
    "nodes" : [
        {
            "mesh" : 0,
            "name" : "Cylinder"
        }
    ],
    "materials" : [
        {
            "emissiveFactor" : [
                0,
                0,
                0
            ],
            "name" : "Material.001",
            "pbrMetallicRoughness" : {
                "baseColorTexture" : {
                    "index" : 0,
                    "texCoord" : 0
                },
                "metallicFactor" : 0,
                "roughnessFactor" : 0.5
            }
        }
    ],
    "meshes" : [
        {
            "name" : "Cylinder",
            "primitives" : [
                {
                    "attributes" : {
                        "POSITION" : 0,
                        "NORMAL" : 1,
                        "TEXCOORD_0" : 2
                    },
                    "indices" : 3,
                    "material" : 0
                }
            ]
        }
    ],
    "textures" : [
        {
            "source" : 0
        }
    ],
    "images" : [
        {
            "bufferView" : 4,
            "mimeType" : "image/png",
            "name" : "castletexture"
        }
    ],
    "accessors" : [
        {
            "bufferView" : 0,
            "componentType" : 5126,
            "count" : 340,
            "max" : [
                0.041150324046611786,
                0.23361052572727203,
                0.043268006294965744
            ],
            "min" : [
                -0.04115032032132149,
                0.0013477057218551636,
                -0.043268002569675446
            ],
            "type" : "VEC3"
        },
        {
            "bufferView" : 1,
            "componentType" : 5126,
            "count" : 340,
            "type" : "VEC3"
        },
        {
            "bufferView" : 2,
            "componentType" : 5126,
            "count" : 340,
            "type" : "VEC2"
        },
        {
            "bufferView" : 3,
            "componentType" : 5123,
            "count" : 528,
            "type" : "SCALAR"
        }
    ],
    "bufferViews" : [
        {
            "buffer" : 0,
            "byteLength" : 4080,
            "byteOffset" : 0
        },
        {
            "buffer" : 0,
            "byteLength" : 4080,
            "byteOffset" : 4080
        },
        {
            "buffer" : 0,
            "byteLength" : 2720,
            "byteOffset" : 8160
        },
        {
            "buffer" : 0,
            "byteLength" : 1056,
            "byteOffset" : 10880
        },
        {
            "buffer" : 0,
            "byteLength" : 4651,
            "byteOffset" : 11936
        }
    ],
    "buffers" : [
        {
            "byteLength" : 16588,
            "uri" : "data:application/octet-stream;base64,"
        }
    ]
}
