# Made using Asset Forge (www.assetforge.io) version 1.3 

mtllib Bench.mtl 

v -0.4 2.003707E-32 0.4344
v -0.4 0.1798875 0.4344
v -0.4 0 0.5
v -0.4 0.1798875 0.5
v -0.17056 0.1798875 0.5
v -0.24256 0.1798875 0.5
v -0.17056 0.2026875 0.5
v -0.4720001 0.2026875 0.5
v -0.4720001 0.1798875 0.5
v -0.24256 2.003707E-32 0.5
v -0.4720001 0.1798875 -0.5
v -0.4720001 0.2026875 -0.5
v -0.4 0.1798875 -0.5
v -0.24256 0.1798875 -0.5
v -0.17056 0.1798875 -0.5
v -0.17056 0.2026875 -0.5
v -0.24256 2.003707E-32 0.4344
v -0.24256 0.1798875 0.4344
v -0.4 2.003707E-32 -0.4344
v -0.2905599 0.06 -0.4344
v -0.24256 2.003707E-32 -0.4344
v -0.24256 0.1798875 -0.4344
v -0.2905599 0.095 -0.4344
v -0.3520001 0.095 -0.4344
v -0.3520001 0.06 -0.4344
v -0.4 0.1798875 -0.4344
v -0.4 0 -0.5
v -0.24256 2.003707E-32 -0.5
v -0.3520001 0.06 0.4344
v -0.3520001 0.095 0.4344
v -0.2905599 0.095 0.4344
v -0.2905599 0.06 0.4344
vn -2.4 0 0
vn 0 0 1
vn 0 0.5 0
vn 0 0 -1
vn 2.4 0 0
vn 0 -0.5 0
vt 0.4344 2.003707E-32
vt 0.4344 0.1798875
vt 0.5 0
vt 0.5 0.1798875
vt -0.17056 0.1798875
vt -0.24256 0.1798875
vt -0.17056 0.2026875
vt -0.4 0.1798875
vt -0.4720001 0.2026875
vt -0.4720001 0.1798875
vt -0.24256 2.003707E-32
vt -0.4 0
vt -0.5 0.1798875
vt -0.5 0.2026875
vt 0.5 0.1798875
vt 0.5 0.2026875
vt -0.4720001 0.1798875
vt -0.17056 0.1798875
vt 0.4720001 0.2026875
vt 0.4720001 0.1798875
vt 0.17056 0.1798875
vt 0.17056 0.2026875
vt -0.5 0.1798875
vt 0.24256 -0.5
vt 0.24256 -0.4344
vt 0.4 -0.5
vt 0.4 -0.4344
vt 0.17056 0.5
vt 0.4720001 0.5
vt 0.17056 -0.5
vt 0.4720001 -0.5
vt -0.4344 0.1798875
vt -0.4344 2.003707E-32
vt -0.5 2.003707E-32
vt -0.4 2.003707E-32
vt -0.29056 0.06
vt -0.29056 0.095
vt -0.3520001 0.095
vt -0.3520001 0.06
vt 0.4 0.4344
vt 0.4 0.5
vt 0.24256 0.4344
vt 0.24256 0.5
vt 0.4 0
vt 0.24256 2.003707E-32
vt 0.4 0.1798875
vt 0.24256 0.1798875
vt 0.3520001 0.06
vt 0.4 2.003707E-32
vt 0.3520001 0.095
vt 0.29056 0.095
vt 0.29056 0.06
vt -0.5 0
vt 0.5 2.003707E-32
vt 0.29056 -0.4344
vt 0.29056 0.4344
vt 0.3520001 -0.4344
vt 0.3520001 0.4344
vt -0.4344 0.06
vt -0.4344 0.095
vt 0.4344 0.06
vt 0.4344 0.095

usemtl _defaultMat (Instance) (Instance)
usemap _defaultMat (Instance) (Instance)
f 3/3/1 2/2/1 1/1/1
f 2/2/1 3/3/1 4/4/1
f 7/7/2 6/6/2 5/5/2
f 6/6/2 7/7/2 4/8/2
f 8/9/2 4/8/2 7/7/2
f 4/8/2 8/9/2 9/10/2
f 4/8/2 10/11/2 6/6/2
f 10/11/2 4/8/2 3/12/2
f 9/15/1 12/14/1 11/13/1
f 12/14/1 9/15/1 8/16/1
f 11/17/3 14/6/3 13/8/3
f 14/6/3 11/17/3 15/18/3
f 15/21/4 11/20/4 12/19/4
f 15/21/4 12/19/4 16/22/4
f 16/16/5 5/23/5 15/4/5
f 5/23/5 16/16/5 7/14/5
f 3/26/6 17/25/6 10/24/6
f 17/25/6 3/26/6 1/27/6
f 16/30/3 8/29/3 7/28/3
f 8/29/3 16/30/3 12/31/3
f 6/13/5 17/33/5 18/32/5
f 17/33/5 6/13/5 10/34/5
f 21/11/2 20/36/2 19/35/2
f 20/36/2 21/11/2 22/6/2
f 20/36/2 22/6/2 23/37/2
f 23/37/2 22/6/2 24/38/2
f 25/39/2 19/35/2 20/36/2
f 19/35/2 25/39/2 26/8/2
f 26/8/2 25/39/2 24/38/2
f 26/8/2 24/38/2 22/6/2
f 9/31/6 2/27/6 4/26/6
f 2/27/6 9/31/6 26/40/6
f 26/40/6 9/31/6 13/41/6
f 13/41/6 9/31/6 11/29/6
f 22/42/6 2/27/6 26/40/6
f 2/27/6 22/42/6 18/25/6
f 18/25/6 4/26/6 2/27/6
f 4/26/6 18/25/6 6/24/6
f 15/28/6 6/24/6 18/25/6
f 6/24/6 15/28/6 5/30/6
f 15/28/6 18/25/6 14/43/6
f 26/40/6 14/43/6 22/42/6
f 14/43/6 26/40/6 13/41/6
f 14/6/3 18/6/3 22/6/3
f 13/46/4 28/45/4 27/44/4
f 28/45/4 13/46/4 14/47/4
f 1/49/4 29/48/4 17/45/4
f 29/48/4 1/49/4 2/46/4
f 29/48/4 2/46/4 30/50/4
f 30/50/4 2/46/4 31/51/4
f 32/52/4 17/45/4 29/48/4
f 17/45/4 32/52/4 18/47/4
f 18/47/4 32/52/4 31/51/4
f 18/47/4 31/51/4 2/46/4
f 27/53/1 26/32/1 13/13/1
f 26/32/1 27/53/1 19/33/1
f 19/40/6 28/43/6 21/42/6
f 28/43/6 19/40/6 27/41/6
f 22/2/5 28/54/5 14/4/5
f 28/54/5 22/2/5 21/1/5
f 29/57/6 20/56/6 32/55/6
f 20/56/6 29/57/6 25/58/6
f 29/61/1 24/60/1 25/59/1
f 24/60/1 29/61/1 30/62/1
f 23/55/3 30/58/3 31/56/3
f 30/58/3 23/55/3 24/57/3
f 23/62/5 32/59/5 20/61/5
f 32/59/5 23/62/5 31/60/5
v -0.5 0 0.4375
v -0.5 0 0.5
v -0.4375 0 0.4375
v -0.4375 0 0.5
v -0.4375 0.533 0.5
v -0.5 0.533 0.5
v -0.5 0.533 -0.4375
v -0.5 0 -0.4375
v -0.5 0.533 -0.5
v -0.5 0 -0.5
v -0.4375 0.533 -0.4375
v -0.4375 0.533 -0.5
v -0.5 0.533 0.4375
v -0.4375 0.533 0.4375
v -0.4375 0 -0.4375
v -0.4375 0 -0.5
v -0.48 0.35087 -0.4375
v -0.48 0.35087 0.4375
v -0.4575 0.35087 -0.4375
v -0.4575 0.35087 0.4375
v -0.48 0.46813 0.4375
v -0.48 0.46813 -0.4375
v -0.4575 0.46813 0.4375
v -0.4575 0.46813 -0.4375
v -0.48 0.15587 -0.4375
v -0.48 0.15587 0.4375
v -0.4575 0.15587 -0.4375
v -0.4575 0.15587 0.4375
v -0.48 0.27313 0.4375
v -0.48 0.27313 -0.4375
v -0.4575 0.27313 0.4375
v -0.4575 0.27313 -0.4375
vn 0 -1.3 0
vn -1 0 0
vn 0 1.3 0
vn 1 0 0
vt 0.5 -0.4375
vt 0.5 -0.5
vt 0.4375 -0.4375
vt 0.4375 -0.5
vt -0.4375 0
vt -0.4375 0.533
vt -0.5 0.533
vt 0.5 0.5
vt 0.5 0.4375
vt 0.4375 0.5
vt 0.4375 0.4375
vt 0.4375 0
vt 0.4375 0.533
vt 0.5 0.533
vt 0.48 0.4375
vt 0.48 -0.4375
vt 0.4575 0.4375
vt 0.4575 -0.4375
vt -0.4375 0.35087
vt -0.4375 0.46813
vt 0.4375 0.35087
vt 0.4375 0.46813
vt 0.48 0.15587
vt 0.48 0.27313
vt 0.48 0.35087
vt 0.4575 0.27313
vt 0.48 0.46813
vt 0.4575 0.46813
vt 0.4575 0.15587
vt 0.4575 0.35087
vt -0.4375 0.15587
vt -0.4375 0.27313
vt 0.4375 0.15587
vt 0.4375 0.27313
vt -0.4575 0.15587
vt -0.4575 0.27313
vt -0.4575 0.35087
vt -0.48 0.27313
vt -0.4575 0.46813
vt -0.48 0.46813
vt -0.48 0.15587
vt -0.48 0.35087

usemtl _defaultMat (Instance) (Instance)
usemap _defaultMat (Instance) (Instance)
f 35/65/7 34/64/7 33/63/7
f 34/64/7 35/65/7 36/66/7
f 37/68/2 34/53/2 36/67/2
f 34/53/2 37/68/2 38/69/2
f 41/69/8 40/67/8 39/68/8
f 40/67/8 41/69/8 42/53/8
f 43/65/9 41/64/9 39/63/9
f 41/64/9 43/65/9 44/66/9
f 37/72/9 45/71/9 38/70/9
f 45/71/9 37/72/9 46/73/9
f 48/3/10 43/75/10 47/74/10
f 43/75/10 48/3/10 44/76/10
f 35/67/10 37/69/10 36/53/10
f 37/69/10 35/67/10 46/68/10
f 41/76/4 48/74/4 42/3/4
f 48/74/4 41/76/4 44/75/4
f 45/75/8 34/3/8 38/76/8
f 34/3/8 45/75/8 33/74/8
f 48/72/7 40/71/7 42/70/7
f 40/71/7 48/72/7 47/73/7
f 51/79/7 50/78/7 49/77/7
f 50/78/7 51/79/7 52/80/7
f 55/79/9 54/78/9 53/77/9
f 54/78/9 55/79/9 56/80/9
f 59/79/7 58/78/7 57/77/7
f 58/78/7 59/79/7 60/80/7
f 63/79/9 62/78/9 61/77/9
f 62/78/9 63/79/9 64/80/9
f 51/83/10 55/82/10 52/81/10
f 55/82/10 51/83/10 56/84/10
f 33/3/4 58/85/4 35/74/4
f 58/85/4 33/3/4 45/76/4
f 58/85/4 45/76/4 61/86/4
f 61/86/4 45/76/4 50/87/4
f 61/86/4 50/87/4 63/88/4
f 50/87/4 45/76/4 53/89/4
f 53/89/4 45/76/4 55/90/4
f 60/91/4 35/74/4 58/85/4
f 35/74/4 60/91/4 46/75/4
f 46/75/4 60/91/4 63/88/4
f 46/75/4 55/90/4 45/76/4
f 46/75/4 63/88/4 52/92/4
f 52/92/4 63/88/4 50/87/4
f 46/75/4 52/92/4 55/90/4
f 59/95/10 63/94/10 60/93/10
f 63/94/10 59/95/10 64/96/10
f 54/82/8 50/83/8 53/84/8
f 50/83/8 54/82/8 49/81/8
f 47/67/2 59/97/2 40/53/2
f 59/97/2 47/67/2 43/68/2
f 59/97/2 43/68/2 64/98/2
f 64/98/2 43/68/2 51/99/2
f 64/98/2 51/99/2 62/100/2
f 51/99/2 43/68/2 56/101/2
f 56/101/2 43/68/2 54/102/2
f 57/103/2 40/53/2 59/97/2
f 40/53/2 57/103/2 39/69/2
f 39/69/2 57/103/2 62/100/2
f 39/69/2 54/102/2 43/68/2
f 39/69/2 62/100/2 49/104/2
f 49/104/2 62/100/2 51/99/2
f 39/69/2 49/104/2 54/102/2
f 62/94/8 58/95/8 61/96/8
f 58/95/8 62/94/8 57/93/8
