# Made using Asset Forge (www.assetforge.io) version 1.3 

mtllib streetlamp2.mtl 

v 0.4 1 2.887646E-16
v 0.2828427 1 0.2828427
v 0.2828427 1 -0.2828427
v 8.662937E-16 1 -0.4
v 5.775291E-16 1 0.4
v -0.2828427 1 -0.2828427
v -0.2828427 1 0.2828427
v -0.4 1 2.887646E-16
v 0.2828427 0 -0.2828427
v 0.4 0 2.887646E-16
v -0.2828427 0 -0.2828427
v 8.662937E-16 0 -0.4
v 0.2828427 0 0.2828427
v -0.4 0 2.887646E-16
v -0.2828427 0 0.2828427
v 5.775291E-16 0 0.4
vn 0 1 0
vn 0.7391036 0 -0.3061467
vn -0.3061467 0 -0.7391036
vn 0.7391036 0 0.3061467
vn -0.7391036 0 -0.3061467
vn -0.7391036 0 0.3061467
vn 0.3061467 0 0.7391036
vn 0.3061467 0 -0.7391036
vn 0 -1 0
vn -0.3061467 0 0.7391036
vt -0.4 2.887646E-16
vt -0.2828427 0.2828427
vt -0.2828427 -0.2828427
vt -8.662937E-16 -0.4
vt -5.775291E-16 0.4
vt 0.2828427 -0.2828427
vt 0.2828427 0.2828427
vt 0.4 2.887646E-16
vt 0.2828427 1
vt 0.2828427 0
vt -2.887646E-16 1
vt -2.887646E-16 0
vt -8.662937E-16 0
vt -8.662937E-16 1
vt -0.2828427 1
vt -0.2828427 0
vt 2.887646E-16 0
vt 2.887646E-16 1
vt 5.775291E-16 0
vt 5.775291E-16 1
vt -0.4 -2.887646E-16
vt -5.775291E-16 -0.4
vt -8.662937E-16 0.4
vt 0.4 -2.887646E-16

usemtl woodDark (Instance) (Instance)
usemap woodDark (Instance) (Instance)
f 3/3/1 2/2/1 1/1/1
f 2/2/1 3/3/1 4/4/1
f 2/2/1 4/4/1 5/5/1
f 5/5/1 4/4/1 6/6/1
f 5/5/1 6/6/1 7/7/1
f 7/7/1 6/6/1 8/8/1
f 1/11/2 9/10/2 3/9/2
f 9/10/2 1/11/2 10/12/2
f 6/9/3 12/13/3 11/10/3
f 12/13/3 6/9/3 4/14/3
f 2/15/4 10/12/4 1/11/4
f 10/12/4 2/15/4 13/16/4
f 14/17/5 6/15/5 11/16/5
f 6/15/5 14/17/5 8/18/5
f 15/10/6 8/18/6 14/17/6
f 8/18/6 15/10/6 7/9/6
f 2/9/7 16/19/7 13/10/7
f 16/19/7 2/9/7 5/20/7
f 4/14/8 9/16/8 12/13/8
f 9/16/8 4/14/8 3/15/8
f 13/3/9 9/2/9 10/21/9
f 9/2/9 13/3/9 16/22/9
f 9/2/9 16/22/9 12/23/9
f 12/23/9 16/22/9 11/7/9
f 11/7/9 16/22/9 15/6/9
f 11/7/9 15/6/9 14/24/9
f 5/20/10 15/16/10 16/19/10
f 15/16/10 5/20/10 7/15/10
v 0.2 9 1.443823E-16
v 0.1414214 9 0.1414214
v 0.1414214 9 -0.1414214
v 4.331469E-16 9 -0.2
v 2.887646E-16 9 0.2
v -0.1414214 9 -0.1414214
v -0.1414214 9 0.1414214
v -0.2 9 1.443823E-16
v 0.1414214 0 -0.1414214
v 0.2 0 1.443823E-16
v -0.1414214 0 -0.1414214
v 4.331469E-16 0 -0.2
v 0.1414214 0 0.1414214
v -0.2 0 1.443823E-16
v -0.1414214 0 0.1414214
v 2.887646E-16 0 0.2
vn 0 9 0
vn 0.3695518 0 -0.1530734
vn -0.1530734 0 -0.3695518
vn 0.3695518 0 0.1530734
vn -0.3695518 0 -0.1530734
vn -0.3695518 0 0.1530734
vn 0.1530734 0 0.3695518
vn 0.1530734 0 -0.3695518
vn 0 -9 0
vn -0.1530734 0 0.3695518
vt -0.2 1.443823E-16
vt -0.1414214 0.1414214
vt -0.1414214 -0.1414214
vt -4.331469E-16 -0.2
vt -2.887646E-16 0.2
vt 0.1414214 -0.1414214
vt 0.1414214 0.1414214
vt 0.2 1.443823E-16
vt 0.1414214 9
vt 0.1414214 0
vt -1.443823E-16 9
vt -1.443823E-16 0
vt -4.331469E-16 0
vt -4.331469E-16 9
vt -0.1414214 9
vt -0.1414214 0
vt 1.443823E-16 0
vt 1.443823E-16 9
vt 2.887646E-16 9
vt -0.2 -1.443823E-16
vt -2.887646E-16 -0.2
vt -4.331469E-16 0.2
vt 0.2 -1.443823E-16

usemtl _defaultMat (Instance) (Instance)
usemap _defaultMat (Instance) (Instance)
f 19/27/11 18/26/11 17/25/11
f 18/26/11 19/27/11 20/28/11
f 18/26/11 20/28/11 21/29/11
f 21/29/11 20/28/11 22/30/11
f 21/29/11 22/30/11 23/31/11
f 23/31/11 22/30/11 24/32/11
f 17/35/12 25/34/12 19/33/12
f 25/34/12 17/35/12 26/36/12
f 22/33/13 28/37/13 27/34/13
f 28/37/13 22/33/13 20/38/13
f 18/39/14 26/36/14 17/35/14
f 26/36/14 18/39/14 29/40/14
f 30/41/15 22/39/15 27/40/15
f 22/39/15 30/41/15 24/42/15
f 31/34/16 24/42/16 30/41/16
f 24/42/16 31/34/16 23/33/16
f 18/33/17 32/17/17 29/34/17
f 32/17/17 18/33/17 21/43/17
f 20/38/18 25/40/18 28/37/18
f 25/40/18 20/38/18 19/39/18
f 29/27/19 25/26/19 26/44/19
f 25/26/19 29/27/19 32/45/19
f 25/26/19 32/45/19 28/46/19
f 28/46/19 32/45/19 27/31/19
f 27/31/19 32/45/19 31/30/19
f 27/31/19 31/30/19 30/47/19
f 21/43/20 31/40/20 32/17/20
f 31/40/20 21/43/20 23/39/20
v 0.3 8.9 2.165734E-16
v 0.212132 8.9 0.212132
v 0.212132 8.9 -0.212132
v 6.497203E-16 8.9 -0.3
v 4.331469E-16 8.9 0.3
v -0.212132 8.9 -0.212132
v -0.212132 8.9 0.212132
v -0.3 8.9 2.165734E-16
v 0.212132 7.9 -0.212132
v 0.3 7.9 2.165734E-16
v -0.212132 7.9 -0.212132
v 6.497203E-16 7.9 -0.3
v 0.212132 7.9 0.212132
v -0.3 7.9 2.165734E-16
v -0.212132 7.9 0.212132
v 4.331469E-16 7.9 0.3
vn 0.5543277 0 -0.22961
vn -0.22961 0 -0.5543277
vn 0.5543277 0 0.22961
vn -0.5543277 0 -0.22961
vn -0.5543277 0 0.22961
vn 0.22961 0 0.5543277
vn 0.22961 0 -0.5543277
vn -0.22961 0 0.5543277
vt -0.3 2.165734E-16
vt -0.212132 0.212132
vt -0.212132 -0.212132
vt -6.497203E-16 -0.3
vt -4.331469E-16 0.3
vt 0.212132 -0.212132
vt 0.212132 0.212132
vt 0.3 2.165734E-16
vt 0.212132 8.9
vt 0.212132 7.9
vt -2.165734E-16 8.9
vt -2.165734E-16 7.9
vt -6.497203E-16 7.9
vt -6.497203E-16 8.9
vt -0.212132 8.9
vt -0.212132 7.9
vt 2.165734E-16 7.9
vt 2.165734E-16 8.9
vt 4.331469E-16 7.9
vt 4.331469E-16 8.9
vt -0.3 -2.165734E-16
vt -4.331469E-16 -0.3
vt -6.497203E-16 0.3
vt 0.3 -2.165734E-16

usemtl woodDark (Instance) (Instance)
usemap woodDark (Instance) (Instance)
f 35/50/1 34/49/1 33/48/1
f 34/49/1 35/50/1 36/51/1
f 34/49/1 36/51/1 37/52/1
f 37/52/1 36/51/1 38/53/1
f 37/52/1 38/53/1 39/54/1
f 39/54/1 38/53/1 40/55/1
f 33/58/21 41/57/21 35/56/21
f 41/57/21 33/58/21 42/59/21
f 38/56/22 44/60/22 43/57/22
f 44/60/22 38/56/22 36/61/22
f 34/62/23 42/59/23 33/58/23
f 42/59/23 34/62/23 45/63/23
f 46/64/24 38/62/24 43/63/24
f 38/62/24 46/64/24 40/65/24
f 47/57/25 40/65/25 46/64/25
f 40/65/25 47/57/25 39/56/25
f 34/56/26 48/66/26 45/57/26
f 48/66/26 34/56/26 37/67/26
f 36/61/27 41/63/27 44/60/27
f 41/63/27 36/61/27 35/62/27
f 45/50/9 41/49/9 42/68/9
f 41/49/9 45/50/9 48/69/9
f 41/49/9 48/69/9 44/70/9
f 44/70/9 48/69/9 43/54/9
f 43/54/9 48/69/9 47/53/9
f 43/54/9 47/53/9 46/71/9
f 37/67/28 47/63/28 48/66/28
f 47/63/28 37/67/28 39/62/28
v 0.2 8 -0.2
v 0.2 8 -0.4
v -0.2 8 -0.2
v -0.2 8 -0.4
v -0.2 8.8 -0.4
v -0.2 8.8 -0.2
v 0.2 8.8 -0.4
v 0.2 8.8 -0.2
vn 0 -0.8 0
vn -0.4 0 0
vn 0 0 -0.2
vn 0 0 0.2
vn 0.4 0 0
vn 0 0.8 0
vt -0.2 0.2
vt -0.2 0.4
vt 0.2 0.2
vt 0.2 0.4
vt -0.4 8
vt -0.4 8.8
vt -0.2 8
vt -0.2 8.8
vt 0.2 8
vt -0.2 8
vt 0.2 8.8
vt -0.2 8.8
vt 0.4 8.8
vt 0.4 8
vt 0.2 8.8
vt 0.2 8
vt -0.2 -0.4
vt -0.2 -0.2
vt 0.2 -0.4
vt 0.2 -0.2

usemtl satellite (Instance)
usemap satellite (Instance)
f 51/74/29 50/73/29 49/72/29
f 50/73/29 51/74/29 52/75/29
f 51/78/30 53/77/30 52/76/30
f 53/77/30 51/78/30 54/79/30
f 53/82/31 50/81/31 52/80/31
f 50/81/31 53/82/31 55/83/31
f 56/82/32 51/81/32 49/80/32
f 51/81/32 56/82/32 54/83/32
f 56/86/33 50/85/33 55/84/33
f 50/85/33 56/86/33 49/87/33
f 53/90/34 56/89/34 55/88/34
f 56/89/34 53/90/34 54/91/34
v 0.08967018 8.654528 -0.7756457
v 0.08967018 8.583912 -0.70503
v 0.08967018 8.746593 -0.6835804
v 0.08967018 8.485174 -0.6062915
v 0.08967018 8.577239 -0.5142262
v 0.08967018 9.691431 -1.628418
v 0.08967018 9.599365 -1.720483
v 0.08967018 8.675978 -0.6129647
v -0.0467298 8.577239 -0.5142262
v -0.0467298 8.485174 -0.6062915
v 0.1156604 8.693521 -0.5954223
v -0.07271993 8.693521 -0.5954223
v 0.1156604 8.764136 -0.6660379
v -0.07271993 8.764136 -0.6660379
v 0.1429404 8.242462 -0.1075379
v -0.1 8.242462 -0.1075379
v 0.1429404 8.560233 -0.4253088
v -0.1 8.560233 -0.4253088
v 0.1156604 8.636986 -0.7931882
v -0.07271993 8.636986 -0.7931882
v -0.0467298 8.654528 -0.7756457
v -0.0467298 8.746593 -0.6835804
v -0.1 8.396256 -0.5892853
v 0.1429404 8.396256 -0.5892853
v -0.1 8.078485 -0.2715143
v -0.0467298 8.675978 -0.6129647
v -0.0467298 9.691431 -1.628418
v -0.0467298 9.599365 -1.720483
v -0.0467298 8.583912 -0.70503
v -0.07271993 8.56637 -0.7225724
v 0.1429404 8.078485 -0.2715143
v 0.1156604 8.56637 -0.7225724
vn 2.2 0 0
vn 0 1.484924 -1.484924
vn 0 -1.484924 1.484924
vn 0 1.484924 1.484924
vn 0 -0.3944939 -2.062613
vn -1.820172 0.8340598 -0.8340597
vn -2.2 0 0
vn 0 -1.484924 -1.484924
vn 1.820172 0.8340598 -0.8340597
vn 0 2.062613 0.3944941
vt 0.7756457 8.654529
vt 0.70503 8.583913
vt 0.6835804 8.746593
vt 0.6062915 8.485174
vt 0.5142262 8.577239
vt 1.628418 9.691431
vt 1.720483 9.599365
vt 0.0896702 8.675978
vt 0.0896702 8.746593
vt 0.0896702 8.577239
vt -0.0896702 0.5142262
vt -0.0896702 0.6062915
vt 0.04672981 0.5142262
vt 0.04672981 0.6062915
vt 0.1156603 8.693521
vt -0.07271995 8.693521
vt 0.1156603 8.764136
vt -0.07271995 8.764136
vt 0.1429404 8.242462
vt -0.1 8.242462
vt 0.1429404 8.560233
vt -0.1 8.560233
vt -0.1156603 8.764136
vt -0.0896702 8.654529
vt -0.1156603 8.636986
vt 0.07271995 8.636986
vt 0.04672981 8.654529
vt 0.04672981 -0.6835804
vt 0.07271995 -0.7931882
vt 0.04672981 -0.7756457
vt -0.0896702 -0.7756457
vt -0.1156603 -0.666038
vt -0.0896702 -0.6835804
vt 0.07271995 8.764136
vt -0.0896702 8.746593
vt 0.04672981 8.746593
vt 0.1 8.396256
vt -0.1429404 8.396256
vt 0.04672981 8.485174
vt -0.0896702 8.485174
vt -0.5892853 8.396256
vt -0.6062915 8.485174
vt -0.4253088 8.560233
vt -0.5142262 8.577239
vt -0.2715143 8.078485
vt -0.1075379 8.242462
vt -0.04672981 8.577239
vt -0.04672981 8.675978
vt -0.04672981 8.746593
vt 0.0896702 9.691431
vt -0.04672981 9.691431
vt 0.04672981 0.7756457
vt -0.0896702 0.7756457
vt 0.04672981 1.720483
vt -0.0896702 1.720483
vt -0.0896702 8.583913
vt 0.04672981 8.583913
vt -0.7225724 8.56637
vt -0.7931882 8.636986
vt -0.5954222 8.693521
vt -0.666038 8.764136
vt 0.1 8.078485
vt -0.1429404 8.078485
vt -0.70503 8.583913
vt -0.7756457 8.654529
vt -0.6835804 8.746593
vt -1.720483 9.599365
vt -1.628418 9.691431
vt 0.5892853 8.396256
vt 0.2715143 8.078485
vt 0.4253088 8.560233
vt 0.1075379 8.242462
vt 0.07271995 8.56637
vt -0.1156603 8.56637
vt 0.7931882 8.636986
vt 0.7225724 8.56637
vt 0.666038 8.764136
vt 0.5954222 8.693521
vt -0.1429404 -0.4253088
vt 0.1 -0.4253088
vt -0.0896702 -0.5142262
vt 0.04672981 -0.5142262
vt -0.0896702 9.599365
vt -0.0896702 9.691431
vt 0.04672981 9.599365
vt 0.04672981 9.691431
vt 0.1429404 8.078485
vt -0.1 8.078485
vt 0.1156603 8.56637
vt 0.04672981 0.70503
vt 0.07271995 0.5954222
vt 0.04672981 0.6129646
vt -0.0896702 0.6129646
vt -0.1156603 0.7225724
vt -0.0896702 0.70503
vt -0.07271995 8.56637
vt 0.0896702 8.583913
vt -0.04672981 8.583913

usemtl satellite (Instance)
usemap satellite (Instance)
f 59/94/35 58/93/35 57/92/35
f 58/93/35 59/94/35 60/95/35
f 60/95/35 59/94/35 61/96/35
f 57/92/35 62/97/35 59/94/35
f 62/97/35 57/92/35 63/98/35
f 61/101/36 59/100/36 64/99/36
f 65/104/37 60/103/37 61/102/37
f 60/103/37 65/104/37 66/105/37
f 69/108/38 68/107/38 67/106/38
f 68/107/38 69/108/38 70/109/38
f 73/112/38 72/111/38 71/110/38
f 72/111/38 73/112/38 74/113/38
f 75/116/36 57/115/36 69/114/36
f 57/115/36 75/116/36 76/117/36
f 57/115/36 76/117/36 77/118/36
f 77/121/36 76/120/36 78/119/36
f 59/124/36 69/123/36 57/122/36
f 69/114/36 59/126/36 70/125/36
f 70/125/36 59/126/36 78/127/36
f 70/125/36 78/127/36 76/117/36
f 66/130/39 80/129/39 79/128/39
f 80/129/39 66/130/39 60/131/39
f 74/134/40 66/133/40 79/132/40
f 66/133/40 74/134/40 65/135/40
f 72/137/41 79/132/41 81/136/41
f 79/132/41 72/137/41 74/134/41
f 64/99/38 65/138/38 61/101/38
f 65/138/38 64/99/38 82/139/38
f 82/139/38 64/99/38 59/100/38
f 82/139/38 59/100/38 78/140/38
f 62/141/38 78/140/38 59/100/38
f 78/140/38 62/141/38 83/142/38
f 84/145/42 57/144/42 77/143/42
f 57/144/42 84/145/42 63/146/42
f 58/147/42 77/118/42 57/115/42
f 58/147/42 85/148/42 77/118/42
f 60/131/42 85/148/42 58/147/42
f 85/148/42 60/131/42 66/130/42
f 68/151/41 76/150/41 86/149/41
f 76/150/41 68/151/41 70/152/41
f 79/128/42 87/154/42 81/153/42
f 87/154/42 79/128/42 80/129/42
f 65/135/41 85/155/41 66/133/41
f 85/155/41 65/135/41 77/156/41
f 77/156/41 65/135/41 78/157/41
f 78/157/41 84/158/41 77/156/41
f 84/158/41 78/157/41 83/159/41
f 78/140/36 65/138/36 82/139/36
f 73/162/35 87/161/35 80/160/35
f 87/161/35 73/162/35 71/163/35
f 76/117/42 88/165/42 86/164/42
f 88/165/42 76/117/42 75/116/42
f 60/95/43 73/162/43 80/160/43
f 73/162/43 60/95/43 61/96/43
f 69/168/35 88/167/35 75/166/35
f 88/167/35 69/168/35 67/169/35
f 61/172/44 74/171/44 73/170/44
f 74/171/44 61/172/44 65/173/44
f 84/176/36 62/175/36 63/174/36
f 62/175/36 84/176/36 83/177/36
f 72/111/37 87/178/37 71/110/37
f 87/178/37 72/111/37 81/179/37
f 67/106/37 64/99/37 88/180/37
f 64/99/37 67/106/37 68/107/37
f 64/99/37 68/107/37 82/139/37
f 82/183/37 68/182/37 85/181/37
f 58/186/37 88/185/37 64/184/37
f 88/180/37 58/188/37 86/187/37
f 86/187/37 58/188/37 85/189/37
f 86/187/37 85/189/37 68/107/37
v 0.3 9.437501 -1.5
v -0.3 9.437501 -1.5
v 0.3 9.6625 -1.5
v -0.3 9.6625 -1.5
v 0.4 9.6625 -2.9
v 0.4 9.437501 -2.9
v 0.4 9.6625 -1.7
v 0.4 9.437501 -1.7
v 0.3 9.700001 -2.9
v 0.3 9.700001 -1.7
v -0.3 9.700001 -2.9
v -0.3 9.700001 -1.7
v -0.3 9.437501 -3.1
v 0.3 9.437501 -3.1
v -0.3 9.6625 -3.1
v 0.3 9.6625 -3.1
v 0.3 9.400001 -1.7
v 0.3 9.400001 -2.9
v -0.3 9.400001 -1.7
v -0.3 9.400001 -2.9
v -0.4 9.437501 -2.9
v -0.4 9.6625 -2.9
v -0.4 9.437501 -1.7
v -0.4 9.6625 -1.7
vn 0 0 1.6
vn 0.8 0 0
vn 0 0.3 0
vn 0 0 -1.6
vn 0 -0.3 0
vn -0.8 0 0
vn 0.4618803 0.1732051 -0.9237605
vn 0.5656855 0 -1.131371
vn 0 -0.212132 -1.131371
vn 0.4618802 -0.1732051 -0.9237604
vn 0.5656855 -0.212132 0
vn 0.5656855 0.212132 0
vn 0.4618803 0.1732051 0.9237605
vn 0.5656855 0 1.131371
vn 0.4618802 -0.1732051 0.9237604
vn 0 0.212132 1.131371
vn -0.4618803 0.1732051 0.9237605
vn -0.5656855 -0.212132 0
vn 0 -0.212132 1.131371
vn -0.5656855 0 1.131371
vn -0.4618802 -0.1732051 0.9237604
vn -0.4618802 -0.1732051 -0.9237604
vn -0.5656855 0 -1.131371
vn -0.5656855 0.212132 0
vn 0 0.212132 -1.131371
vn -0.4618803 0.1732051 -0.9237605
vt 0.3 9.437501
vt -0.3 9.437501
vt 0.3 9.6625
vt -0.3 9.6625
vt 2.9 9.6625
vt 2.9 9.437501
vt 1.7 9.6625
vt 1.7 9.437501
vt -0.3 -2.9
vt -0.3 -1.7
vt 0.3 -2.9
vt 0.3 -1.7
vt -0.3 1.7
vt -0.3 2.9
vt 0.3 1.7
vt 0.3 2.9
vt -2.9 9.437501
vt -2.9 9.6625
vt -1.7 9.437501
vt -1.7 9.6625
vt -0.3 -3.1
vt -0.4 -2.9
vt 3.1 9.437501
vt 3.1 9.6625
vt -0.3 3.1
vt 0.3 3.1
vt -0.4 2.9
vt -0.4 1.7
vt -0.4 -1.7
vt -0.3 -1.5
vt 1.5 9.437501
vt 1.5 9.6625
vt -0.3 1.5
vt 0.3 -1.5
vt 0.4 -1.7
vt 0.4 2.9
vt 0.4 1.7
vt 0.3 1.5
vt -1.5 9.437501
vt -1.5 9.6625
vt -3.1 9.437501
vt -3.1 9.6625
vt 0.4 -2.9
vt 0.3 -3.1

usemtl _defaultMat (Instance) (Instance)
usemap _defaultMat (Instance) (Instance)
f 91/192/45 90/191/45 89/190/45
f 90/191/45 91/192/45 92/193/45
f 95/196/46 94/195/46 93/194/46
f 94/195/46 95/196/46 96/197/46
f 99/200/47 98/199/47 97/198/47
f 98/199/47 99/200/47 100/201/47
f 103/192/48 102/191/48 101/190/48
f 102/191/48 103/192/48 104/193/48
f 107/204/49 106/203/49 105/202/49
f 106/203/49 107/204/49 108/205/49
f 111/208/50 110/207/50 109/206/50
f 110/207/50 111/208/50 112/209/50
f 97/198/51 93/211/51 104/210/51
f 104/213/52 94/195/52 102/212/52
f 94/195/52 104/213/52 93/194/52
f 108/205/53 102/214/53 106/203/53
f 102/214/53 108/205/53 101/215/53
f 102/214/54 94/216/54 106/203/54
f 105/202/55 94/216/55 96/217/55
f 94/216/55 105/202/55 106/203/55
f 97/198/56 95/218/56 93/211/56
f 95/218/56 97/198/56 98/199/56
f 98/199/57 91/219/57 95/218/57
f 95/196/58 89/220/58 96/197/58
f 89/220/58 95/196/58 91/221/58
f 89/222/59 105/202/59 96/217/59
f 98/199/60 92/223/60 91/219/60
f 92/223/60 98/199/60 100/201/60
f 92/223/61 100/201/61 112/224/61
f 107/204/62 109/225/62 108/205/62
f 109/225/62 107/204/62 111/226/62
f 89/222/63 107/204/63 105/202/63
f 107/204/63 89/222/63 90/227/63
f 90/228/64 112/209/64 111/208/64
f 112/209/64 90/228/64 92/229/64
f 90/227/65 111/226/65 107/204/65
f 109/225/66 101/215/66 108/205/66
f 109/206/67 103/231/67 101/230/67
f 103/231/67 109/206/67 110/207/67
f 112/224/68 99/200/68 110/232/68
f 99/200/68 112/224/68 100/201/68
f 103/233/69 97/198/69 104/210/69
f 97/198/69 103/233/69 99/200/69
f 99/200/70 103/233/70 110/232/70
