# Made using Asset Forge (www.assetforge.io) version 1.3 

mtllib street4.mtl 

v -0.4375 0.1 1.5
v -0.4375 0.1 0.5
v -0.5 0.1 1.5625
v -0.5 0.1 0.4375
v -1.5 0.1 1.5625
v -1.5 0.1 0.4375
v -1.5625 0.1 1.5
v -1.5625 0.1 0.5
v -0.5 0.2 1.5625
v -1.5 0.2 1.5625
v -0.4375 0.2 1.5
v -0.4375 0.2 0.5
v -0.5 0.2 0.4375
v -1.5 0.2 0.4375
v -1.5625 0.2 0.5
v -1.5625 0.2 1.5
vn 0 -1 0
vn 0 0 1
vn 0.7071068 0 0.7071068
vn 1 0 0
vn 0.7071068 0 -0.7071068
vn -0.7071068 0 -0.7071068
vn -1 0 0
vn -0.7071068 0 0.7071068
vn 0 0 -1
vn 0 1 0
vt 0.4375 -1.5
vt 0.4375 -0.5
vt 0.5 -1.5625
vt 0.5 -0.4375
vt 1.5 -1.5625
vt 1.5 -0.4375
vt 1.5625 -1.5
vt 1.5625 -0.5
vt -0.5 0.1
vt -1.5 0.1
vt -0.5 0.2
vt -1.5 0.2
vt -0.4375 0.2
vt -0.4375 0.1
vt 0.5 0.1
vt 0.4375 0.1
vt 0.5 0.2
vt 0.4375 0.2
vt 1.5 0.1
vt 1.5 0.2
vt 1.5625 0.1
vt 1.5625 0.2
vt -1.5625 0.1
vt -1.5625 0.2
vt 0.4375 0.5
vt 0.4375 1.5
vt 0.5 0.4375
vt 0.5 1.5625
vt 1.5 0.4375
vt 1.5 1.5625
vt 1.5625 0.5
vt 1.5625 1.5

usemtl stone (Instance) (Instance)
usemap stone (Instance) (Instance)
f 3/3/1 2/2/1 1/1/1
f 2/2/1 3/3/1 4/4/1
f 4/4/1 3/3/1 5/5/1
f 4/4/1 5/5/1 6/6/1
f 6/6/1 5/5/1 7/7/1
f 6/6/1 7/7/1 8/8/1
f 9/11/2 5/10/2 3/9/2
f 5/10/2 9/11/2 10/12/2
f 9/11/3 1/14/3 11/13/3
f 1/14/3 9/11/3 3/9/3
f 11/12/4 2/9/4 12/11/4
f 2/9/4 11/12/4 1/10/4
f 13/17/5 2/16/5 4/15/5
f 2/16/5 13/17/5 12/18/5
f 8/21/6 14/20/6 6/19/6
f 14/20/6 8/21/6 15/22/6
f 7/19/7 15/17/7 8/15/7
f 15/17/7 7/19/7 16/20/7
f 10/12/8 7/23/8 5/10/8
f 7/23/8 10/12/8 16/24/8
f 14/20/9 4/15/9 6/19/9
f 4/15/9 14/20/9 13/17/9

usemtl stone (Instance) (Instance)
usemap stone (Instance) (Instance)
f 13/27/10 11/26/10 12/25/10
f 11/26/10 13/27/10 9/28/10
f 9/28/10 13/27/10 14/29/10
f 9/28/10 14/29/10 10/30/10
f 10/30/10 14/29/10 15/31/10
f 10/30/10 15/31/10 16/32/10
v -0.4375 0.1 -0.5
v -0.5 0.1 0.5625
v -0.5 0.1 -0.5625
v -1.5 0.1 0.5625
v -1.5 0.1 -0.5625
v -1.5625 0.1 -0.5
v -0.5 0.2 0.5625
v -1.5 0.2 0.5625
v -0.4375 0.2 -0.5
v -0.5 0.2 -0.5625
v -1.5 0.2 -0.5625
v -1.5625 0.2 -0.5
vt 0.5 -0.5625
vt 0.5 0.5625
vt 1.5 -0.5625
vt 1.5 0.5625

usemtl stone (Instance) (Instance) (Instance)
usemap stone (Instance) (Instance) (Instance)
f 18/33/1 17/25/1 2/2/1
f 17/25/1 18/33/1 19/34/1
f 19/34/1 18/33/1 20/35/1
f 19/34/1 20/35/1 21/36/1
f 21/36/1 20/35/1 8/8/1
f 21/36/1 8/8/1 22/31/1
f 23/11/2 20/10/2 18/9/2
f 20/10/2 23/11/2 24/12/2
f 23/11/3 2/14/3 12/13/3
f 2/14/3 23/11/3 18/9/3
f 12/11/4 17/15/4 25/17/4
f 17/15/4 12/11/4 2/9/4
f 26/17/5 17/16/5 19/15/5
f 17/16/5 26/17/5 25/18/5
f 22/21/6 27/20/6 21/19/6
f 27/20/6 22/21/6 28/22/6
f 8/15/7 28/11/7 22/9/7
f 28/11/7 8/15/7 15/17/7
f 24/12/8 8/23/8 20/10/8
f 8/23/8 24/12/8 15/24/8
f 27/20/9 19/15/9 21/19/9
f 19/15/9 27/20/9 26/17/9

usemtl stone (Instance) (Instance) (Instance)
usemap stone (Instance) (Instance) (Instance)
f 26/33/10 12/25/10 25/2/10
f 12/25/10 26/33/10 23/34/10
f 23/34/10 26/33/10 27/35/10
f 23/34/10 27/35/10 24/36/10
f 24/36/10 27/35/10 28/8/10
f 24/36/10 28/8/10 15/31/10
v 0.5625 0.1 0.5
v 0.5625 0.1 -0.5
v 0.5 0.1 0.5625
v 0.5 0.1 -0.5625
v -0.5625 0.1 0.5
v -0.5625 0.1 -0.5
v 0.5 0.2 0.5625
v 0.5625 0.2 0.5
v 0.5625 0.2 -0.5
v 0.5 0.2 -0.5625
v -0.5625 0.2 -0.5
v -0.5625 0.2 0.5
vt -0.5625 -0.5
vt -0.5625 0.5
vt -0.5 -0.5625
vt -0.5 0.5625
vt 0.5625 -0.5
vt 0.5625 0.5
vt 0.5625 0.2
vt 0.5625 0.1
vt -0.5625 0.1
vt -0.5625 0.2

usemtl stone (Instance) (Instance) (Instance) (Instance) (Instance) (Instance) (Instance) (Instance)
usemap stone (Instance) (Instance) (Instance) (Instance) (Instance) (Instance) (Instance) (Instance)
f 31/39/1 30/38/1 29/37/1
f 30/38/1 31/39/1 32/40/1
f 32/40/1 31/39/1 18/33/1
f 32/40/1 18/33/1 19/34/1
f 19/34/1 18/33/1 33/41/1
f 19/34/1 33/41/1 34/42/1
f 35/17/2 18/9/2 31/15/2
f 18/9/2 35/17/2 23/11/2
f 35/17/3 29/44/3 36/43/3
f 29/44/3 35/17/3 31/15/3
f 36/11/4 30/15/4 37/17/4
f 30/15/4 36/11/4 29/9/4
f 38/11/5 30/45/5 32/9/5
f 30/45/5 38/11/5 37/46/5
f 34/44/6 26/17/6 19/15/6
f 26/17/6 34/44/6 39/43/6
f 33/15/7 39/11/7 34/9/7
f 39/11/7 33/15/7 40/17/7
f 23/11/8 33/45/8 18/9/8
f 33/45/8 23/11/8 40/46/8
f 26/17/9 32/9/9 19/15/9
f 32/9/9 26/17/9 38/11/9

usemtl stone (Instance) (Instance) (Instance) (Instance) (Instance) (Instance) (Instance) (Instance)
usemap stone (Instance) (Instance) (Instance) (Instance) (Instance) (Instance) (Instance) (Instance)
f 38/39/10 36/38/10 37/37/10
f 36/38/10 38/39/10 35/40/10
f 35/40/10 38/39/10 26/33/10
f 35/40/10 26/33/10 23/34/10
f 23/34/10 26/33/10 39/41/10
f 23/34/10 39/41/10 40/42/10
v 0.5625 0.1 1.5
v 0.5 0.1 1.5625
v 0.5 0.1 0.4375
v -0.5625 0.1 1.5
v 0.5 0.2 1.5625
v 0.5625 0.2 1.5
v 0.5 0.2 0.4375
v -0.5625 0.2 1.5
vt -0.5625 -1.5
vt -0.5 -1.5625
vt -0.5 -0.4375
vt 0.5625 -1.5
vt -0.5625 1.5
vt -0.5 0.4375
vt -0.5 1.5625
vt 0.5625 1.5

usemtl stone (Instance) (Instance) (Instance) (Instance) (Instance) (Instance) (Instance) (Instance) (Instance)
usemap stone (Instance) (Instance) (Instance) (Instance) (Instance) (Instance) (Instance) (Instance) (Instance)
f 42/48/1 29/37/1 41/47/1
f 29/37/1 42/48/1 43/49/1
f 43/49/1 42/48/1 3/3/1
f 43/49/1 3/3/1 4/4/1
f 4/4/1 3/3/1 44/50/1
f 4/4/1 44/50/1 33/41/1
f 45/17/2 3/9/2 42/15/2
f 3/9/2 45/17/2 9/11/2
f 45/17/3 41/44/3 46/43/3
f 41/44/3 45/17/3 42/15/3
f 46/12/4 29/9/4 36/11/4
f 29/9/4 46/12/4 41/10/4
f 47/11/5 29/45/5 43/9/5
f 29/45/5 47/11/5 36/46/5
f 33/44/6 13/17/6 4/15/6
f 13/17/6 33/44/6 40/43/6
f 44/19/7 40/17/7 33/15/7
f 40/17/7 44/19/7 48/20/7
f 9/11/8 44/45/8 3/9/8
f 44/45/8 9/11/8 48/46/8
f 13/17/9 43/9/9 4/15/9
f 43/9/9 13/17/9 47/11/9

usemtl stone (Instance) (Instance) (Instance) (Instance) (Instance) (Instance) (Instance) (Instance) (Instance)
usemap stone (Instance) (Instance) (Instance) (Instance) (Instance) (Instance) (Instance) (Instance) (Instance)
f 47/52/10 46/51/10 36/38/10
f 46/51/10 47/52/10 45/53/10
f 45/53/10 47/52/10 13/27/10
f 45/53/10 13/27/10 9/28/10
f 9/28/10 13/27/10 40/42/10
f 9/28/10 40/42/10 48/54/10
