# Made using Asset Forge (www.assetforge.io) version 1.3 

mtllib street1.mtl 

v 0.5625 0 1.5
v 0.5625 0 0.5
v 0.5 0 1.5625
v 0.5 0 0.4375
v -0.5 0 1.5625
v -0.5 0 0.4375
v -0.5625 0 1.5
v -0.5625 0 0.5
v 0.5 0.1 1.5625
v -0.5 0.1 1.5625
v 0.5625 0.1 1.5
v 0.5625 0.1 0.5
v 0.5 0.1 0.4375
v -0.5 0.1 0.4375
v -0.5 0.2 0.4375
v -0.5625 0.2 0.5
v -0.5625 0.2 1.5
v -0.5 0.2 1.5625
v -0.4375 0.2 1.5
v -0.4375 0.1 1.5
v -0.4375 0.2 0.5
v -0.4375 0.1 0.5
vn 0 -1 0
vn 0 0 1
vn 0.7071068 0 0.7071068
vn 1 0 0
vn 0.7071068 0 -0.7071068
vn -0.7071068 0 -0.7071068
vn -1 0 0
vn -0.7071068 0 0.7071068
vn 0 0 -1
vn 0 1 0
vt -0.5625 -1.5
vt -0.5625 -0.5
vt -0.5 -1.5625
vt -0.5 -0.4375
vt 0.5 -1.5625
vt 0.5 -0.4375
vt 0.5625 -1.5
vt 0.5625 -0.5
vt 0.5 0
vt -0.5 0
vt 0.5 0.1
vt -0.5 0.1
vt 0.5625 0.1
vt 0.5625 0
vt -1.5 0.1
vt -1.5 0
vt -0.5625 0
vt -0.5625 0.1
vt 0.5 0.2
vt 0.5625 0.2
vt 1.5 0.2
vt 1.5 0
vt -0.5625 0.2
vt -0.5 0.2
vt -0.4375 0.2
vt -0.4375 0.1
vt -1.5 0.2
vt 0.4375 0.5
vt 0.4375 1.5
vt 0.5 0.4375
vt 0.5 1.5625
vt 0.5625 0.5
vt 0.5625 1.5
vt 0.4375 0.1
vt 0.4375 0.2
vt -0.5625 0.5
vt -0.5625 1.5
vt -0.5 0.4375
vt -0.5 1.5625

usemtl stone (Instance)
usemap stone (Instance)
f 3/3/1 2/2/1 1/1/1
f 2/2/1 3/3/1 4/4/1
f 4/4/1 3/3/1 5/5/1
f 4/4/1 5/5/1 6/6/1
f 6/6/1 5/5/1 7/7/1
f 6/6/1 7/7/1 8/8/1
f 9/11/2 5/10/2 3/9/2
f 5/10/2 9/11/2 10/12/2
f 9/11/3 1/14/3 11/13/3
f 1/14/3 9/11/3 3/9/3
f 11/15/4 2/10/4 12/12/4
f 2/10/4 11/15/4 1/16/4
f 13/12/5 2/17/5 4/10/5
f 2/17/5 13/12/5 12/18/5
f 8/14/6 14/11/6 6/9/6
f 14/11/6 8/14/6 15/19/6
f 15/19/6 8/14/6 16/20/6
f 8/9/7 17/21/7 16/19/7
f 17/21/7 8/9/7 7/22/7
f 10/12/8 7/17/8 5/10/8
f 7/17/8 10/12/8 17/23/8
f 17/23/8 10/12/8 18/24/8
f 14/11/9 4/10/9 6/9/9
f 4/10/9 14/11/9 13/12/9
f 18/24/3 20/26/3 19/25/3
f 20/26/3 18/24/3 10/12/3
f 19/27/4 22/12/4 21/24/4
f 22/12/4 19/27/4 20/15/4
f 15/30/10 19/29/10 21/28/10
f 19/29/10 15/30/10 18/31/10
f 18/31/10 15/30/10 16/32/10
f 18/31/10 16/32/10 17/33/10
f 15/19/5 22/34/5 14/11/5
f 22/34/5 15/19/5 21/35/5

usemtl customMaterial2 (Instance)
usemap customMaterial2 (Instance)
f 13/38/10 11/37/10 12/36/10
f 11/37/10 13/38/10 9/39/10
f 9/39/10 13/38/10 22/28/10
f 22/28/10 13/38/10 14/30/10
f 20/29/10 9/39/10 22/28/10
f 9/39/10 20/29/10 10/31/10
v 0.4375 0 1.5
v 0.4375 0 0.5
v 1.5 0 1.5625
v 1.5 0 0.4375
v 1.5625 0 1.5
v 1.5625 0 0.5
v 1.5 0.1 1.5625
v 0.4375 0.1 1.5
v 0.4375 0.1 0.5
v 1.5 0.1 0.4375
v 1.5 0.2 0.4375
v 1.5625 0.2 0.5
v 1.5625 0.2 1.5
v 1.5 0.2 1.5625
v 1.4375 0.2 1.5
v 1.4375 0.1 1.5
v 1.4375 0.2 0.5
v 1.4375 0.1 0.5
vt -0.4375 1.5
vt -0.4375 0.5
vt -1.5 1.5625
vt -1.5 0.4375
vt -1.5625 1.5
vt -1.5625 0.5
vt -0.4375 0
vt 0.4375 0
vt 1.5 0.1
vt 1.5625 0
vt 1.5625 0.2
vt -1.5625 0
vt -1.5625 0.2
vt -1.4375 0.2
vt -1.4375 0.1
vt -1.4375 -0.5
vt -1.4375 -1.5
vt -1.5 -0.4375
vt -1.5 -1.5625
vt -1.5625 -0.5
vt -1.5625 -1.5
vt 1.4375 0.1
vt 1.4375 0.2
vt -0.4375 -0.5
vt -0.4375 -1.5

usemtl stone (Instance) (Instance)
usemap stone (Instance) (Instance)
f 23/40/1 24/41/1 3/39/1
f 4/38/1 3/39/1 24/41/1
f 25/42/1 3/39/1 4/38/1
f 26/43/1 25/42/1 4/38/1
f 27/44/1 25/42/1 26/43/1
f 28/45/1 27/44/1 26/43/1
f 3/10/2 25/16/2 9/12/2
f 29/15/2 9/12/2 25/16/2
f 30/26/8 23/46/8 9/12/8
f 3/10/8 9/12/8 23/46/8
f 31/12/7 24/10/7 30/15/7
f 23/16/7 30/15/7 24/10/7
f 4/9/6 24/47/6 13/11/6
f 31/34/6 13/11/6 24/47/6
f 26/22/5 32/48/5 28/49/5
f 33/21/5 28/49/5 32/48/5
f 34/50/5 28/49/5 33/21/5
f 34/19/4 35/21/4 28/9/4
f 27/22/4 28/9/4 35/21/4
f 25/16/3 27/51/3 29/15/3
f 35/52/3 29/15/3 27/51/3
f 36/27/3 29/15/3 35/52/3
f 26/22/9 4/9/9 32/48/9
f 13/11/9 32/48/9 4/9/9
f 37/53/8 38/54/8 36/27/8
f 29/15/8 36/27/8 38/54/8
f 39/24/7 40/12/7 37/27/7
f 38/15/7 37/27/7 40/12/7
f 39/55/10 37/56/10 33/57/10
f 36/58/10 33/57/10 37/56/10
f 34/59/10 33/57/10 36/58/10
f 35/60/10 34/59/10 36/58/10
f 32/48/6 40/61/6 33/21/6
f 39/62/6 33/21/6 40/61/6

usemtl customMaterial2 (Instance)
usemap customMaterial2 (Instance)
f 31/63/10 30/64/10 13/4/10
f 9/3/10 13/4/10 30/64/10
f 40/55/10 13/4/10 9/3/10
f 32/57/10 13/4/10 40/55/10
f 40/55/10 9/3/10 38/56/10
f 29/58/10 38/56/10 9/3/10
v -1.5 0.1 1.5625
v -1.5 0.1 0.4375
v -1.5625 0.1 1.5
v -1.5625 0.1 0.5
v -1.5 0.2 1.5625
v -1.5 0.2 0.4375
v -1.5625 0.2 0.5
v -1.5625 0.2 1.5
vt 0.4375 -1.5
vt 0.4375 -0.5
vt 1.5 -1.5625
vt 1.5 -0.4375
vt 1.5625 -1.5
vt 1.5625 -0.5
vt 1.5625 0.1
vt -1.5625 0.1
vt 1.5 0.4375
vt 1.5 1.5625
vt 1.5625 0.5
vt 1.5625 1.5

usemtl stone (Instance) (Instance)
usemap stone (Instance) (Instance)
f 10/5/1 22/66/1 20/65/1
f 22/66/1 10/5/1 14/6/1
f 14/6/1 10/5/1 41/67/1
f 14/6/1 41/67/1 42/68/1
f 42/68/1 41/67/1 43/69/1
f 42/68/1 43/69/1 44/70/1
f 18/24/2 41/15/2 10/12/2
f 41/15/2 18/24/2 45/27/2
f 18/24/3 20/26/3 19/25/3
f 20/26/3 18/24/3 10/12/3
f 19/27/4 22/12/4 21/24/4
f 22/12/4 19/27/4 20/15/4
f 15/19/5 22/34/5 14/11/5
f 22/34/5 15/19/5 21/35/5
f 44/71/6 46/21/6 42/48/6
f 46/21/6 44/71/6 47/50/6
f 43/48/7 47/19/7 44/11/7
f 47/19/7 43/48/7 48/21/7
f 45/27/8 43/72/8 41/15/8
f 43/72/8 45/27/8 48/52/8
f 46/21/9 14/11/9 42/48/9
f 14/11/9 46/21/9 15/19/9

usemtl stone (Instance) (Instance)
usemap stone (Instance) (Instance)
f 15/30/10 19/29/10 21/28/10
f 19/29/10 15/30/10 18/31/10
f 18/31/10 15/30/10 46/73/10
f 18/31/10 46/73/10 45/74/10
f 45/74/10 46/73/10 47/75/10
f 45/74/10 47/75/10 48/76/10
v 2.5625 0.1 1.5
v 2.5625 0.1 0.5
v 2.5 0.1 1.5625
v 2.5 0.1 0.4375
v 2.5 0.2 1.5625
v 2.5625 0.2 1.5
v 2.5625 0.2 0.5
v 2.5 0.2 0.4375
vt -2.5625 -1.5
vt -2.5625 -0.5
vt -2.5 -1.5625
vt -2.5 -0.4375
vt 2.5 0.1
vt 2.5 0.2
vt 2.5625 0.2
vt 2.5625 0.1
vt -2.5 0.1
vt -2.5625 0.1
vt -2.5 0.2
vt -2.5625 0.2
vt -2.5625 0.5
vt -2.5625 1.5
vt -2.5 0.4375
vt -2.5 1.5625
vt -1.4375 0.5
vt -1.4375 1.5

usemtl stone (Instance) (Instance)
usemap stone (Instance) (Instance)
f 51/79/1 50/78/1 49/77/1
f 50/78/1 51/79/1 52/80/1
f 52/80/1 51/79/1 29/58/1
f 52/80/1 29/58/1 32/57/1
f 32/57/1 29/58/1 38/56/1
f 32/57/1 38/56/1 40/55/1
f 53/82/2 29/48/2 51/81/2
f 29/48/2 53/82/2 36/21/2
f 53/82/3 49/84/3 54/83/3
f 49/84/3 53/82/3 51/81/3
f 54/27/4 50/12/4 55/24/4
f 50/12/4 54/27/4 49/15/4
f 56/87/5 50/86/5 52/85/5
f 50/86/5 56/87/5 55/88/5
f 40/54/6 33/27/6 32/15/6
f 33/27/6 40/54/6 39/53/6
f 38/48/7 39/19/7 40/11/7
f 39/19/7 38/48/7 37/21/7
f 36/21/8 38/61/8 29/48/8
f 38/61/8 36/21/8 37/62/8
f 33/27/9 52/85/9 32/15/9
f 52/85/9 33/27/9 56/87/9

usemtl stone (Instance) (Instance)
usemap stone (Instance) (Instance)
f 56/91/10 54/90/10 55/89/10
f 54/90/10 56/91/10 53/92/10
f 53/92/10 56/91/10 33/43/10
f 53/92/10 33/43/10 36/42/10
f 36/42/10 33/43/10 39/93/10
f 36/42/10 39/93/10 37/94/10
v -0.4375 0.1 2.5
v -0.5 0.1 2.5625
v -0.5 0.1 1.4375
v -1.5 0.1 2.5625
v -1.5 0.1 1.4375
v -1.5625 0.1 2.5
v -0.5 0.2 2.5625
v -1.5 0.2 2.5625
v -0.4375 0.2 2.5
v -0.5 0.2 1.4375
v -1.5 0.2 1.4375
v -1.5625 0.2 2.5
vt 0.4375 -2.5
vt 0.5 -2.5625
vt 0.5 -1.4375
vt 1.5 -2.5625
vt 1.5 -1.4375
vt 1.5625 -2.5
vt 0.4375 2.5
vt 0.5 1.4375
vt 0.5 2.5625
vt 1.5 1.4375
vt 1.5 2.5625
vt 1.5625 2.5

usemtl stone (Instance) (Instance)
usemap stone (Instance) (Instance)
f 58/96/1 20/65/1 57/95/1
f 20/65/1 58/96/1 59/97/1
f 59/97/1 58/96/1 60/98/1
f 59/97/1 60/98/1 61/99/1
f 61/99/1 60/98/1 62/100/1
f 61/99/1 62/100/1 43/69/1
f 63/24/2 60/15/2 58/12/2
f 60/15/2 63/24/2 64/27/2
f 63/24/3 57/26/3 65/25/3
f 57/26/3 63/24/3 58/12/3
f 65/87/4 20/15/4 19/27/4
f 20/15/4 65/87/4 57/85/4
f 66/19/5 20/34/5 59/11/5
f 20/34/5 66/19/5 19/35/5
f 43/71/6 67/21/6 61/48/6
f 67/21/6 43/71/6 48/50/6
f 62/81/7 48/21/7 43/48/7
f 48/21/7 62/81/7 68/82/7
f 64/27/8 62/72/8 60/15/8
f 62/72/8 64/27/8 68/52/8
f 67/21/9 59/11/9 61/48/9
f 59/11/9 67/21/9 66/19/9

usemtl stone (Instance) (Instance)
usemap stone (Instance) (Instance)
f 66/102/10 65/101/10 19/29/10
f 65/101/10 66/102/10 63/103/10
f 63/103/10 66/102/10 67/104/10
f 63/103/10 67/104/10 64/105/10
f 64/105/10 67/104/10 48/76/10
f 64/105/10 48/76/10 68/106/10
v 2.5625 0.1 2.5
v 2.5 0.1 2.5625
v 2.5 0.1 1.4375
v 1.5 0.1 2.5625
v 1.5 0.1 1.4375
v 1.4375 0.1 2.5
v 2.5 0.2 2.5625
v 1.5 0.2 2.5625
v 2.5625 0.2 2.5
v 2.5 0.2 1.4375
v 1.5 0.2 1.4375
v 1.4375 0.2 2.5
vt -2.5625 -2.5
vt -2.5 -2.5625
vt -2.5 -1.4375
vt -1.5 -2.5625
vt -1.5 -1.4375
vt -1.4375 -2.5
vt -2.5625 2.5
vt -2.5 1.4375
vt -2.5 2.5625
vt -1.5 1.4375
vt -1.5 2.5625
vt -1.4375 2.5

usemtl stone (Instance) (Instance)
usemap stone (Instance) (Instance)
f 70/108/1 49/77/1 69/107/1
f 49/77/1 70/108/1 71/109/1
f 71/109/1 70/108/1 72/110/1
f 71/109/1 72/110/1 73/111/1
f 73/111/1 72/110/1 74/112/1
f 73/111/1 74/112/1 38/56/1
f 75/82/2 72/48/2 70/81/2
f 72/48/2 75/82/2 76/21/2
f 75/82/3 69/84/3 77/83/3
f 69/84/3 75/82/3 70/81/3
f 77/87/4 49/15/4 54/27/4
f 49/15/4 77/87/4 69/85/4
f 78/87/5 49/86/5 71/85/5
f 49/86/5 78/87/5 54/88/5
f 38/54/6 79/27/6 73/15/6
f 79/27/6 38/54/6 37/53/6
f 74/81/7 37/21/7 38/48/7
f 37/21/7 74/81/7 80/82/7
f 76/21/8 74/61/8 72/48/8
f 74/61/8 76/21/8 80/62/8
f 79/27/9 71/85/9 73/15/9
f 71/85/9 79/27/9 78/87/9

usemtl stone (Instance) (Instance)
usemap stone (Instance) (Instance)
f 78/114/10 77/113/10 54/90/10
f 77/113/10 78/114/10 75/115/10
f 75/115/10 78/114/10 79/116/10
f 75/115/10 79/116/10 76/117/10
f 76/117/10 79/116/10 37/94/10
f 76/117/10 37/94/10 80/118/10
v 0.5625 0 2.5
v 0.5 0 2.5625
v 0.5 0 1.4375
v -0.5 0 2.5625
v -0.5 0 1.4375
v -0.5625 0 2.5
v 0.5 0.1 2.5625
v 0.5625 0.1 2.5
v 0.5 0.1 1.4375
v -0.5625 0.2 2.5
vt -0.5625 -2.5
vt -0.5 -2.5625
vt -0.5 -1.4375
vt 0.5625 -2.5
vt -2.5 0
vt 2.5 0
vt 0.5625 2.5
vt -0.5625 2.5
vt -0.5 1.4375
vt -0.5 2.5625

usemtl stone (Instance) (Instance)
usemap stone (Instance) (Instance)
f 82/120/1 1/1/1 81/119/1
f 1/1/1 82/120/1 83/121/1
f 83/121/1 82/120/1 84/96/1
f 83/121/1 84/96/1 85/97/1
f 85/97/1 84/96/1 86/122/1
f 85/97/1 86/122/1 7/7/1
f 87/11/2 84/10/2 82/9/2
f 84/10/2 87/11/2 58/12/2
f 87/11/3 81/14/3 88/13/3
f 81/14/3 87/11/3 82/9/3
f 88/85/4 1/16/4 11/15/4
f 1/16/4 88/85/4 81/123/4
f 89/12/5 1/17/5 83/10/5
f 1/17/5 89/12/5 11/18/5
f 7/14/6 59/11/6 85/9/6
f 59/11/6 7/14/6 66/19/6
f 66/19/6 7/14/6 17/20/6
f 7/22/7 90/82/7 17/21/7
f 90/82/7 7/22/7 86/124/7
f 58/12/8 86/17/8 84/10/8
f 86/17/8 58/12/8 90/23/8
f 90/23/8 58/12/8 63/24/8
f 59/11/9 83/10/9 85/9/9
f 83/10/9 59/11/9 89/12/9
f 63/24/3 57/26/3 65/25/3
f 57/26/3 63/24/3 58/12/3
f 65/87/4 20/15/4 19/27/4
f 20/15/4 65/87/4 57/85/4
f 66/102/10 65/101/10 19/29/10
f 65/101/10 66/102/10 63/103/10
f 63/103/10 66/102/10 17/33/10
f 63/103/10 17/33/10 90/125/10
f 66/19/5 20/34/5 59/11/5
f 20/34/5 66/19/5 19/35/5

usemtl customMaterial2 (Instance)
usemap customMaterial2 (Instance)
f 89/127/10 88/126/10 11/37/10
f 88/126/10 89/127/10 87/128/10
f 87/128/10 89/127/10 20/29/10
f 20/29/10 89/127/10 59/102/10
f 57/101/10 87/128/10 20/29/10
f 87/128/10 57/101/10 58/103/10
v 0.4375 0 2.5
v 1.5 0 2.5625
v 1.5 0 1.4375
v 1.5625 0 2.5
v 0.4375 0.1 2.5
v 1.5625 0.2 2.5
vt -0.4375 2.5
vt -1.5625 2.5
vt -1.5625 -2.5
vt -0.4375 -2.5

usemtl stone (Instance) (Instance)
usemap stone (Instance) (Instance)
f 91/129/1 23/40/1 82/128/1
f 83/127/1 82/128/1 23/40/1
f 92/117/1 82/128/1 83/127/1
f 93/116/1 92/117/1 83/127/1
f 94/130/1 92/117/1 93/116/1
f 27/44/1 94/130/1 93/116/1
f 82/10/2 92/16/2 87/12/2
f 72/15/2 87/12/2 92/16/2
f 95/26/8 91/46/8 87/12/8
f 82/10/8 87/12/8 91/46/8
f 30/15/7 23/16/7 95/85/7
f 91/123/7 95/85/7 23/16/7
f 83/9/6 23/47/6 89/11/6
f 30/34/6 89/11/6 23/47/6
f 93/22/5 73/48/5 27/49/5
f 79/21/5 27/49/5 73/48/5
f 35/50/5 27/49/5 79/21/5
f 35/21/4 96/82/4 27/22/4
f 94/124/4 27/22/4 96/82/4
f 92/16/3 94/51/3 72/15/3
f 96/52/3 72/15/3 94/51/3
f 76/27/3 72/15/3 96/52/3
f 93/22/9 83/9/9 73/48/9
f 89/11/9 73/48/9 83/9/9
f 80/53/8 74/54/8 76/27/8
f 72/15/8 76/27/8 74/54/8
f 37/27/7 38/15/7 80/87/7
f 74/85/7 80/87/7 38/15/7
f 37/56/10 80/112/10 79/111/10
f 76/110/10 79/111/10 80/112/10
f 35/60/10 79/111/10 76/110/10
f 96/131/10 35/60/10 76/110/10
f 73/48/6 38/61/6 79/21/6
f 37/62/6 79/21/6 38/61/6

usemtl customMaterial2 (Instance)
usemap customMaterial2 (Instance)
f 30/64/10 95/132/10 89/121/10
f 87/120/10 89/121/10 95/132/10
f 38/56/10 89/121/10 87/120/10
f 73/111/10 89/121/10 38/56/10
f 38/56/10 87/120/10 74/112/10
f 72/110/10 74/112/10 87/120/10
