# Made using Asset Forge (www.assetforge.io) version 1.3 

mtllib streetlamp.mtl 

v 0.4 1 2.887645E-16
v 0.2828427 1 0.2828427
v 0.2828427 1 -0.2828427
v 8.662937E-16 1 -0.4
v 5.775291E-16 1 0.4
v -0.2828427 1 -0.2828427
v -0.2828427 1 0.2828427
v -0.4 1 2.887645E-16
v 0.2828427 0 -0.2828427
v 0.4 0 2.887645E-16
v -0.2828427 0 -0.2828427
v 8.662937E-16 0 -0.4
v 0.2828427 0 0.2828427
v -0.4 0 2.887645E-16
v -0.2828427 0 0.2828427
v 5.775291E-16 0 0.4
vn 0 1 0
vn 0.7391036 0 -0.3061467
vn -0.3061467 0 -0.7391036
vn 0.7391036 0 0.3061467
vn -0.7391036 0 -0.3061467
vn -0.7391036 0 0.3061467
vn 0.3061467 0 0.7391036
vn 0.3061467 0 -0.7391036
vn 0 -1 0
vn -0.3061467 0 0.7391036
vt -0.4 2.887645E-16
vt -0.2828427 0.2828427
vt -0.2828427 -0.2828427
vt -8.662937E-16 -0.4
vt -5.775291E-16 0.4
vt 0.2828427 -0.2828427
vt 0.2828427 0.2828427
vt 0.4 2.887645E-16
vt 0.2828427 1
vt 0.2828427 0
vt -2.887645E-16 1
vt -2.887645E-16 0
vt -8.662937E-16 0
vt -8.662937E-16 1
vt -0.2828427 1
vt -0.2828427 0
vt 2.887645E-16 0
vt 2.887645E-16 1
vt 5.775291E-16 0
vt 5.775291E-16 1
vt -0.4 -2.887645E-16
vt -5.775291E-16 -0.4
vt -8.662937E-16 0.4
vt 0.4 -2.887645E-16

usemtl woodDark (Instance) (Instance)
usemap woodDark (Instance) (Instance)
f 3/3/1 2/2/1 1/1/1
f 2/2/1 3/3/1 4/4/1
f 2/2/1 4/4/1 5/5/1
f 5/5/1 4/4/1 6/6/1
f 5/5/1 6/6/1 7/7/1
f 7/7/1 6/6/1 8/8/1
f 1/11/2 9/10/2 3/9/2
f 9/10/2 1/11/2 10/12/2
f 6/9/3 12/13/3 11/10/3
f 12/13/3 6/9/3 4/14/3
f 2/15/4 10/12/4 1/11/4
f 10/12/4 2/15/4 13/16/4
f 14/17/5 6/15/5 11/16/5
f 6/15/5 14/17/5 8/18/5
f 15/10/6 8/18/6 14/17/6
f 8/18/6 15/10/6 7/9/6
f 2/9/7 16/19/7 13/10/7
f 16/19/7 2/9/7 5/20/7
f 4/14/8 9/16/8 12/13/8
f 9/16/8 4/14/8 3/15/8
f 13/3/9 9/2/9 10/21/9
f 9/2/9 13/3/9 16/22/9
f 9/2/9 16/22/9 12/23/9
f 12/23/9 16/22/9 11/7/9
f 11/7/9 16/22/9 15/6/9
f 11/7/9 15/6/9 14/24/9
f 5/20/10 15/16/10 16/19/10
f 15/16/10 5/20/10 7/15/10
v 0.2 9 1.443823E-16
v 0.1414214 9 0.1414214
v 0.1414214 9 -0.1414214
v 4.331469E-16 9 -0.2
v 2.887646E-16 9 0.2
v -0.1414214 9 -0.1414214
v -0.1414214 9 0.1414214
v -0.2 9 1.443823E-16
v 0.1414214 0 -0.1414214
v 0.2 0 1.443823E-16
v -0.1414214 0 -0.1414214
v 4.331469E-16 0 -0.2
v 0.1414214 0 0.1414214
v -0.2 0 1.443823E-16
v -0.1414214 0 0.1414214
v 2.887646E-16 0 0.2
vn 0 9 0
vn 0.3695518 0 -0.1530734
vn -0.1530734 0 -0.3695518
vn 0.3695518 0 0.1530734
vn -0.3695518 0 -0.1530734
vn -0.3695518 0 0.1530734
vn 0.1530734 0 0.3695518
vn 0.1530734 0 -0.3695518
vn 0 -9 0
vn -0.1530734 0 0.3695518
vt -0.2 1.443823E-16
vt -0.1414214 0.1414214
vt -0.1414214 -0.1414214
vt -4.331469E-16 -0.2
vt -2.887646E-16 0.2
vt 0.1414214 -0.1414214
vt 0.1414214 0.1414214
vt 0.2 1.443823E-16
vt 0.1414214 9
vt 0.1414214 0
vt -1.443823E-16 9
vt -1.443823E-16 0
vt -4.331469E-16 0
vt -4.331469E-16 9
vt -0.1414214 9
vt -0.1414214 0
vt 1.443823E-16 0
vt 1.443823E-16 9
vt 2.887646E-16 0
vt 2.887646E-16 9
vt -0.2 -1.443823E-16
vt -2.887646E-16 -0.2
vt -4.331469E-16 0.2
vt 0.2 -1.443823E-16

usemtl _defaultMat (Instance) (Instance)
usemap _defaultMat (Instance) (Instance)
f 19/27/11 18/26/11 17/25/11
f 18/26/11 19/27/11 20/28/11
f 18/26/11 20/28/11 21/29/11
f 21/29/11 20/28/11 22/30/11
f 21/29/11 22/30/11 23/31/11
f 23/31/11 22/30/11 24/32/11
f 17/35/12 25/34/12 19/33/12
f 25/34/12 17/35/12 26/36/12
f 22/33/13 28/37/13 27/34/13
f 28/37/13 22/33/13 20/38/13
f 18/39/14 26/36/14 17/35/14
f 26/36/14 18/39/14 29/40/14
f 30/41/15 22/39/15 27/40/15
f 22/39/15 30/41/15 24/42/15
f 31/34/16 24/42/16 30/41/16
f 24/42/16 31/34/16 23/33/16
f 18/33/17 32/43/17 29/34/17
f 32/43/17 18/33/17 21/44/17
f 20/38/18 25/40/18 28/37/18
f 25/40/18 20/38/18 19/39/18
f 29/27/19 25/26/19 26/45/19
f 25/26/19 29/27/19 32/46/19
f 25/26/19 32/46/19 28/47/19
f 28/47/19 32/46/19 27/31/19
f 27/31/19 32/46/19 31/30/19
f 27/31/19 31/30/19 30/48/19
f 21/44/20 31/40/20 32/43/20
f 31/40/20 21/44/20 23/39/20
v 0.3 8.9 2.165734E-16
v 0.212132 8.9 0.212132
v 0.212132 8.9 -0.212132
v 6.497202E-16 8.9 -0.3
v 4.331468E-16 8.9 0.3
v -0.212132 8.9 -0.212132
v -0.212132 8.9 0.212132
v -0.3 8.9 2.165734E-16
v 0.212132 7.9 -0.212132
v 0.3 7.9 2.165734E-16
v -0.212132 7.9 -0.212132
v 6.497202E-16 7.9 -0.3
v 0.212132 7.9 0.212132
v -0.3 7.9 2.165734E-16
v -0.212132 7.9 0.212132
v 4.331468E-16 7.9 0.3
vn 0.5543277 0 -0.22961
vn -0.22961 0 -0.5543277
vn 0.5543277 0 0.22961
vn -0.5543277 0 -0.22961
vn -0.5543277 0 0.22961
vn 0.22961 0 0.5543277
vn 0.22961 0 -0.5543277
vn -0.22961 0 0.5543277
vt -0.3 2.165734E-16
vt -0.212132 0.212132
vt -0.212132 -0.212132
vt -6.497202E-16 -0.3
vt -4.331468E-16 0.3
vt 0.212132 -0.212132
vt 0.212132 0.212132
vt 0.3 2.165734E-16
vt 0.212132 8.9
vt 0.212132 7.9
vt -2.165734E-16 8.9
vt -2.165734E-16 7.9
vt -6.497202E-16 7.9
vt -6.497202E-16 8.9
vt -0.212132 8.9
vt -0.212132 7.9
vt 2.165734E-16 7.9
vt 2.165734E-16 8.9
vt 4.331468E-16 7.9
vt 4.331468E-16 8.9
vt -0.3 -2.165734E-16
vt -4.331468E-16 -0.3
vt -6.497202E-16 0.3
vt 0.3 -2.165734E-16

usemtl woodDark (Instance) (Instance)
usemap woodDark (Instance) (Instance)
f 35/51/1 34/50/1 33/49/1
f 34/50/1 35/51/1 36/52/1
f 34/50/1 36/52/1 37/53/1
f 37/53/1 36/52/1 38/54/1
f 37/53/1 38/54/1 39/55/1
f 39/55/1 38/54/1 40/56/1
f 33/59/21 41/58/21 35/57/21
f 41/58/21 33/59/21 42/60/21
f 38/57/22 44/61/22 43/58/22
f 44/61/22 38/57/22 36/62/22
f 34/63/23 42/60/23 33/59/23
f 42/60/23 34/63/23 45/64/23
f 46/65/24 38/63/24 43/64/24
f 38/63/24 46/65/24 40/66/24
f 47/58/25 40/66/25 46/65/25
f 40/66/25 47/58/25 39/57/25
f 34/57/26 48/67/26 45/58/26
f 48/67/26 34/57/26 37/68/26
f 36/62/27 41/64/27 44/61/27
f 41/64/27 36/62/27 35/63/27
f 45/51/9 41/50/9 42/69/9
f 41/50/9 45/51/9 48/70/9
f 41/50/9 48/70/9 44/71/9
f 44/71/9 48/70/9 43/55/9
f 43/55/9 48/70/9 47/54/9
f 43/55/9 47/54/9 46/72/9
f 37/68/28 47/64/28 48/67/28
f 47/64/28 37/68/28 39/63/28
v 0.2 8 -0.2
v 0.2 8 -0.4
v -0.2 8 -0.2
v -0.2 8 -0.4
v -0.2 8.8 -0.4
v -0.2 8.8 -0.2
v 0.2 8.8 -0.4
v 0.2 8.8 -0.2
vn 0 -0.8 0
vn -0.4 0 0
vn 0 0 -0.2
vn 0 0 0.2
vn 0.4 0 0
vn 0 0.8 0
vt -0.2 0.2
vt -0.2 0.4
vt 0.2 0.2
vt 0.2 0.4
vt -0.4 8
vt -0.4 8.8
vt -0.2 8
vt -0.2 8.8
vt 0.2 8
vt -0.2 8
vt 0.2 8.8
vt -0.2 8.8
vt 0.4 8.8
vt 0.4 8
vt 0.2 8.8
vt 0.2 8
vt -0.2 -0.4
vt -0.2 -0.2
vt 0.2 -0.4
vt 0.2 -0.2

usemtl satellite (Instance)
usemap satellite (Instance)
f 51/75/29 50/74/29 49/73/29
f 50/74/29 51/75/29 52/76/29
f 51/79/30 53/78/30 52/77/30
f 53/78/30 51/79/30 54/80/30
f 53/83/31 50/82/31 52/81/31
f 50/82/31 53/83/31 55/84/31
f 56/83/32 51/82/32 49/81/32
f 51/82/32 56/83/32 54/84/32
f 56/87/33 50/86/33 55/85/33
f 50/86/33 56/87/33 49/88/33
f 53/91/34 56/90/34 55/89/34
f 56/90/34 53/91/34 54/92/34
v 0.08967018 8.368951 -0.9137985
v 0.08967018 8.368951 -0.8139328
v 0.08967018 8.499151 -0.9137986
v 0.08967018 8.368951 -0.6742954
v 0.08967018 8.499151 -0.6742954
v 0.08967018 8.499151 -2.25
v 0.08967018 8.368951 -2.25
v 0.08967018 8.499151 -0.8139327
v -0.0467298 8.499151 -0.6742954
v -0.0467298 8.368951 -0.6742954
v 0.1156604 8.52396 -0.8139328
v -0.07271993 8.52396 -0.8139328
v 0.1156604 8.52396 -0.9137985
v -0.07271993 8.52396 -0.9137985
v 0.1429404 8.55 -0.1500001
v -0.1 8.55 -0.1500001
v 0.1429404 8.55 -0.5993961
v -0.1 8.55 -0.5993961
v 0.1156604 8.344142 -0.9137986
v -0.07271993 8.344142 -0.9137986
v -0.0467298 8.368951 -0.9137985
v -0.0467298 8.499151 -0.9137986
v -0.1 8.318102 -0.5993962
v 0.1429404 8.318102 -0.5993962
v -0.1 8.318103 -0.1500001
v -0.0467298 8.499151 -0.8139327
v -0.0467298 8.499151 -2.25
v -0.0467298 8.368951 -2.25
v -0.0467298 8.368951 -0.8139328
v -0.07271993 8.344142 -0.8139327
v 0.1429404 8.318103 -0.1500001
v 0.1156604 8.344142 -0.8139327
vn 2.2 0 0
vn 0 -2.384186E-07 -2.1
vn 0 2.384186E-07 2.1
vn 0 2.1 -2.384186E-07
vn 0 -1.737438 -1.179538
vn -1.820172 -1.192093E-07 -1.179539
vn -2.2 0 0
vn 0 -2.1 2.384186E-07
vn 1.820172 -1.192093E-07 -1.179539
vn 0 1.737437 -1.179539
vt 0.9137985 8.368951
vt 0.8139328 8.368951
vt 0.9137985 8.499151
vt 0.6742954 8.368951
vt 0.6742954 8.499151
vt 2.25 8.499151
vt 2.25 8.368951
vt 0.0896702 8.499151
vt 0.0896702 8.368951
vt -0.04672981 8.499151
vt -0.04672981 8.368951
vt -0.1156603 -0.8139328
vt 0.07271995 -0.8139328
vt -0.1156603 -0.9137985
vt 0.07271995 -0.9137985
vt -0.1429404 -0.1500001
vt 0.1 -0.1500001
vt -0.1429404 -0.5993961
vt 0.1 -0.5993961
vt -0.1156603 8.52396
vt -0.0896702 8.368951
vt -0.1156603 8.344142
vt 0.07271995 8.344142
vt 0.04672981 8.368951
vt 0.04672981 8.499151
vt -0.0896702 8.499151
vt 0.07271995 8.52396
vt 0.1 0.5993961
vt -0.1429404 0.5993961
vt 0.04672981 0.6742954
vt -0.0896702 0.6742954
vt -0.5993961 8.318102
vt -0.6742954 8.368951
vt -0.5993961 8.55
vt -0.6742954 8.499151
vt -0.1500001 8.318103
vt -0.1500001 8.55
vt -0.0896702 -0.6742954
vt 0.04672981 -0.6742954
vt -0.0896702 -0.8139328
vt 0.04672981 -0.8139328
vt -0.0896702 -0.9137985
vt 0.04672981 -0.9137985
vt -0.0896702 -2.25
vt 0.04672981 -2.25
vt 0.04672981 0.9137985
vt -0.0896702 0.9137985
vt 0.04672981 2.25
vt -0.0896702 2.25
vt -0.0896702 0.8139328
vt 0.04672981 0.8139328
vt -0.8139328 8.344142
vt -0.9137985 8.344142
vt -0.8139328 8.52396
vt -0.9137985 8.52396
vt 0.1 0.1500001
vt -0.1429404 0.1500001
vt -0.8139328 8.368951
vt -0.9137985 8.368951
vt -0.9137985 8.499151
vt -2.25 8.368951
vt -2.25 8.499151
vt 0.5993961 8.318102
vt 0.1500001 8.318103
vt 0.5993961 8.55
vt 0.1500001 8.55
vt 0.07271995 0.8139328
vt -0.1156603 0.8139328
vt 0.07271995 0.9137985
vt -0.1156603 0.9137985
vt 0.9137985 8.344142
vt 0.8139328 8.344142
vt 0.9137985 8.52396
vt 0.8139328 8.52396
vt 0.1429404 8.55
vt 0.1429404 8.318103
vt -0.1 8.55
vt -0.1 8.318103
vt 0.1156603 8.344142
vt 0.1156603 8.52396
vt -0.07271995 8.52396
vt -0.07271995 8.344142

usemtl satellite (Instance)
usemap satellite (Instance)
f 59/95/35 58/94/35 57/93/35
f 58/94/35 59/95/35 60/96/35
f 60/96/35 59/95/35 61/97/35
f 57/93/35 62/98/35 59/95/35
f 62/98/35 57/93/35 63/99/35
f 61/100/36 59/100/36 64/100/36
f 65/102/37 60/101/37 61/100/37
f 60/101/37 65/102/37 66/103/37
f 69/106/38 68/105/38 67/104/38
f 68/105/38 69/106/38 70/107/38
f 73/110/38 72/109/38 71/108/38
f 72/109/38 73/110/38 74/111/38
f 75/114/36 57/113/36 69/112/36
f 57/113/36 75/114/36 76/115/36
f 57/113/36 76/115/36 77/116/36
f 77/116/36 76/115/36 78/117/36
f 59/118/36 69/112/36 57/113/36
f 69/112/36 59/118/36 70/119/36
f 70/119/36 59/118/36 78/117/36
f 70/119/36 78/117/36 76/115/36
f 66/122/39 80/121/39 79/120/39
f 80/121/39 66/122/39 60/123/39
f 74/126/40 66/125/40 79/124/40
f 66/125/40 74/126/40 65/127/40
f 72/129/41 79/124/41 81/128/41
f 79/124/41 72/129/41 74/126/41
f 64/132/38 65/131/38 61/130/38
f 65/131/38 64/132/38 82/133/38
f 82/133/38 64/132/38 59/134/38
f 82/133/38 59/134/38 78/135/38
f 62/136/38 78/135/38 59/134/38
f 78/135/38 62/136/38 83/137/38
f 84/140/42 57/139/42 77/138/42
f 57/139/42 84/140/42 63/141/42
f 58/142/42 77/138/42 57/139/42
f 58/142/42 85/143/42 77/138/42
f 60/123/42 85/143/42 58/142/42
f 85/143/42 60/123/42 66/122/42
f 68/146/41 76/145/41 86/144/41
f 76/145/41 68/146/41 70/147/41
f 79/120/42 87/149/42 81/148/42
f 87/149/42 79/120/42 80/121/42
f 65/127/41 85/150/41 66/125/41
f 85/150/41 65/127/41 77/151/41
f 77/151/41 65/127/41 78/152/41
f 78/152/41 84/153/41 77/151/41
f 84/153/41 78/152/41 83/154/41
f 78/102/36 65/102/36 82/102/36
f 73/157/35 87/156/35 80/155/35
f 87/156/35 73/157/35 71/158/35
f 76/161/42 88/160/42 86/159/42
f 88/160/42 76/161/42 75/162/42
f 60/96/43 73/157/43 80/155/43
f 73/157/43 60/96/43 61/97/43
f 69/165/35 88/164/35 75/163/35
f 88/164/35 69/165/35 67/166/35
f 61/130/44 74/111/44 73/110/44
f 74/111/44 61/130/44 65/131/44
f 84/116/36 62/118/36 63/113/36
f 62/118/36 84/116/36 83/117/36
f 72/169/37 87/168/37 71/167/37
f 87/168/37 72/169/37 81/170/37
f 67/172/37 64/100/37 88/171/37
f 64/100/37 67/172/37 68/173/37
f 64/100/37 68/173/37 82/102/37
f 82/102/37 68/173/37 85/103/37
f 58/101/37 88/171/37 64/100/37
f 88/171/37 58/101/37 86/174/37
f 86/174/37 58/101/37 85/103/37
f 86/174/37 85/103/37 68/173/37
v 0.3 8.337501 -1.5
v -0.3 8.337501 -1.5
v 0.3 8.5625 -1.5
v -0.3 8.5625 -1.5
v 0.4 8.5625 -2.9
v 0.4 8.337501 -2.9
v 0.4 8.5625 -1.7
v 0.4 8.337501 -1.7
v 0.3 8.6 -2.9
v 0.3 8.6 -1.7
v -0.3 8.6 -2.9
v -0.3 8.6 -1.7
v -0.3 8.337501 -3.1
v 0.3 8.337501 -3.1
v -0.3 8.5625 -3.1
v 0.3 8.5625 -3.1
v 0.3 8.3 -1.7
v 0.3 8.3 -2.9
v -0.3 8.3 -1.7
v -0.3 8.3 -2.9
v -0.4 8.337501 -2.9
v -0.4 8.5625 -2.9
v -0.4 8.337501 -1.7
v -0.4 8.5625 -1.7
vn 0 0 1.6
vn 0.8 0 0
vn 0 0.3 0
vn 0 0 -1.6
vn 0 -0.3 0
vn -0.8 0 0
vn 0.4618803 0.1732051 -0.9237605
vn 0.5656855 0 -1.131371
vn 0 -0.212132 -1.131371
vn 0.4618802 -0.1732051 -0.9237604
vn 0.5656855 -0.212132 0
vn 0.5656855 0.212132 0
vn 0.4618803 0.1732051 0.9237605
vn 0.5656855 0 1.131371
vn 0.4618802 -0.1732051 0.9237604
vn 0 0.212132 1.131371
vn -0.4618803 0.1732051 0.9237605
vn -0.5656855 -0.212132 0
vn 0 -0.212132 1.131371
vn -0.5656855 0 1.131371
vn -0.4618802 -0.1732051 0.9237604
vn -0.4618802 -0.1732051 -0.9237604
vn -0.5656855 0 -1.131371
vn -0.5656855 0.212132 0
vn 0 0.212132 -1.131371
vn -0.4618803 0.1732051 -0.9237605
vt 0.3 8.337501
vt -0.3 8.337501
vt 0.3 8.5625
vt -0.3 8.5625
vt 2.9 8.5625
vt 2.9 8.337501
vt 1.7 8.5625
vt 1.7 8.337501
vt -0.3 -2.9
vt -0.3 -1.7
vt 0.3 -2.9
vt 0.3 -1.7
vt -0.3 1.7
vt -0.3 2.9
vt 0.3 1.7
vt 0.3 2.9
vt -2.9 8.337501
vt -2.9 8.5625
vt -1.7 8.337501
vt -1.7 8.5625
vt -0.3 -3.1
vt -0.4 -2.9
vt 3.1 8.337501
vt 3.1 8.5625
vt -0.3 3.1
vt 0.3 3.1
vt -0.4 2.9
vt -0.4 1.7
vt -0.4 -1.7
vt -0.3 -1.5
vt 1.5 8.337501
vt 1.5 8.5625
vt -0.3 1.5
vt 0.3 -1.5
vt 0.4 -1.7
vt 0.4 2.9
vt 0.4 1.7
vt 0.3 1.5
vt -1.5 8.337501
vt -1.5 8.5625
vt -3.1 8.337501
vt -3.1 8.5625
vt 0.4 -2.9
vt 0.3 -3.1

usemtl _defaultMat (Instance) (Instance)
usemap _defaultMat (Instance) (Instance)
f 91/177/45 90/176/45 89/175/45
f 90/176/45 91/177/45 92/178/45
f 95/181/46 94/180/46 93/179/46
f 94/180/46 95/181/46 96/182/46
f 99/185/47 98/184/47 97/183/47
f 98/184/47 99/185/47 100/186/47
f 103/177/48 102/176/48 101/175/48
f 102/176/48 103/177/48 104/178/48
f 107/189/49 106/188/49 105/187/49
f 106/188/49 107/189/49 108/190/49
f 111/193/50 110/192/50 109/191/50
f 110/192/50 111/193/50 112/194/50
f 97/183/51 93/196/51 104/195/51
f 104/198/52 94/180/52 102/197/52
f 94/180/52 104/198/52 93/179/52
f 108/190/53 102/199/53 106/188/53
f 102/199/53 108/190/53 101/200/53
f 102/199/54 94/201/54 106/188/54
f 105/187/55 94/201/55 96/202/55
f 94/201/55 105/187/55 106/188/55
f 97/183/56 95/203/56 93/196/56
f 95/203/56 97/183/56 98/184/56
f 98/184/57 91/204/57 95/203/57
f 95/181/58 89/205/58 96/182/58
f 89/205/58 95/181/58 91/206/58
f 89/207/59 105/187/59 96/202/59
f 98/184/60 92/208/60 91/204/60
f 92/208/60 98/184/60 100/186/60
f 92/208/61 100/186/61 112/209/61
f 107/189/62 109/210/62 108/190/62
f 109/210/62 107/189/62 111/211/62
f 89/207/63 107/189/63 105/187/63
f 107/189/63 89/207/63 90/212/63
f 90/213/64 112/194/64 111/193/64
f 112/194/64 90/213/64 92/214/64
f 90/212/65 111/211/65 107/189/65
f 109/210/66 101/200/66 108/190/66
f 109/191/67 103/216/67 101/215/67
f 103/216/67 109/191/67 110/192/67
f 112/209/68 99/185/68 110/217/68
f 99/185/68 112/209/68 100/186/68
f 103/218/69 97/183/69 104/195/69
f 97/183/69 103/218/69 99/185/69
f 99/185/70 103/218/70 110/217/70
