# Blender v2.83.5 OBJ File: 'book01.blend'
# www.blender.org
mtllib book01.mtl
o Cube.001_Cube.004
v -0.081010 0.003461 0.032107
v -0.081010 0.224579 0.032107
v -0.081010 0.003461 -0.032107
v -0.081010 0.224579 -0.032107
v 0.081010 -0.000883 0.032107
v 0.081010 0.227724 0.032107
v 0.081010 -0.000883 -0.032107
v 0.081010 0.227724 -0.032107
v -0.081010 0.003461 0.038718
v -0.081010 0.224579 0.038718
v 0.086743 -0.000883 0.038718
v 0.086743 0.227724 0.038718
v -0.081010 0.003461 -0.037926
v -0.081010 0.224579 -0.037926
v 0.086743 -0.000883 -0.037926
v 0.086743 0.227724 -0.037926
v 0.086743 -0.000883 0.032107
v 0.086743 0.227724 0.032107
v 0.086743 -0.000883 -0.032107
v 0.086743 0.227724 -0.032107
v -0.077199 0.004494 0.032019
v -0.077199 0.222346 0.032019
v -0.077199 0.004494 -0.032019
v -0.077199 0.222346 -0.032019
v 0.077199 0.004494 0.032019
v 0.077199 0.222346 0.032019
v 0.077199 0.004494 -0.032019
v 0.077199 0.222346 -0.032019
v -0.077666 0.227724 -0.037926
v -0.077703 0.227724 -0.032107
v -0.077703 0.227724 0.032107
v -0.077746 0.227724 0.038718
v -0.075907 -0.000883 0.032107
v -0.075610 -0.000883 0.038718
v -0.075907 -0.000883 -0.032107
v -0.075610 -0.000883 -0.037926
vt 0.168813 0.720137
vt 0.165613 0.720137
vt 0.162414 0.720137
vt 0.162414 0.720137
vt 0.168813 0.720137
vt 0.156015 0.713738
vt 0.156015 0.713738
vt 0.156015 0.713738
vt 0.162414 0.720137
vt 0.162414 0.720137
vt 0.168813 0.720137
vt 0.165613 0.720137
vt 0.149615 0.713738
vt 0.152815 0.713738
vt 0.156015 0.713738
vt 0.149615 0.713738
vt 0.162414 0.713738
vt 0.162414 0.713738
vt 0.156015 0.720137
vt 0.162414 0.723337
vt 0.162414 0.726537
vt 0.156015 0.726537
vt 0.156015 0.723337
vt 0.162414 0.713738
vt 0.162414 0.700940
vt 0.156015 0.700940
vt 0.156015 0.700940
vt 0.162414 0.700940
vt 0.149615 0.720137
vt 0.152815 0.720137
vt 0.156015 0.720137
vt 0.152815 0.720137
vt 0.149615 0.720137
vt 0.156015 0.707339
vt 0.162414 0.707339
vt 0.162414 0.710539
vt 0.162414 0.713738
vt 0.156015 0.710539
vt 0.149615 0.713738
vt 0.152815 0.713738
vt 0.168813 0.713738
vt 0.165613 0.713738
vt 0.165613 0.713738
vt 0.168813 0.713738
vt 0.156015 0.707339
vt 0.162414 0.707339
vt 0.156015 0.720137
vt 0.792558 0.954780
vt 0.802124 0.954780
vt 0.802124 0.964346
vt 0.792558 0.964346
vt 0.782992 0.973912
vt 0.792558 0.973912
vt 0.792558 0.983478
vt 0.782992 0.983478
vt 0.802124 0.973912
vt 0.811691 0.973912
vt 0.811691 0.983478
vt 0.802124 0.983478
vt 0.156015 0.720137
vt 0.168813 0.713738
vt 0.156015 0.707339
vt 0.162414 0.707339
vt 0.162414 0.700940
vt 0.156015 0.700940
vt 0.149615 0.720137
vn -0.0002 0.0163 -0.9999
vn 0.0000 -1.0000 0.0000
vn 0.0000 1.0000 0.0000
vn -0.0191 0.9998 -0.0001
vn -0.0002 -0.0163 0.9999
vn -0.8159 0.5782 0.0000
vn 0.0000 0.0000 1.0000
vn -1.0000 0.0000 0.0000
vn -0.0263 -0.9997 0.0006
vn 0.0000 0.0000 -1.0000
vn -0.0263 -0.9997 -0.0007
vn 1.0000 0.0000 0.0000
vn -0.8159 -0.5782 0.0000
vn -0.0002 0.0163 0.9999
vn -0.0229 0.0000 0.9997
vn -0.0229 0.0000 -0.9997
vn -0.0002 -0.0163 -0.9999
usemtl Material.001
s off
f 2/1/1 31/2/1 6/3/1 26/4/1 22/5/1
f 7/6/2 15/7/2 19/8/2
f 6/3/3 12/9/3 18/10/3
f 6/3/4 31/2/4 2/1/4 10/11/4 32/12/4 12/9/4
f 3/13/5 35/14/5 7/6/5 27/15/5 23/16/5
f 6/3/6 8/17/6 28/18/6 26/4/6
f 11/19/7 12/9/7 32/20/7 10/21/7 9/22/7 34/23/7
f 8/17/3 6/3/3 18/10/3 20/24/3
f 2/25/8 1/26/8 9/27/8 10/28/8
f 1/29/9 33/30/9 5/31/9 11/19/9 34/32/9 9/33/9
f 13/34/10 14/35/10 29/36/10 16/37/10 15/7/10 36/38/10
f 7/6/11 35/14/11 3/13/11 13/39/11 36/40/11 15/7/11
f 4/41/4 30/42/4 8/17/4 16/37/4 29/43/4 14/44/4
f 3/45/8 4/46/8 14/35/8 13/34/8
f 20/24/12 19/8/12 15/7/12 16/37/12
f 19/8/12 20/24/12 18/10/12 17/47/12
f 17/47/12 18/10/12 12/9/12 11/19/12
f 11/19/2 5/31/2 17/47/2
f 5/31/2 7/6/2 19/8/2 17/47/2
f 16/37/3 8/17/3 20/24/3
f 21/48/8 22/49/8 24/50/8 23/51/8
f 23/52/2 27/53/2 25/54/2 21/55/2
f 28/56/3 24/57/3 22/58/3 26/59/3
f 7/6/13 5/31/13 25/60/13 27/15/13
f 8/17/14 30/42/14 4/41/14 24/61/14 28/18/14
f 4/46/15 3/45/15 23/62/15 24/63/15
f 1/26/16 2/25/16 22/64/16 21/65/16
f 5/31/17 33/30/17 1/29/17 21/66/17 25/60/17
