# Blender v2.83.5 OBJ File: 'bookopen04.blend'
# www.blender.org
mtllib bookopen04.mtl
o Cube.001_Cube.004
v -0.042992 0.001531 0.072922
v -0.042992 0.160721 0.072922
v -0.043118 0.001531 -0.070673
v -0.043118 0.160721 -0.070673
v 0.051265 -0.001579 0.005044
v 0.051265 0.162972 0.005044
v 0.053996 -0.001579 -0.007176
v 0.053996 0.162972 -0.007176
v -0.038989 0.001531 0.078183
v -0.038989 0.160721 0.078183
v 0.055418 -0.001579 0.012746
v 0.055418 0.162972 0.012746
v -0.039902 0.001531 -0.075523
v -0.039902 0.160721 -0.075523
v 0.060860 -0.001579 -0.011604
v 0.060860 0.162972 -0.011604
v 0.056860 -0.001579 0.006295
v 0.056860 0.162972 0.006295
v 0.059591 -0.001579 -0.005925
v 0.059591 0.162972 -0.005925
v -0.040012 0.002271 0.070545
v -0.040012 0.159123 0.070545
v -0.039990 0.002271 -0.068494
v -0.039990 0.159123 -0.068494
v 0.047565 0.002271 0.004127
v 0.047565 0.159123 0.004127
v 0.050258 0.002271 -0.007922
v 0.050258 0.159123 -0.007922
v -0.037116 0.162972 -0.073675
v -0.040362 0.162972 -0.068846
v -0.040361 0.162972 0.070920
v -0.036391 0.162972 0.076207
v -0.038931 -0.001579 0.069832
v -0.034692 -0.001579 0.074914
v -0.038865 -0.001579 -0.067853
v -0.035402 -0.001579 -0.072539
v -0.040012 0.080697 0.070545
v -0.039990 0.080697 -0.068494
v 0.016024 0.002271 -0.031354
v 0.016024 0.159123 -0.031354
v 0.048911 0.002271 -0.001897
v 0.048911 0.159123 -0.001897
v 0.013475 0.002271 0.029849
v 0.013475 0.159123 0.029849
v -0.045190 0.002271 0.059461
v -0.040012 0.119910 0.070545
v -0.044376 0.159202 -0.058333
v -0.039990 0.041484 -0.068494
v -0.011983 0.002271 -0.049924
v 0.044031 0.159123 -0.012784
v 0.049585 0.002271 -0.004910
v 0.048238 0.159123 0.001115
v 0.040219 0.002271 0.009501
v -0.013268 0.159123 0.050197
v -0.044376 0.002351 -0.058333
v -0.040012 0.041484 0.070545
v -0.045190 0.159123 0.059461
v -0.039990 0.119910 -0.068494
v 0.044031 0.002271 -0.012784
v -0.011983 0.159123 -0.049924
v 0.048238 0.002271 0.001115
v 0.049585 0.159123 -0.004910
v -0.013268 0.002271 0.050197
v 0.040219 0.159123 0.009501
v 0.010419 0.159123 0.021716
v 0.012559 0.159202 -0.022620
v 0.010419 0.002271 0.021716
v 0.012559 0.002351 -0.022620
v -0.044376 0.080776 -0.058333
v -0.045190 0.080697 0.059461
v -0.045190 0.119910 0.059461
v -0.045190 0.041484 0.059461
v -0.044376 0.041563 -0.058333
v 0.041026 0.002351 -0.004763
v -0.015909 0.002351 -0.040477
v -0.017385 0.002271 0.040588
v -0.015909 0.159202 -0.040477
v 0.041026 0.159202 -0.004763
v 0.038224 0.159123 0.002844
v -0.017385 0.159123 0.040588
v 0.038224 0.002271 0.002844
v -0.044376 0.119989 -0.058333
vt 0.486503 0.782284
vt 0.483303 0.782284
vt 0.480104 0.782284
vt 0.480104 0.782284
vt 0.481703 0.782284
vt 0.483303 0.782284
vt 0.484903 0.782284
vt 0.486503 0.782284
vt 0.473704 0.775885
vt 0.473704 0.775885
vt 0.473704 0.775885
vt 0.480104 0.782284
vt 0.480104 0.782284
vt 0.486503 0.782284
vt 0.483303 0.782284
vt 0.467305 0.775885
vt 0.470505 0.775885
vt 0.473704 0.775885
vt 0.472105 0.775885
vt 0.470505 0.775885
vt 0.468905 0.775885
vt 0.467305 0.775885
vt 0.480104 0.775885
vt 0.480104 0.775885
vt 0.480104 0.777484
vt 0.480104 0.779084
vt 0.480104 0.780684
vt 0.473704 0.782284
vt 0.480104 0.785483
vt 0.480104 0.788683
vt 0.473704 0.788683
vt 0.473704 0.785483
vt 0.480104 0.775885
vt 0.480104 0.763086
vt 0.473704 0.763086
vt 0.473704 0.763086
vt 0.480104 0.763086
vt 0.470505 0.782284
vt 0.473704 0.782284
vt 0.470505 0.782284
vt 0.473704 0.769485
vt 0.480104 0.769485
vt 0.480104 0.772685
vt 0.480104 0.775885
vt 0.473704 0.772685
vt 0.467305 0.775885
vt 0.470505 0.775885
vt 0.483303 0.775885
vt 0.483303 0.775885
vt 0.473704 0.769485
vt 0.480104 0.769485
vt 0.473704 0.782284
vt 0.799733 0.961954
vt 0.802124 0.961954
vt 0.802124 0.964346
vt 0.799733 0.964346
vt 0.790167 0.981087
vt 0.792558 0.981087
vt 0.792558 0.983478
vt 0.790167 0.983478
vt 0.809299 0.981087
vt 0.811691 0.981087
vt 0.811691 0.983478
vt 0.809299 0.983478
vt 0.473704 0.782284
vt 0.473704 0.780684
vt 0.473704 0.779084
vt 0.473704 0.777484
vt 0.486503 0.775885
vt 0.486503 0.775885
vt 0.484903 0.775885
vt 0.483303 0.775885
vt 0.481703 0.775885
vt 0.473704 0.769485
vt 0.475304 0.769485
vt 0.476904 0.769485
vt 0.478504 0.769485
vt 0.480104 0.769485
vt 0.480104 0.763086
vt 0.478504 0.763086
vt 0.476904 0.763086
vt 0.475304 0.763086
vt 0.473704 0.763086
vt 0.467305 0.782284
vt 0.467305 0.782284
vt 0.468905 0.782284
vt 0.470505 0.782284
vt 0.472105 0.782284
vt 0.486503 0.775885
vt 0.467305 0.782284
vt 0.804516 0.981087
vt 0.806908 0.981087
vt 0.806908 0.983478
vt 0.804516 0.983478
vt 0.785384 0.981087
vt 0.787775 0.981087
vt 0.787775 0.983478
vt 0.785384 0.983478
vt 0.789859 0.950374
vt 0.811532 0.976804
vt 0.804760 0.973158
vt 0.811002 0.976152
vt 0.794950 0.961954
vt 0.797341 0.961954
vt 0.797341 0.964346
vt 0.794950 0.964346
vt 0.797341 0.954780
vt 0.799733 0.954780
vt 0.799733 0.957171
vt 0.797341 0.957171
vt 0.802124 0.954780
vt 0.802124 0.957171
vt 0.792558 0.954780
vt 0.794950 0.954780
vt 0.794950 0.957171
vt 0.792558 0.957171
vt 0.792558 0.961954
vt 0.792558 0.964346
vt 0.787775 0.973912
vt 0.790167 0.973912
vt 0.790167 0.976303
vt 0.787775 0.976303
vt 0.792558 0.973912
vt 0.792558 0.976303
vt 0.782992 0.973912
vt 0.785384 0.973912
vt 0.785384 0.976303
vt 0.782992 0.976303
vt 0.782992 0.981087
vt 0.782992 0.983478
vt 0.806908 0.973912
vt 0.809299 0.973912
vt 0.809299 0.976303
vt 0.806908 0.976303
vt 0.811691 0.973912
vt 0.811691 0.976303
vt 0.802124 0.973912
vt 0.804516 0.973912
vt 0.804516 0.976303
vt 0.802124 0.976303
vt 0.802124 0.981087
vt 0.802124 0.983478
vt 0.811468 0.976804
vt 0.794409 0.961341
vt 0.794409 0.960330
vt 0.784835 0.956873
vt 0.809182 0.968644
vt 0.808809 0.968737
vt 0.797926 0.955266
vn -0.5504 0.3773 -0.7448
vn 0.0000 -1.0000 0.0000
vn 0.0000 1.0000 0.0000
vn -0.4509 0.8249 0.3408
vn -0.5482 -0.1230 0.8273
vn -0.6935 0.7035 -0.1550
vn 0.5697 -0.0003 0.8219
vn -0.7958 0.0000 0.6055
vn 0.5357 -0.0001 -0.8444
vn -0.4175 -0.8603 -0.2924
vn -0.8334 0.0000 -0.5526
vn 0.9759 0.0000 0.2181
vn -0.9181 0.0000 -0.3963
vn -0.6935 -0.7035 -0.1550
vn -0.5481 0.1238 0.8272
vn -0.5716 0.0000 0.8205
vn -0.6236 0.0000 -0.7817
vn -0.5511 -0.3742 -0.7458
vn -0.4662 0.8281 -0.3113
vn -0.3986 -0.8603 0.3177
vn -0.4055 0.0000 -0.9141
vn -0.9060 0.0000 0.4232
vn -0.0049 -1.0000 0.0076
vn -0.0070 -1.0000 0.0049
vn -0.0041 -1.0000 0.0064
vn -0.0045 -1.0000 0.0070
vn 0.0045 1.0000 -0.0070
vn 0.0041 1.0000 -0.0064
vn 0.0070 1.0000 -0.0049
vn 0.0049 1.0000 -0.0076
vn 0.0094 1.0000 0.0021
vn -0.0094 -1.0000 -0.0021
vn -0.3416 -0.0000 0.9398
vn -0.5616 0.0000 -0.8274
vn -0.5314 0.0000 0.8471
usemtl Material.001
s off
f 2/1/1 31/2/1 6/3/1 26/4/1 64/5/1 44/6/1 54/7/1 22/8/1
f 7/9/2 15/10/2 19/11/2
f 6/3/3 12/12/3 18/13/3
f 31/2/4 2/1/4 10/14/4 32/15/4
f 3/16/5 35/17/5 7/9/5 27/18/5 59/19/5 39/20/5 49/21/5 23/22/5
f 6/3/6 8/23/6 28/24/6 62/25/6 42/26/6 52/27/6 26/4/6
f 11/28/7 12/12/7 32/29/7 10/30/7 9/31/7 34/32/7
f 8/23/3 6/3/3 18/13/3 20/33/3
f 2/34/8 1/35/8 9/36/8 10/37/8
f 33/38/2 5/39/2 11/28/2 34/40/2
f 13/41/9 14/42/9 29/43/9 16/44/9 15/10/9 36/45/9
f 35/17/10 3/16/10 13/46/10 36/47/10
f 30/48/3 8/23/3 16/44/3 29/49/3
f 3/50/11 4/51/11 14/42/11 13/41/11
f 20/33/12 19/11/12 15/10/12 16/44/12
f 19/11/12 20/33/12 18/13/12 17/52/12
f 17/52/12 18/13/12 12/12/12 11/28/12
f 11/28/2 5/39/2 17/52/2
f 5/39/2 7/9/2 19/11/2 17/52/2
f 16/44/3 8/23/3 20/33/3
f 82/53/13 47/54/13 24/55/13 58/56/13
f 81/57/2 61/58/2 25/59/2 53/60/2
f 80/61/3 57/62/3 22/63/3 54/64/3
f 7/9/14 5/39/14 25/65/14 61/66/14 41/67/14 51/68/14 27/18/14
f 8/23/15 30/48/15 4/69/15 24/70/15 60/71/15 40/72/15 50/73/15 28/24/15
f 4/51/16 3/50/16 23/74/16 48/75/16 38/76/16 58/77/16 24/78/16
f 1/35/17 2/34/17 22/79/17 46/80/17 37/81/17 56/82/17 21/83/17
f 5/39/18 33/38/18 1/84/18 21/85/18 63/86/18 43/87/18 53/88/18 25/65/18
f 6/3/3 31/2/3 32/15/3 12/12/3
f 4/69/19 30/48/19 29/49/19 14/89/19
f 1/84/20 33/38/20 34/40/20 9/90/20
f 7/9/2 35/17/2 36/47/2 15/10/2
f 79/91/3 65/92/3 44/93/3 64/94/3
f 76/95/2 67/96/2 43/97/2 63/98/2
f 81/99/21 79/100/21 42/101/21 41/102/21
f 73/103/13 69/104/13 38/105/13 48/106/13
f 37/107/22 46/108/22 71/109/22 70/110/22
f 46/108/22 22/111/22 57/112/22 71/109/22
f 21/113/22 56/114/22 72/115/22 45/116/22
f 56/114/22 37/107/22 70/110/22 72/115/22
f 55/117/13 73/103/13 48/106/13 23/118/13
f 39/119/23 59/120/23 74/121/23 68/122/23
f 59/120/24 27/123/24 51/124/24 74/121/24
f 23/125/25 49/126/25 75/127/25 55/128/25
f 49/126/26 39/119/26 68/122/26 75/127/26
f 45/129/2 76/95/2 63/98/2 21/130/2
f 40/131/27 60/132/27 77/133/27 66/134/27
f 60/132/28 24/135/28 47/136/28 77/133/28
f 28/137/29 50/138/29 78/139/29 62/140/29
f 50/138/30 40/131/30 66/134/30 78/139/30
f 52/141/3 79/91/3 64/94/3 26/142/3
f 65/92/3 80/61/3 54/64/3 44/93/3
f 67/96/2 81/57/2 53/60/2 43/97/2
f 69/104/13 82/53/13 58/56/13 38/105/13
f 52/143/3 42/101/3 79/100/3
f 78/139/31 42/144/31 62/145/31
f 74/121/32 51/124/32 41/146/32
f 78/139/33 74/121/33 41/146/33 42/144/33
f 41/147/2 61/148/2 81/149/2
f 67/96/34 65/92/34 79/91/34 81/99/34
f 76/95/34 80/61/34 65/92/34 67/96/34
f 71/109/34 57/112/34 80/61/34 76/95/34 45/129/34 72/115/34 70/110/34
f 68/122/35 74/121/35 78/139/35 66/134/35 77/133/35 47/136/35 82/53/35 69/104/35 73/103/35 55/128/35 75/127/35
