# Blender v2.83.5 OBJ File: 'bookopen01.blend'
# www.blender.org
mtllib bookopen01.mtl
o Cube_Cube.001
v -0.087748 -0.003153 0.009632
v -0.087748 0.006895 0.009632
v -0.087748 -0.003153 -0.009632
v -0.087748 0.006895 -0.009632
v 0.087748 -0.001269 0.009632
v 0.087748 0.006895 0.009632
v 0.087748 -0.001269 -0.009632
v 0.087748 0.006895 -0.009632
v -0.087748 -0.005011 0.157606
v -0.087748 0.005011 0.157606
v 0.087748 -0.005011 0.157606
v 0.087748 0.005011 0.157606
v -0.087748 -0.005011 -0.157606
v -0.087748 0.005011 -0.157606
v 0.087748 -0.005011 -0.157606
v 0.087748 0.005011 -0.157606
v -0.084310 0.015614 0.009167
v -0.084310 0.015614 -0.009167
v 0.084310 0.015614 0.009167
v 0.084310 0.015614 -0.009167
v -0.084310 0.005607 0.150000
v -0.084310 0.015629 0.150000
v 0.084310 0.005607 0.150000
v 0.084310 0.015629 0.150000
v -0.084310 0.005607 -0.150000
v -0.084310 0.015629 -0.150000
v 0.084310 0.005607 -0.150000
v 0.084310 0.015629 -0.150000
v -0.084310 0.008072 0.000000
v -0.084310 0.015614 0.000000
v 0.000000 0.007476 -0.009167
v 0.000000 0.015614 -0.009167
v 0.084310 0.008072 0.000000
v 0.084310 0.015614 0.000000
v 0.000000 0.007476 0.009167
v 0.000000 0.015614 0.009167
v 0.000000 0.005607 0.150000
v 0.000000 0.015629 0.150000
v -0.084310 0.028009 0.079584
v 0.084310 0.028009 0.079584
v 0.084310 0.017988 0.079584
v -0.084310 0.017988 0.079584
v 0.000000 0.005607 -0.150000
v 0.000000 0.015629 -0.150000
v 0.084310 0.023699 -0.079584
v 0.084310 0.033720 -0.079584
v -0.084310 0.023699 -0.079584
v -0.084310 0.033720 -0.079584
v 0.000000 0.033720 -0.079584
v 0.000000 0.023699 -0.079584
v 0.000000 0.017988 0.079584
v 0.000000 0.015614 0.000000
v 0.000000 0.007476 0.000000
v 0.000000 0.028009 0.079584
v -0.084310 0.007072 0.005090
v -0.084310 0.015614 -0.004584
v -0.042155 0.007476 -0.009167
v 0.042155 0.015614 -0.009167
v 0.084310 0.007072 -0.005090
v 0.084310 0.015614 0.004584
v 0.042155 0.007476 0.009167
v -0.042155 0.015614 0.009167
v 0.042155 0.005607 0.150000
v -0.042155 0.015629 0.150000
v -0.084310 0.028009 0.114792
v 0.084310 0.028009 0.044375
v 0.084310 0.017988 0.044375
v -0.084310 0.017988 0.114792
v -0.042155 0.005607 -0.150000
v 0.042155 0.015629 -0.150000
v 0.084310 0.017988 -0.114792
v 0.084310 0.028009 -0.044375
v -0.084310 0.017988 -0.114792
v -0.084310 0.028009 -0.044375
v -0.084310 0.007072 -0.005090
v -0.084310 0.015614 0.004584
v 0.042155 0.007476 -0.009167
v -0.042155 0.015614 -0.009167
v 0.084310 0.007072 0.005090
v 0.084310 0.015614 -0.004584
v -0.042155 0.007476 0.009167
v 0.042155 0.015614 0.009167
v -0.042155 0.005607 0.150000
v 0.042155 0.015629 0.150000
v -0.084310 0.028009 0.044375
v 0.084310 0.028009 0.114792
v 0.084310 0.017988 0.114792
v -0.084310 0.017988 0.044375
v 0.042155 0.005607 -0.150000
v -0.042155 0.015629 -0.150000
v 0.084310 0.017988 -0.044375
v 0.084310 0.028009 -0.114792
v -0.084310 0.017988 -0.044375
v -0.084310 0.028009 -0.114792
v 0.000000 0.028009 -0.114792
v 0.000000 0.028009 -0.044375
v -0.042155 0.033720 -0.079584
v 0.042155 0.033720 -0.079584
v 0.000000 0.017988 -0.114792
v 0.000000 0.017988 -0.044375
v 0.042155 0.023699 -0.079584
v -0.042155 0.023699 -0.079584
v 0.000000 0.017988 0.114792
v 0.000000 0.017988 0.044375
v -0.042155 0.017988 0.079584
v 0.042155 0.017988 0.079584
v 0.000000 0.015614 0.004584
v 0.000000 0.015614 -0.004584
v 0.042155 0.015614 0.000000
v -0.042155 0.015614 0.000000
v 0.000000 0.007476 0.004584
v 0.000000 0.007476 -0.004584
v -0.042155 0.007476 0.000000
v 0.042155 0.007476 0.000000
v 0.000000 0.028009 0.114792
v 0.000000 0.028009 0.044375
v 0.042155 0.028009 0.079584
v -0.042155 0.028009 0.079584
v -0.042155 0.028009 0.044375
v 0.042155 0.028009 0.044375
v 0.042155 0.028009 0.114792
v 0.042155 0.007476 -0.004584
v -0.042155 0.007476 -0.004584
v -0.042155 0.007476 0.004584
v -0.042155 0.015614 -0.004584
v 0.042155 0.015614 -0.004584
v 0.042155 0.015614 0.004584
v 0.042155 0.017988 0.044375
v -0.042155 0.017988 0.044375
v -0.042155 0.017988 0.114792
v -0.042155 0.017988 -0.044375
v 0.042155 0.017988 -0.044375
v 0.042155 0.017988 -0.114792
v 0.042155 0.028009 -0.044375
v -0.042155 0.028009 -0.044375
v -0.042155 0.028009 -0.114792
v 0.042155 0.028009 -0.114792
v -0.042155 0.017988 -0.114792
v 0.042155 0.017988 0.114792
v -0.042155 0.015614 0.004584
v 0.042155 0.007476 0.004584
v -0.042155 0.028009 0.114792
v -0.084310 0.018300 0.009167
v 0.084310 0.018300 0.009167
v -0.084310 0.032483 0.094589
v 0.084310 0.032483 0.094589
v 0.000000 0.018300 0.009167
v 0.000000 0.032483 0.094589
v -0.084310 0.054133 0.064580
v 0.084310 0.054133 0.064580
v 0.000000 0.015795 0.000000
v 0.000000 0.054133 0.064580
v -0.084310 0.015795 0.009167
v 0.084310 0.016622 0.004584
v -0.042155 0.018300 0.009167
v -0.084310 0.029978 0.094589
v -0.042155 0.032483 0.094589
v -0.084310 0.038083 0.082238
v 0.084310 0.047555 0.044375
v -0.084310 0.016622 0.004584
v 0.042155 0.018300 0.009167
v 0.084310 0.029978 0.094589
v 0.042155 0.032483 0.094589
v -0.084310 0.047555 0.044375
v 0.084310 0.038083 0.082238
v -0.084310 0.051628 0.064580
v 0.084310 0.051628 0.064580
v 0.000000 0.029978 0.094589
v 0.000000 0.016622 0.004584
v 0.042155 0.015795 0.000000
v -0.042155 0.015795 0.000000
v 0.000000 0.038083 0.082238
v 0.000000 0.047555 0.044375
v 0.042155 0.054133 0.064580
v -0.042155 0.054133 0.064580
v -0.042155 0.047555 0.044375
v 0.042155 0.047555 0.044375
v 0.042155 0.038083 0.082238
v 0.042155 0.016622 0.004584
v 0.042155 0.029978 0.094589
v 0.084310 0.045049 0.044375
v -0.084310 0.045049 0.044375
v -0.084310 0.035577 0.082238
v 0.084310 0.035577 0.082238
v -0.042155 0.029978 0.094589
v -0.042155 0.016622 0.004584
v -0.042155 0.038083 0.082238
v 0.000000 0.015795 0.009167
v -0.042155 0.015795 0.009167
v 0.042155 0.015795 0.009167
v -0.042155 0.051628 0.064580
v -0.042155 0.035577 0.082238
v -0.042155 0.045049 0.044375
v 0.000000 0.051628 0.064580
v 0.000000 0.035577 0.082238
v 0.000000 0.045049 0.044375
v 0.042155 0.051628 0.064580
v 0.042155 0.035577 0.082238
v 0.042155 0.045049 0.044375
v 0.000000 0.015795 0.004584
v 0.042155 0.015795 0.004584
v -0.042155 0.015795 0.004584
v -0.084310 0.032483 0.127513
v 0.084310 0.032483 0.127513
v 0.000000 0.032483 0.127513
v -0.084310 0.029978 0.127513
v -0.042155 0.032483 0.127513
v 0.084310 0.029978 0.127513
v 0.042155 0.032483 0.127513
v 0.000000 0.029978 0.127513
v 0.042155 0.029978 0.127513
v -0.042155 0.029978 0.127513
v -0.087748 -0.005016 0.009632
v -0.087748 -0.005016 -0.009632
v 0.087748 -0.003132 0.009632
v 0.087748 -0.003132 -0.009632
vt 0.409908 0.820729
vt 0.418373 0.820729
vt 0.418373 0.829194
vt 0.409908 0.829194
vt 0.418373 0.837659
vt 0.409908 0.837659
vt 0.409908 0.837659
vt 0.418373 0.837659
vt 0.418373 0.846124
vt 0.409908 0.846124
vt 0.426838 0.846124
vt 0.426838 0.846124
vt 0.418373 0.846124
vt 0.409908 0.829194
vt 0.409908 0.820729
vt 0.426838 0.837659
vt 0.409908 0.846124
vt 0.418373 0.854588
vt 0.409908 0.854588
vt 0.409908 0.820729
vt 0.418373 0.820729
vt 0.408569 0.844407
vt 0.413971 0.844407
vt 0.413971 0.844407
vt 0.408569 0.844407
vt 0.409908 0.829194
vt 0.418373 0.829194
vt 0.413971 0.839006
vt 0.408569 0.839006
vt 0.408569 0.839006
vt 0.413971 0.839006
vt 0.426838 0.837659
vt 0.810557 0.988400
vt 0.813144 0.988400
vt 0.813144 0.988400
vt 0.810557 0.988400
vt 0.789863 0.985814
vt 0.792450 0.985814
vt 0.792450 0.988400
vt 0.789863 0.988400
vt 0.810557 0.985814
vt 0.813144 0.985814
vt 0.813144 0.988400
vt 0.810557 0.988400
vt 0.612797 0.998160
vt 0.602450 0.998160
vt 0.602450 0.995574
vt 0.612797 0.995574
vt 0.612797 0.990400
vt 0.602450 0.990400
vt 0.602450 0.990400
vt 0.612797 0.990400
vt 0.612797 0.959359
vt 0.612797 0.961946
vt 0.602450 0.961946
vt 0.602450 0.959359
vt 0.789863 0.988400
vt 0.792450 0.988400
vt 0.792450 0.988400
vt 0.789863 0.988400
vt 0.612797 0.985227
vt 0.612797 0.987814
vt 0.602450 0.987814
vt 0.602450 0.985227
vt 0.784690 0.978053
vt 0.782103 0.978053
vt 0.782103 0.978053
vt 0.784690 0.978053
vt 0.805384 0.978053
vt 0.802797 0.978053
vt 0.802797 0.978053
vt 0.805384 0.978053
vt 0.810557 0.978053
vt 0.807971 0.978053
vt 0.807971 0.978053
vt 0.810557 0.978053
vt 0.810557 0.978053
vt 0.807971 0.978053
vt 0.807971 0.978053
vt 0.810557 0.978053
vt 0.805384 0.978053
vt 0.802797 0.978053
vt 0.802797 0.978053
vt 0.805384 0.978053
vt 0.789863 0.978053
vt 0.787277 0.978053
vt 0.787277 0.978053
vt 0.789863 0.978053
vt 0.789863 0.978053
vt 0.787277 0.978053
vt 0.787277 0.978053
vt 0.789863 0.978053
vt 0.784690 0.978053
vt 0.782103 0.978053
vt 0.782103 0.978053
vt 0.784690 0.978053
vt 0.784690 0.988400
vt 0.787277 0.988400
vt 0.787277 0.988400
vt 0.784690 0.988400
vt 0.784690 0.988400
vt 0.787277 0.988400
vt 0.787277 0.988400
vt 0.784690 0.988400
vt 0.789863 0.988400
vt 0.792450 0.988400
vt 0.792450 0.988400
vt 0.789863 0.988400
vt 0.612797 0.964533
vt 0.612797 0.967120
vt 0.602450 0.967120
vt 0.602450 0.964533
vt 0.805384 0.985814
vt 0.807971 0.985814
vt 0.807971 0.988400
vt 0.805384 0.988400
vt 0.805384 0.980640
vt 0.807971 0.980640
vt 0.807971 0.983227
vt 0.805384 0.983227
vt 0.810557 0.980640
vt 0.813144 0.980640
vt 0.813144 0.983227
vt 0.810557 0.983227
vt 0.784690 0.985814
vt 0.787277 0.985814
vt 0.787277 0.988400
vt 0.784690 0.988400
vt 0.784690 0.980640
vt 0.787277 0.980640
vt 0.787277 0.983227
vt 0.784690 0.983227
vt 0.789863 0.980640
vt 0.792450 0.980640
vt 0.792450 0.983227
vt 0.789863 0.983227
vt 0.805384 0.988400
vt 0.807971 0.988400
vt 0.807971 0.988400
vt 0.805384 0.988400
vt 0.805384 0.988400
vt 0.807971 0.988400
vt 0.807971 0.988400
vt 0.805384 0.988400
vt 0.810557 0.988400
vt 0.813144 0.988400
vt 0.813144 0.988400
vt 0.810557 0.988400
vt 0.612797 0.990400
vt 0.602450 0.990400
vt 0.612797 0.977467
vt 0.612797 0.980053
vt 0.602450 0.980053
vt 0.602450 0.977467
vt 0.612797 0.969706
vt 0.602450 0.969706
vt 0.612797 0.982640
vt 0.602450 0.982640
vt 0.612797 0.980053
vt 0.602450 0.980053
vt 0.602450 0.980053
vt 0.612797 0.980053
vt 0.612797 0.980053
vt 0.602450 0.980053
vt 0.610210 0.980053
vt 0.612797 0.980053
vt 0.602450 0.980053
vt 0.802797 0.988400
vt 0.802797 0.988400
vt 0.802797 0.988400
vt 0.802797 0.988400
vt 0.802797 0.988400
vt 0.787277 0.978053
vt 0.789863 0.978053
vt 0.792450 0.978053
vt 0.782103 0.980640
vt 0.782103 0.983227
vt 0.782103 0.978053
vt 0.784690 0.978053
vt 0.782103 0.985814
vt 0.782103 0.988400
vt 0.807971 0.978053
vt 0.810557 0.978053
vt 0.813144 0.978053
vt 0.802797 0.980640
vt 0.802797 0.983227
vt 0.802797 0.978053
vt 0.805384 0.978053
vt 0.802797 0.985814
vt 0.612797 0.992987
vt 0.602450 0.992987
vt 0.610210 0.990400
vt 0.612797 0.990400
vt 0.612797 0.990400
vt 0.602450 0.990400
vt 0.612797 0.959359
vt 0.602450 0.959359
vt 0.602450 0.959359
vt 0.612797 0.959359
vt 0.610210 0.959359
vt 0.612797 0.959359
vt 0.612797 0.959359
vt 0.602450 0.959359
vt 0.782103 0.988400
vt 0.782103 0.988400
vt 0.782103 0.988400
vt 0.782103 0.988400
vt 0.612797 0.974880
vt 0.602450 0.974880
vt 0.612797 0.969706
vt 0.602450 0.969706
vt 0.602450 0.969706
vt 0.612797 0.969706
vt 0.612797 0.972293
vt 0.602450 0.972293
vt 0.610210 0.969706
vt 0.792450 0.978053
vt 0.792450 0.978053
vt 0.792450 0.978053
vt 0.792450 0.978053
vt 0.813144 0.978053
vt 0.813144 0.978053
vt 0.813144 0.978053
vt 0.813144 0.978053
vt 0.612797 0.969706
vt 0.602450 0.969706
vt 0.602450 0.969706
vt 0.612797 0.969706
vt 0.602450 0.990400
vt 0.610210 0.987814
vt 0.612797 0.987814
vt 0.612797 0.990400
vt 0.610210 0.990400
vt 0.810557 0.988400
vt 0.813144 0.988400
vt 0.813144 0.988400
vt 0.810557 0.988400
vt 0.810557 0.985814
vt 0.813144 0.985814
vt 0.813144 0.988400
vt 0.810557 0.988400
vt 0.612797 0.959359
vt 0.610210 0.959359
vt 0.610210 0.959359
vt 0.612797 0.959359
vt 0.610210 0.990400
vt 0.612797 0.990400
vt 0.612797 0.990400
vt 0.610210 0.990400
vt 0.610210 0.990400
vt 0.612797 0.990400
vt 0.612797 0.990400
vt 0.610210 0.990400
vt 0.800210 0.993574
vt 0.800210 0.990987
vt 0.800210 0.990987
vt 0.800210 0.993574
vt 0.805384 0.985814
vt 0.807971 0.985814
vt 0.807971 0.988400
vt 0.805384 0.988400
vt 0.805384 0.988400
vt 0.807971 0.988400
vt 0.807971 0.988400
vt 0.805384 0.988400
vt 0.805384 0.988400
vt 0.807971 0.988400
vt 0.807971 0.988400
vt 0.805384 0.988400
vt 0.810557 0.988400
vt 0.813144 0.988400
vt 0.813144 0.988400
vt 0.810557 0.988400
vt 0.610210 0.961946
vt 0.612797 0.961946
vt 0.610210 0.964533
vt 0.610210 0.959359
vt 0.612797 0.959359
vt 0.802797 0.988400
vt 0.802797 0.988400
vt 0.802797 0.988400
vt 0.802797 0.988400
vt 0.802797 0.988400
vt 0.802797 0.985814
vt 0.805384 0.983227
vt 0.807971 0.983227
vt 0.810557 0.988400
vt 0.807971 0.988400
vt 0.612797 0.959359
vt 0.610210 0.959359
vt 0.610210 0.959359
vt 0.612797 0.959359
vt 0.612797 0.959359
vt 0.610210 0.959359
vt 0.800210 0.996161
vt 0.800210 0.996161
vt 0.810557 0.983227
vt 0.612797 1.000747
vt 0.602450 1.000747
vt 0.800210 0.979347
vt 0.800210 0.978053
vt 0.800210 0.983227
vt 0.800210 0.985814
vt 0.776930 0.957359
vt 0.776930 0.957359
vt 0.776930 0.957359
vt 0.776930 0.957359
vt 0.800210 0.957359
vt 0.800210 0.957359
vt 0.800210 0.988400
vt 0.776930 0.957359
vt 0.800210 0.957359
vt 0.800210 0.965120
vt 0.800210 0.972880
vt 0.800210 0.980640
vt 0.800210 0.988400
vt 0.800210 0.972880
vt 0.800210 0.972880
vt 0.800210 0.966413
vt 0.800210 0.967706
vt 0.800210 0.959946
vt 0.800210 0.962533
vt 0.776930 0.957359
vt 0.800210 0.988400
vt 0.800210 0.988400
vt 0.776930 0.957359
vt 0.800210 0.988400
vt 0.776930 0.957359
vt 0.776930 0.957359
vt 0.800210 0.957359
vt 0.800210 0.998747
vt 0.610210 0.998160
vt 0.612797 0.998160
vt 0.612797 1.000747
vt 0.610210 1.000747
vt 0.610210 0.992987
vt 0.612797 0.992987
vt 0.612797 0.995574
vt 0.610210 0.995574
vt 0.610210 0.990400
vt 0.612797 0.990400
vt 0.800210 0.988400
vt 0.813144 0.988400
vt 0.800210 0.998747
vt 0.805384 0.988400
vt 0.802797 0.988400
vt 0.408569 0.839006
vt 0.413971 0.839006
vt 0.413971 0.844407
vt 0.408569 0.844407
vt 0.409908 0.846124
vt 0.409908 0.837659
vt 0.408103 0.844400
vt 0.408103 0.844400
vt 0.418450 0.844400
vt 0.418450 0.844400
vt 0.418450 0.834053
vt 0.418450 0.834053
vt 0.408103 0.834053
vt 0.408103 0.834053
vn -1.0000 0.0000 0.0000
vn 1.0000 0.0000 0.0000
vn 0.0000 0.9999 0.0127
vn 0.0000 1.0000 0.0000
vn 0.0000 0.0000 1.0000
vn 0.0054 -0.9998 -0.0189
vn 0.0000 0.0000 -1.0000
vn 0.0054 -0.9998 0.0189
vn 0.0000 0.9999 -0.0127
vn 0.0000 0.9434 0.3317
vn -0.0111 -0.9998 -0.0152
vn -0.9241 0.1646 -0.3449
vn 0.0000 -0.9434 -0.3317
vn 0.0000 -0.9434 0.3317
vn 0.0000 0.9434 -0.3317
vn 0.0000 0.9871 0.1601
vn 0.0000 -0.9871 -0.1601
vn 0.0000 -1.0000 0.0000
vn 0.0029 -0.9947 0.1029
vn 0.9241 0.1646 -0.3449
vn -0.9241 0.1646 0.3449
vn 0.9836 0.1801 0.0121
vn 0.9241 0.1646 0.3449
vn 0.0000 0.9433 -0.3321
vn -0.0111 -0.9998 0.0152
vn -0.0029 -0.9947 0.1029
vn 0.0111 -0.9998 0.0152
vn 0.0111 -0.9998 -0.0152
vn -0.0029 -0.9947 -0.1029
vn 0.9836 0.1801 -0.0121
vn -0.9836 0.1801 -0.0121
vn 0.0000 -0.9582 0.2861
vn -0.0079 -0.9555 0.2947
vn 0.0079 -0.9555 0.2947
vn 0.0000 -0.9582 -0.2861
vn 0.0079 -0.9555 -0.2947
vn -0.0079 -0.9555 -0.2947
vn 0.0000 -0.9871 0.1601
vn 0.0000 0.9433 0.3321
vn 0.0000 0.9871 -0.1601
vn -0.9836 0.1801 0.0121
vn 0.0029 -0.9947 -0.1029
vn 0.0000 0.9108 0.4129
vn 0.0000 0.9391 -0.3437
vn 0.0000 0.9509 -0.3096
vn 0.0000 0.7691 -0.6391
vn 0.0000 0.7400 0.6726
vn 0.0021 0.9805 -0.1964
vn 0.0000 0.9841 -0.1777
vn -0.0021 0.9805 -0.1964
vn -0.0043 -1.0000 0.0000
vn 0.0000 -0.9509 0.3096
vn -0.0004 -0.7689 0.6394
vn 0.0043 -1.0000 0.0000
vn 0.0021 -0.9998 0.0197
vn 0.0000 -0.7400 -0.6726
vn 0.0000 -0.9108 -0.4129
vn 0.0107 -0.9999 0.0000
usemtl Material
s off
f 1/1/1 2/2/1 4/3/1 3/4/1
f 8/5/2 7/6/2 15/7/2 16/8/2
f 7/6/2 8/5/2 6/9/2 5/10/2
f 6/9/3 2/11/3 10/12/3 12/13/3
f 3/4/1 214/14/1 213/15/1 1/1/1
f 8/5/4 4/16/4 2/11/4 6/9/4
f 11/17/5 12/13/5 10/18/5 9/19/5
f 5/10/2 6/9/2 12/13/2 11/17/2
f 2/2/1 1/1/1 9/20/1 10/21/1
f 1/22/6 5/23/6 11/24/6 9/25/6
f 13/26/7 14/27/7 16/8/7 15/7/7
f 7/28/8 3/29/8 13/30/8 15/31/8
f 4/16/9 8/5/9 16/8/9 14/32/9
f 3/4/1 4/3/1 14/27/1 13/26/1
f 142/33/10 65/34/10 22/35/10 64/36/10
f 141/37/11 79/38/11 6/39/11 61/40/11
f 140/41/4 76/42/4 17/43/4 62/44/4
f 64/45/5 83/46/5 37/47/5 38/48/5
f 86/49/2 87/50/2 41/51/2 40/52/2
f 17/53/12 76/54/12 55/55/12 2/56/12
f 139/57/13 87/58/13 23/59/13 63/60/13
f 34/61/2 60/62/2 79/63/2 33/64/2
f 138/65/14 73/66/14 25/67/14 69/68/14
f 137/69/15 92/70/15 28/71/15 70/72/15
f 136/73/15 95/74/15 44/75/15 90/76/15
f 135/77/16 96/78/16 49/79/16 97/80/16
f 134/81/16 72/82/16 46/83/16 98/84/16
f 133/85/14 99/86/14 43/87/14 89/88/14
f 132/89/17 100/90/17 50/91/17 101/92/17
f 131/93/17 93/94/17 47/95/17 102/96/17
f 130/97/13 103/98/13 37/99/13 83/100/13
f 129/101/18 104/102/18 51/103/18 105/104/18
f 128/105/18 67/106/18 41/107/18 106/108/18
f 30/109/1 56/110/1 75/111/1 29/112/1
f 127/113/4 107/114/4 36/115/4 82/116/4
f 126/117/4 108/118/4 52/119/4 109/120/4
f 125/121/4 56/122/4 30/123/4 110/124/4
f 124/125/18 111/126/18 35/127/18 81/128/18
f 123/129/18 112/130/18 53/131/18 113/132/18
f 122/133/19 59/134/19 33/135/19 114/136/19
f 121/137/10 115/138/10 38/139/10 84/140/10
f 120/141/4 116/142/4 54/143/4 117/144/4
f 119/145/4 85/146/4 39/147/4 118/148/4
f 60/62/20 19/149/20 6/150/20 79/63/20
f 70/151/7 28/152/7 27/153/7 89/154/7
f 56/110/21 18/155/21 4/156/21 75/111/21
f 80/157/2 34/61/2 33/64/2 59/158/2
f 72/159/2 91/160/2 45/161/2 46/162/2
f 92/163/2 71/164/2 27/165/2 28/152/2
f 20/166/22 8/167/22 91/160/22 72/159/22
f 80/157/23 59/158/23 8/167/23 20/166/23
f 116/142/4 119/145/4 118/148/4 54/143/4
f 36/115/24 62/44/24 119/145/24 116/142/24
f 62/44/24 17/43/24 85/146/24 119/145/24
f 66/168/4 120/141/4 117/144/4 40/169/4
f 19/170/24 82/116/24 120/141/24 66/168/24
f 82/116/24 36/115/24 116/142/24 120/141/24
f 86/171/10 121/137/10 84/140/10 24/172/10
f 40/169/4 117/144/4 121/137/4 86/171/4
f 117/144/4 54/143/4 115/138/4 121/137/4
f 112/130/18 122/133/18 114/136/18 53/131/18
f 31/173/18 77/174/18 122/133/18 112/130/18
f 77/174/25 8/175/25 59/134/25 122/133/25
f 75/176/26 123/129/26 113/132/26 29/177/26
f 4/178/27 57/179/27 123/129/27 75/176/27
f 57/179/18 31/173/18 112/130/18 123/129/18
f 55/180/28 124/125/28 81/128/28 2/181/28
f 29/177/29 113/132/29 124/125/29 55/180/29
f 113/132/18 53/131/18 111/126/18 124/125/18
f 108/118/4 125/121/4 110/124/4 52/119/4
f 32/182/4 78/183/4 125/121/4 108/118/4
f 78/183/4 18/184/4 56/122/4 125/121/4
f 80/185/4 126/117/4 109/120/4 34/186/4
f 20/187/4 58/188/4 126/117/4 80/185/4
f 58/188/4 32/182/4 108/118/4 126/117/4
f 60/189/4 127/113/4 82/116/4 19/170/4
f 34/186/4 109/120/4 127/113/4 60/189/4
f 109/120/4 52/119/4 107/114/4 127/113/4
f 84/190/5 63/191/5 23/192/5 24/193/5
f 66/194/30 67/195/30 6/150/30 19/149/30
f 39/196/1 42/197/1 68/198/1 65/199/1
f 65/199/1 68/198/1 21/200/1 22/201/1
f 85/202/1 88/203/1 42/197/1 39/196/1
f 17/53/31 2/56/31 88/203/31 85/202/31
f 76/54/1 30/109/1 29/112/1 55/55/1
f 104/102/18 128/105/18 106/108/18 51/103/18
f 35/127/32 61/40/32 128/105/32 104/102/32
f 61/40/33 6/39/33 67/106/33 128/105/33
f 88/204/18 129/101/18 105/104/18 42/205/18
f 2/181/34 81/128/34 129/101/34 88/204/34
f 81/128/32 35/127/32 104/102/32 129/101/32
f 68/206/13 130/97/13 83/100/13 21/207/13
f 42/205/18 105/104/18 130/97/18 68/206/18
f 105/104/18 51/103/18 103/98/18 130/97/18
f 44/208/7 70/151/7 89/154/7 43/209/7
f 26/210/1 25/211/1 73/212/1 94/213/1
f 90/214/7 44/208/7 43/209/7 69/215/7
f 90/214/7 69/215/7 25/216/7 26/210/7
f 100/90/17 131/93/17 102/96/17 50/91/17
f 31/173/35 57/179/35 131/93/35 100/90/35
f 57/179/36 4/178/36 93/94/36 131/93/36
f 91/217/17 132/89/17 101/92/17 45/218/17
f 8/175/37 77/174/37 132/89/37 91/217/37
f 77/174/35 31/173/35 100/90/35 132/89/35
f 71/219/14 133/85/14 89/88/14 27/220/14
f 45/218/38 101/92/38 133/85/38 71/219/38
f 101/92/38 50/91/38 99/86/38 133/85/38
f 96/78/16 134/81/16 98/84/16 49/79/16
f 32/182/39 58/188/39 134/81/39 96/78/39
f 58/188/39 20/187/39 72/82/39 134/81/39
f 74/221/16 135/77/16 97/80/16 48/222/16
f 18/184/39 78/183/39 135/77/39 74/221/39
f 78/183/39 32/182/39 96/78/39 135/77/39
f 94/223/15 136/73/15 90/76/15 26/224/15
f 48/222/40 97/80/40 136/73/40 94/223/40
f 97/80/40 49/79/40 95/74/40 136/73/40
f 4/156/41 18/155/41 74/225/41 93/226/41
f 94/213/1 73/212/1 47/227/1 48/228/1
f 93/226/1 74/225/1 48/228/1 47/227/1
f 95/74/15 137/69/15 70/72/15 44/75/15
f 49/79/40 98/84/40 137/69/40 95/74/40
f 98/84/40 46/83/40 92/70/40 137/69/40
f 99/86/14 138/65/14 69/68/14 43/87/14
f 50/91/38 102/96/38 138/65/38 99/86/38
f 102/96/38 47/95/38 73/66/38 138/65/38
f 103/98/13 139/57/13 63/60/13 37/99/13
f 51/103/18 106/108/18 139/57/18 103/98/18
f 106/108/18 41/107/18 87/58/18 139/57/18
f 40/52/2 41/51/2 67/195/2 66/194/2
f 38/48/5 37/47/5 63/191/5 84/190/5
f 24/193/2 23/229/2 87/50/2 86/49/2
f 107/114/4 140/41/4 62/44/4 36/115/4
f 52/119/4 110/124/4 140/41/4 107/114/4
f 110/124/4 30/123/4 76/42/4 140/41/4
f 111/126/18 141/37/18 61/40/18 35/127/18
f 53/131/18 114/136/18 141/37/18 111/126/18
f 114/136/42 33/135/42 79/38/42 141/37/42
f 115/138/10 142/33/10 64/36/10 38/139/10
f 54/143/4 118/148/4 142/33/4 115/138/4
f 118/148/4 39/147/4 65/34/4 142/33/4
f 46/162/2 45/161/2 71/164/2 92/163/2
f 60/230/2 154/231/2 144/232/2 19/233/2
f 187/234/43 158/235/43 145/236/43 157/237/43
f 186/238/44 160/239/44 143/240/44 155/241/44
f 145/242/1 156/243/1 206/244/1 203/245/1
f 184/246/2 165/247/2 146/248/2 162/249/2
f 181/250/2 159/251/2 150/252/2 167/253/2
f 168/254/18 180/255/18 211/256/18 210/257/18
f 179/258/44 169/259/44 147/260/44 161/261/44
f 178/262/43 172/263/43 148/264/43 163/265/43
f 177/266/45 173/267/45 152/268/45 174/269/45
f 176/270/45 164/271/45 149/272/45 175/273/45
f 76/274/1 160/275/1 30/276/1
f 153/277/1 143/278/1 160/275/1 76/274/1
f 173/267/45 176/270/45 175/273/45 152/268/45
f 147/260/46 155/241/46 176/270/46 173/267/46
f 155/241/46 143/240/46 164/271/46 176/270/46
f 159/279/45 177/266/45 174/269/45 150/280/45
f 144/281/46 161/261/46 177/266/46 159/279/46
f 161/261/46 147/260/46 173/267/46 177/266/46
f 165/282/43 178/262/43 163/265/43 146/283/43
f 150/280/47 174/269/47 178/262/47 165/282/47
f 174/269/47 152/268/47 172/263/47 178/262/47
f 154/284/44 179/258/44 161/261/44 144/281/44
f 34/186/48 170/285/48 179/258/48 154/284/48
f 170/285/49 151/286/49 169/259/49 179/258/49
f 148/264/4 157/237/4 207/287/4 205/288/4
f 19/233/2 144/232/2 159/251/2 181/250/2
f 164/289/1 182/290/1 166/291/1 149/292/1
f 143/278/1 153/277/1 182/290/1 164/289/1
f 158/293/1 183/294/1 156/243/1 145/242/1
f 149/292/1 166/291/1 183/294/1 158/293/1
f 167/253/2 150/252/2 165/247/2 184/246/2
f 185/295/18 168/254/18 210/257/18 212/296/18
f 169/259/44 186/238/44 155/241/44 147/260/44
f 151/286/49 171/297/49 186/238/49 169/259/49
f 171/297/50 30/123/50 160/239/50 186/238/50
f 172/263/43 187/234/43 157/237/43 148/264/43
f 152/268/47 175/273/47 187/234/47 172/263/47
f 175/273/47 149/272/47 158/235/47 187/234/47
f 34/61/2 154/231/2 60/230/2
f 22/298/5 21/299/5 83/46/5 64/45/5
f 201/300/51 170/301/51 34/302/51 60/303/51
f 194/304/52 191/305/52 193/306/52 196/307/52
f 166/308/52 182/309/52 193/306/52 191/305/52
f 181/310/53 199/311/53 196/307/53 193/306/53 182/309/53 153/312/53 189/313/53 188/314/53 190/315/53 19/316/53
f 190/315/51 201/300/51 60/303/51 19/316/51
f 200/317/18 151/318/18 170/301/18 201/300/18
f 188/314/18 200/317/18 201/300/18 190/315/18
f 189/313/18 202/319/18 200/317/18 188/314/18
f 202/319/18 171/320/18 151/318/18 200/317/18
f 76/321/54 30/322/54 171/320/54 202/319/54
f 153/312/55 76/321/55 202/319/55 189/313/55
f 197/323/52 194/304/52 196/307/52 199/311/52
f 167/324/52 197/323/52 199/311/52 181/310/52
f 184/325/56 198/326/56 197/323/56 167/324/56
f 180/255/57 198/326/57 184/325/57 162/327/57
f 180/255/57 168/254/57 195/328/57 198/326/57
f 168/254/57 185/295/57 192/329/57 195/328/57
f 183/330/57 192/329/57 185/295/57 156/331/57
f 183/330/56 166/308/56 191/305/56 192/329/56
f 194/304/56 195/328/56 192/329/56 191/305/56
f 198/326/56 195/328/56 194/304/56 197/323/56
f 212/332/5 207/333/5 203/334/5 206/335/5
f 211/336/5 209/337/5 205/338/5 210/339/5
f 208/340/5 204/341/5 209/337/5 211/336/5
f 210/339/5 205/338/5 207/333/5 212/332/5
f 162/249/2 146/248/2 204/341/2 208/340/2
f 180/255/18 162/327/18 208/342/18 211/256/18
f 157/237/4 145/236/4 203/343/4 207/287/4
f 156/331/18 185/295/18 212/296/18 206/344/18
f 163/265/4 148/264/4 205/288/4 209/345/4
f 146/283/4 163/265/4 209/345/4 204/346/4
f 214/347/58 216/348/58 215/349/58 213/350/58
f 5/10/2 215/351/2 216/352/2 7/6/2
f 1/353/5 213/354/5 215/355/5 5/356/5
f 7/357/7 216/358/7 214/359/7 3/360/7
