# Blender v2.83.5 OBJ File: 'candlestick02.blend'
# www.blender.org
mtllib candlestick02.mtl
o Cylinder
v -0.019936 0.001042 -0.058353
v -0.019936 0.006664 -0.058353
v 0.052193 0.001042 -0.036064
v 0.052193 0.006664 -0.036064
v 0.052193 0.001042 0.036064
v 0.052193 0.006664 0.036064
v -0.019936 0.001042 0.058353
v -0.019936 0.006664 0.058353
v -0.064513 0.001042 -0.000000
v -0.064513 0.006664 -0.000000
v 0.000000 0.014814 -0.038371
v 0.023714 0.014814 -0.031042
v 0.038371 0.014814 -0.011857
v 0.038371 0.014814 0.011857
v 0.023714 0.014814 0.031042
v 0.000000 0.014814 0.038370
v -0.023714 0.014814 0.031042
v -0.038370 0.014814 0.011857
v -0.038370 0.014814 -0.011857
v -0.023714 0.014814 -0.031042
v 0.000000 0.037215 -0.009013
v 0.005570 0.037215 -0.007291
v 0.009013 0.037215 -0.002785
v 0.009013 0.037215 0.002785
v 0.005570 0.037215 0.007291
v 0.000000 0.037215 0.009013
v -0.005570 0.037215 0.007291
v -0.009013 0.037215 0.002785
v -0.009013 0.037215 -0.002785
v -0.005570 0.037215 -0.007291
v 0.000000 0.048626 -0.021741
v 0.013437 0.048626 -0.017589
v 0.021741 0.048626 -0.006718
v 0.021741 0.048626 0.006718
v 0.013437 0.048626 0.017589
v 0.000000 0.048626 0.021741
v -0.013437 0.048626 0.017589
v -0.021741 0.048626 0.006718
v -0.021741 0.048626 -0.006718
v -0.013437 0.048626 -0.017589
v 0.000000 0.048626 -0.009030
v 0.005581 0.048626 -0.007306
v 0.009030 0.048626 -0.002791
v 0.009030 0.048626 0.002790
v 0.005581 0.048626 0.007306
v 0.000000 0.048626 0.009030
v -0.005581 0.048626 0.007306
v -0.009030 0.048626 0.002790
v -0.009030 0.048626 -0.002791
v -0.005581 0.048626 -0.007306
v 0.000000 0.121490 -0.017280
v 0.010680 0.121490 -0.013980
v 0.017280 0.121490 -0.005340
v 0.017280 0.121490 0.005340
v 0.010680 0.121490 0.013980
v 0.000000 0.121490 0.017280
v -0.010680 0.121490 0.013980
v -0.017280 0.121490 0.005340
v -0.017280 0.121490 -0.005340
v -0.010680 0.121490 -0.013980
v 0.000000 0.138021 -0.009961
v 0.006156 0.138021 -0.008058
v 0.009961 0.138021 -0.003078
v 0.009961 0.138021 0.003078
v 0.006156 0.138021 0.008058
v 0.000000 0.138021 0.009961
v -0.006156 0.138021 0.008058
v -0.009961 0.138021 0.003078
v -0.009961 0.138021 -0.003078
v -0.006156 0.138021 -0.008059
v 0.000000 0.168433 -0.017886
v 0.011054 0.168433 -0.014470
v 0.017886 0.168433 -0.005527
v 0.017886 0.168433 0.005527
v 0.011054 0.168433 0.014470
v 0.000000 0.168433 0.017886
v -0.011054 0.168433 0.014470
v -0.017886 0.168433 0.005527
v -0.017886 0.168433 -0.005527
v -0.011054 0.168433 -0.014470
v 0.000000 0.173907 -0.012603
v 0.007789 0.173907 -0.010196
v 0.012603 0.173907 -0.003894
v 0.012603 0.173907 0.003894
v 0.007789 0.173907 0.010196
v 0.000000 0.173907 0.012602
v -0.007789 0.173907 0.010196
v -0.012602 0.173907 0.003894
v -0.012602 0.173907 -0.003894
v -0.007789 0.173907 -0.010196
v 0.000000 0.191358 -0.012250
v 0.007571 0.191358 -0.009910
v 0.012250 0.191358 -0.003785
v 0.012250 0.191358 0.003785
v 0.007571 0.191358 0.009910
v 0.000000 0.191358 0.012250
v -0.007571 0.191358 0.009910
v -0.012250 0.191358 0.003785
v -0.012250 0.191358 -0.003785
v -0.007571 0.191358 -0.009910
v 0.000000 0.191358 -0.024273
v 0.015001 0.191358 -0.019637
v 0.024273 0.191358 -0.007501
v 0.024273 0.191358 0.007501
v 0.015001 0.191358 0.019637
v 0.000000 0.191358 0.024273
v -0.015001 0.191358 0.019637
v -0.024273 0.191358 0.007501
v -0.024273 0.191358 -0.007501
v -0.015001 0.191358 -0.019637
v 0.000000 0.195316 -0.024273
v 0.015001 0.195316 -0.019637
v 0.024273 0.195316 -0.007501
v 0.024273 0.195316 0.007501
v 0.015001 0.195316 0.019637
v 0.000000 0.195316 0.024273
v -0.015001 0.195316 0.019637
v -0.024273 0.195316 0.007501
v -0.024273 0.195316 -0.007501
v -0.015001 0.195316 -0.019637
v 0.000000 0.195316 -0.009417
v 0.005820 0.195316 -0.007619
v 0.009417 0.195316 -0.002910
v 0.009417 0.195316 0.002910
v 0.005820 0.195316 0.007619
v 0.000000 0.195316 0.009417
v -0.005820 0.195316 0.007619
v -0.009417 0.195316 0.002910
v -0.009417 0.195316 -0.002910
v -0.005820 0.195316 -0.007619
v 0.000000 0.182037 -0.008062
v 0.004983 0.182037 -0.006522
v 0.008062 0.182037 -0.002491
v 0.008062 0.182037 0.002491
v 0.004983 0.182037 0.006522
v 0.000000 0.182037 0.008062
v -0.004982 0.182037 0.006522
v -0.008062 0.182037 0.002491
v -0.008062 0.182037 -0.002491
v -0.004982 0.182037 -0.006522
v 0.000087 0.304412 -0.006597
v 0.004166 0.304412 -0.005337
v 0.006688 0.304412 -0.002036
v 0.006688 0.304412 0.002044
v 0.004166 0.304412 0.005344
v 0.000087 0.304412 0.006605
v -0.003993 0.304412 0.005344
v -0.006514 0.304412 0.002044
v -0.006514 0.304412 -0.002036
v -0.003993 0.304412 -0.005337
v -0.000500 0.312537 -0.001714
v 0.001623 0.312537 -0.001058
v 0.001623 0.312537 0.001066
v -0.000500 0.312537 0.001722
v -0.001813 0.312537 0.000004
v -0.000042 0.312537 -0.000373
v 0.000423 0.312537 -0.000229
v 0.000423 0.312537 0.000236
v -0.000042 0.312537 0.000380
v -0.000329 0.312537 0.000004
v -0.001679 0.318834 -0.000443
v -0.001214 0.318834 -0.000299
v -0.001214 0.318834 0.000166
v -0.001679 0.318834 0.000310
v -0.001966 0.318834 -0.000067
vt 0.427859 0.779213
vt 0.427859 0.791295
vt 0.425442 0.791295
vt 0.425442 0.779213
vt 0.423026 0.779213
vt 0.423026 0.791295
vt 0.420609 0.791295
vt 0.420609 0.779213
vt 0.418193 0.779213
vt 0.418193 0.791295
vt 0.415776 0.791295
vt 0.415776 0.779213
vt 0.413360 0.779213
vt 0.413360 0.791295
vt 0.410943 0.791295
vt 0.410943 0.779213
vt 0.415776 0.791295
vt 0.413360 0.791295
vt 0.408527 0.779213
vt 0.408527 0.791295
vt 0.406110 0.791295
vt 0.406110 0.779213
vt 0.421818 0.778971
vt 0.427333 0.774964
vt 0.425226 0.768480
vt 0.418409 0.768480
vt 0.416302 0.774964
vt 0.418193 0.791295
vt 0.418193 0.791295
vt 0.415776 0.791295
vt 0.420609 0.791295
vt 0.427859 0.791295
vt 0.425442 0.791295
vt 0.423026 0.791295
vt 0.406110 0.791295
vt 0.403694 0.791295
vt 0.408527 0.791295
vt 0.410943 0.791295
vt 0.410943 0.791295
vt 0.413360 0.791295
vt 0.413360 0.791295
vt 0.410943 0.791295
vt 0.425442 0.791295
vt 0.423026 0.791295
vt 0.408527 0.791295
vt 0.406110 0.791295
vt 0.420609 0.791295
vt 0.403694 0.791295
vt 0.427859 0.791295
vt 0.418193 0.791295
vt 0.420609 0.791295
vt 0.420609 0.791295
vt 0.418193 0.791295
vt 0.427859 0.791295
vt 0.425442 0.791295
vt 0.408527 0.791295
vt 0.415776 0.791295
vt 0.423026 0.791295
vt 0.406110 0.791295
vt 0.403694 0.791295
vt 0.425442 0.791295
vt 0.427859 0.791295
vt 0.427859 0.791295
vt 0.425442 0.791295
vt 0.410943 0.791295
vt 0.408527 0.791295
vt 0.415776 0.791295
vt 0.423026 0.791295
vt 0.406110 0.791295
vt 0.413360 0.791295
vt 0.403694 0.791295
vt 0.408527 0.791295
vt 0.410943 0.791295
vt 0.410943 0.791295
vt 0.408527 0.791295
vt 0.418193 0.791295
vt 0.415776 0.791295
vt 0.423026 0.791295
vt 0.406110 0.791295
vt 0.413360 0.791295
vt 0.420609 0.791295
vt 0.403694 0.791295
vt 0.415776 0.791295
vt 0.418193 0.791295
vt 0.418193 0.791295
vt 0.415776 0.791295
vt 0.425442 0.791295
vt 0.423026 0.791295
vt 0.406110 0.791295
vt 0.413360 0.791295
vt 0.420609 0.791295
vt 0.403694 0.791295
vt 0.427859 0.791295
vt 0.423026 0.791295
vt 0.425442 0.791295
vt 0.425442 0.791295
vt 0.423026 0.791295
vt 0.408527 0.791295
vt 0.406110 0.791295
vt 0.413360 0.791295
vt 0.420609 0.791295
vt 0.403694 0.791295
vt 0.410943 0.791295
vt 0.427859 0.791295
vt 0.413360 0.791295
vt 0.415776 0.791295
vt 0.415776 0.791295
vt 0.413360 0.791295
vt 0.408527 0.791295
vt 0.406110 0.791295
vt 0.420609 0.791295
vt 0.403694 0.791295
vt 0.410943 0.791295
vt 0.418193 0.791295
vt 0.427859 0.791295
vt 0.420609 0.791295
vt 0.423026 0.791295
vt 0.423026 0.791295
vt 0.420609 0.791295
vt 0.406110 0.791295
vt 0.403694 0.791295
vt 0.410943 0.791295
vt 0.418193 0.791295
vt 0.427859 0.791295
vt 0.425442 0.791295
vt 0.408527 0.791295
vt 0.403694 0.791295
vt 0.406110 0.791295
vt 0.406110 0.791295
vt 0.403694 0.791295
vt 0.413360 0.791295
vt 0.410943 0.791295
vt 0.418193 0.791295
vt 0.427859 0.791295
vt 0.425442 0.791295
vt 0.408527 0.791295
vt 0.415776 0.791295
vt 0.410943 0.791295
vt 0.413360 0.791295
vt 0.413360 0.791295
vt 0.410943 0.791295
vt 0.420609 0.791295
vt 0.418193 0.791295
vt 0.427859 0.791295
vt 0.425442 0.791295
vt 0.408527 0.791295
vt 0.415776 0.791295
vt 0.423026 0.791295
vt 0.415776 0.791295
vt 0.418193 0.791295
vt 0.418193 0.791295
vt 0.415776 0.791295
vt 0.420609 0.791295
vt 0.427859 0.791295
vt 0.425442 0.791295
vt 0.408527 0.791295
vt 0.423026 0.791295
vt 0.406110 0.791295
vt 0.403694 0.791295
vt 0.813026 0.981295
vt 0.815442 0.981295
vt 0.815442 0.981295
vt 0.813026 0.981295
vt 0.425442 0.791295
vt 0.423026 0.791295
vt 0.408527 0.791295
vt 0.406110 0.791295
vt 0.413360 0.791295
vt 0.420609 0.791295
vt 0.403694 0.791295
vt 0.410943 0.791295
vt 0.427859 0.791295
vt 0.796110 0.981295
vt 0.798527 0.981295
vt 0.798527 0.981295
vt 0.796110 0.981295
vt 0.796110 0.981295
vt 0.798527 0.981295
vt 0.803360 0.981295
vt 0.805776 0.981295
vt 0.805776 0.981295
vt 0.803360 0.981295
vt 0.810609 0.981295
vt 0.810609 0.981295
vt 0.793694 0.981295
vt 0.793694 0.981295
vt 0.800943 0.981295
vt 0.800943 0.981295
vt 0.808193 0.981295
vt 0.808193 0.981295
vt 0.817859 0.981295
vt 0.817859 0.981295
vt 0.798527 0.981295
vt 0.796110 0.981295
vt 0.803360 0.981295
vt 0.813026 0.981295
vt 0.810609 0.981295
vt 0.793694 0.981295
vt 0.800943 0.981295
vt 0.808193 0.981295
vt 0.817859 0.981295
vt 0.815442 0.981295
vt 0.805776 0.981295
vt 0.798527 0.981295
vt 0.796110 0.981295
vt 0.813026 0.981295
vt 0.810609 0.981295
vt 0.817859 0.981295
vt 0.815442 0.981295
vt 0.803360 0.981295
vt 0.800943 0.981295
vt 0.808193 0.981295
vt 0.805776 0.981295
vt 0.803144 0.967864
vt 0.796326 0.967864
vt 0.794219 0.961380
vt 0.799735 0.957372
vt 0.805251 0.961380
vt 0.813026 0.981295
vt 0.810609 0.981295
vt 0.808193 0.981295
vt 0.805776 0.981295
vt 0.817859 0.981295
vt 0.815442 0.981295
vt 0.803360 0.981295
vt 0.800943 0.981295
vn 0.2952 0.0000 -0.9554
vn 1.0000 0.0000 0.0000
vn 0.2952 0.0000 0.9554
vn -0.7947 0.0000 0.6071
vn -0.0916 0.9507 0.2964
vn -0.7947 0.0000 -0.6071
vn 0.0000 -1.0000 0.0000
vn 0.1842 0.7814 0.5962
vn 0.1551 0.8510 0.5018
vn 0.2404 0.9531 0.1836
vn 0.1551 0.8510 -0.5018
vn 0.5079 0.8614 0.0000
vn 0.2404 0.9531 -0.1836
vn -0.0916 0.9507 -0.2964
vn -0.4090 0.8574 -0.3124
vn -0.2976 0.9547 0.0000
vn -0.4090 0.8574 0.3124
vn -0.5357 -0.7386 0.4092
vn 0.4875 0.7897 -0.3724
vn -0.4875 0.7897 -0.3724
vn -0.1842 0.7814 0.5962
vn 0.6066 0.7950 0.0000
vn -0.1842 0.7814 -0.5962
vn -0.4875 0.7897 0.3724
vn 0.4875 0.7897 0.3724
vn 0.1842 0.7814 -0.5962
vn -0.6066 0.7950 0.0000
vn 0.0000 1.0000 -0.0000
vn 0.5357 -0.7386 0.4092
vn 0.2020 -0.7292 -0.6538
vn -0.6675 -0.7446 0.0000
vn 0.2020 -0.7292 0.6538
vn 0.5357 -0.7386 -0.4092
vn -0.5357 -0.7386 -0.4092
vn -0.2020 -0.7292 0.6538
vn 0.6675 -0.7446 0.0000
vn -0.2020 -0.7292 -0.6538
vn 0.2935 -0.1076 -0.9499
vn -0.9144 0.4049 0.0000
vn -0.9937 -0.1125 0.0000
vn 0.2935 -0.1076 0.9499
vn 0.7898 -0.1105 -0.6033
vn -0.7898 -0.1105 -0.6033
vn -0.2935 -0.1076 0.9499
vn 0.9937 -0.1125 0.0000
vn -0.2935 -0.1076 -0.9499
vn -0.7898 -0.1105 0.6033
vn 0.7898 -0.1105 0.6033
vn 0.2865 -0.2416 0.9271
vn 0.2719 0.3896 0.8799
vn 0.7287 0.3988 -0.5567
vn -0.7287 0.3988 -0.5567
vn -0.2719 0.3896 0.8799
vn 0.9144 0.4049 0.0000
vn -0.2719 0.3896 -0.8799
vn -0.7287 0.3988 0.5567
vn 0.7287 0.3988 0.5567
vn 0.2719 0.3896 -0.8799
vn 0.5767 0.6880 -0.4405
vn 0.7698 -0.2480 -0.5881
vn -0.7698 -0.2480 -0.5881
vn -0.2865 -0.2416 0.9271
vn 0.9677 -0.2522 0.0000
vn -0.2865 -0.2416 -0.9271
vn -0.7698 -0.2480 0.5881
vn 0.7698 -0.2480 0.5881
vn 0.2865 -0.2416 -0.9271
vn -0.9677 -0.2522 0.0000
vn -0.2952 0.0193 0.9552
vn -0.5767 0.6880 -0.4405
vn -0.2170 0.6779 0.7023
vn 0.7195 0.6945 0.0000
vn -0.2170 0.6779 -0.7023
vn -0.5767 0.6880 0.4405
vn 0.5767 0.6880 0.4405
vn 0.2170 0.6779 -0.7023
vn -0.7195 0.6945 0.0000
vn 0.2170 0.6779 0.7023
vn 0.9998 0.0202 0.0000
vn -0.2952 0.0193 -0.9552
vn -0.7945 0.0199 0.6069
vn 0.7945 0.0199 0.6069
vn 0.2952 0.0193 -0.9552
vn -0.9998 0.0202 0.0000
vn 0.2952 0.0193 0.9552
vn 0.7945 0.0199 -0.6069
vn -0.7945 0.0199 -0.6069
vn -0.2952 0.0000 -0.9554
vn 0.7947 0.0000 0.6071
vn -1.0000 0.0000 0.0000
vn 0.7947 0.0000 -0.6071
vn -0.2952 0.0000 0.9554
vn -0.2938 0.0971 -0.9509
vn 0.7946 0.0112 -0.6070
vn -0.7907 0.0998 0.6040
vn 0.7907 0.0998 0.6040
vn 0.2938 0.0971 -0.9509
vn -0.9948 0.1015 0.0000
vn 0.2938 0.0971 0.9509
vn 0.7907 0.0998 -0.6040
vn -0.7907 0.0998 -0.6040
vn -0.2938 0.0971 0.9509
vn 0.9948 0.1015 0.0000
vn -0.6777 0.5221 -0.5177
vn -0.7946 0.0123 -0.6070
vn -0.2952 0.0116 0.9554
vn 0.9999 0.0112 0.0000
vn -0.2952 0.0116 -0.9554
vn -0.7946 0.0123 0.6070
vn 0.7946 0.0111 0.6070
vn 0.2952 0.0112 -0.9554
vn -0.9999 0.0126 0.0000
vn 0.2952 0.0112 0.9554
vn -0.0000 1.0000 -0.0001
vn -0.2584 0.4838 0.8361
vn 0.8486 0.5290 0.0000
vn -0.2584 0.4838 -0.8361
vn -0.6777 0.5221 0.5177
vn 0.6909 0.4941 0.5278
vn 0.2537 0.5117 -0.8209
vn -0.8655 0.5008 0.0000
vn 0.2537 0.5117 0.8209
vn 0.6909 0.4941 -0.5278
vn -0.7772 -0.2086 -0.5937
vn 0.9678 0.2516 0.0000
vn 0.2941 0.0871 0.9518
vn 0.2946 0.0659 -0.9533
vn -0.7792 -0.1959 0.5953
usemtl Material.001
s off
f 1/1/1 2/2/1 4/3/1 3/4/1
f 3/5/2 4/6/2 6/7/2 5/8/2
f 5/9/3 6/10/3 8/11/3 7/12/3
f 7/13/4 8/14/4 10/15/4 9/16/4
f 8/11/5 16/17/5 17/18/5
f 9/19/6 10/20/6 2/21/6 1/22/6
f 1/23/7 3/24/7 5/25/7 7/26/7 9/27/7
f 16/17/8 15/28/8 25/29/8 26/30/8
f 8/11/9 6/10/9 15/28/9 16/17/9
f 6/7/10 14/31/10 15/28/10
f 4/3/11 2/2/11 11/32/11 12/33/11
f 6/7/12 4/6/12 13/34/12 14/31/12
f 4/3/13 12/33/13 13/34/13
f 2/21/14 20/35/14 11/36/14
f 2/21/15 10/20/15 19/37/15 20/35/15
f 10/15/16 18/38/16 19/37/16
f 10/15/17 8/14/17 17/18/17 18/38/17
f 28/39/18 27/40/18 37/41/18 38/42/18
f 13/34/19 12/33/19 22/43/19 23/44/19
f 20/35/20 19/37/20 29/45/20 30/46/20
f 17/18/21 16/17/21 26/30/21 27/40/21
f 14/31/22 13/34/22 23/44/22 24/47/22
f 11/36/23 20/35/23 30/46/23 21/48/23
f 18/38/24 17/18/24 27/40/24 28/39/24
f 15/28/25 14/31/25 24/47/25 25/29/25
f 12/33/26 11/32/26 21/49/26 22/43/26
f 19/37/27 18/38/27 28/39/27 29/45/27
f 35/50/28 34/51/28 44/52/28 45/53/28
f 25/29/29 24/47/29 34/51/29 35/50/29
f 22/43/30 21/49/30 31/54/30 32/55/30
f 29/45/31 28/39/31 38/42/31 39/56/31
f 26/30/32 25/29/32 35/50/32 36/57/32
f 23/44/33 22/43/33 32/55/33 33/58/33
f 30/46/34 29/45/34 39/56/34 40/59/34
f 27/40/35 26/30/35 36/57/35 37/41/35
f 24/47/36 23/44/36 33/58/36 34/51/36
f 21/48/37 30/46/37 40/59/37 31/60/37
f 42/61/38 41/62/38 51/63/38 52/64/38
f 32/55/28 31/54/28 41/62/28 42/61/28
f 39/56/28 38/42/28 48/65/28 49/66/28
f 36/57/28 35/50/28 45/53/28 46/67/28
f 33/58/28 32/55/28 42/61/28 43/68/28
f 40/59/28 39/56/28 49/66/28 50/69/28
f 37/41/28 36/57/28 46/67/28 47/70/28
f 34/51/28 33/58/28 43/68/28 44/52/28
f 31/60/28 40/59/28 50/69/28 41/71/28
f 38/42/28 37/41/28 47/70/28 48/65/28
f 59/72/39 58/73/39 68/74/39 69/75/39
f 49/66/40 48/65/40 58/73/40 59/72/40
f 46/67/41 45/53/41 55/76/41 56/77/41
f 43/68/42 42/61/42 52/64/42 53/78/42
f 50/69/43 49/66/43 59/72/43 60/79/43
f 47/70/44 46/67/44 56/77/44 57/80/44
f 44/52/45 43/68/45 53/78/45 54/81/45
f 41/71/46 50/69/46 60/79/46 51/82/46
f 48/65/47 47/70/47 57/80/47 58/73/47
f 45/53/48 44/52/48 54/81/48 55/76/48
f 66/83/49 65/84/49 75/85/49 76/86/49
f 56/77/50 55/76/50 65/84/50 66/83/50
f 53/78/51 52/64/51 62/87/51 63/88/51
f 60/79/52 59/72/52 69/75/52 70/89/52
f 57/80/53 56/77/53 66/83/53 67/90/53
f 54/81/54 53/78/54 63/88/54 64/91/54
f 51/82/55 60/79/55 70/89/55 61/92/55
f 58/73/56 57/80/56 67/90/56 68/74/56
f 55/76/57 54/81/57 64/91/57 65/84/57
f 52/64/58 51/63/58 61/93/58 62/87/58
f 73/94/59 72/95/59 82/96/59 83/97/59
f 63/88/60 62/87/60 72/95/60 73/94/60
f 70/89/61 69/75/61 79/98/61 80/99/61
f 67/90/62 66/83/62 76/86/62 77/100/62
f 64/91/63 63/88/63 73/94/63 74/101/63
f 61/92/64 70/89/64 80/99/64 71/102/64
f 68/74/65 67/90/65 77/100/65 78/103/65
f 65/84/66 64/91/66 74/101/66 75/85/66
f 62/87/67 61/93/67 71/104/67 72/95/67
f 69/75/68 68/74/68 78/103/68 79/98/68
f 87/105/69 86/106/69 96/107/69 97/108/69
f 80/99/70 79/98/70 89/109/70 90/110/70
f 77/100/71 76/86/71 86/106/71 87/105/71
f 74/101/72 73/94/72 83/97/72 84/111/72
f 71/102/73 80/99/73 90/110/73 81/112/73
f 78/103/74 77/100/74 87/105/74 88/113/74
f 75/85/75 74/101/75 84/111/75 85/114/75
f 72/95/76 71/104/76 81/115/76 82/96/76
f 79/98/77 78/103/77 88/113/77 89/109/77
f 76/86/78 75/85/78 85/114/78 86/106/78
f 94/116/7 93/117/7 103/118/7 104/119/7
f 84/111/79 83/97/79 93/117/79 94/116/79
f 81/112/80 90/110/80 100/120/80 91/121/80
f 88/113/81 87/105/81 97/108/81 98/122/81
f 85/114/82 84/111/82 94/116/82 95/123/82
f 82/96/83 81/115/83 91/124/83 92/125/83
f 89/109/84 88/113/84 98/122/84 99/126/84
f 86/106/85 85/114/85 95/123/85 96/107/85
f 83/97/86 82/96/86 92/125/86 93/117/86
f 90/110/87 89/109/87 99/126/87 100/120/87
f 101/127/88 110/128/88 120/129/88 111/130/88
f 91/121/7 100/120/7 110/128/7 101/127/7
f 98/122/7 97/108/7 107/131/7 108/132/7
f 95/123/7 94/116/7 104/119/7 105/133/7
f 92/125/7 91/124/7 101/134/7 102/135/7
f 99/126/7 98/122/7 108/132/7 109/136/7
f 96/107/7 95/123/7 105/133/7 106/137/7
f 93/117/7 92/125/7 102/135/7 103/118/7
f 100/120/7 99/126/7 109/136/7 110/128/7
f 97/108/7 96/107/7 106/137/7 107/131/7
f 118/138/28 117/139/28 127/140/28 128/141/28
f 108/132/4 107/131/4 117/139/4 118/138/4
f 105/133/89 104/119/89 114/142/89 115/143/89
f 102/135/1 101/134/1 111/144/1 112/145/1
f 109/136/90 108/132/90 118/138/90 119/146/90
f 106/137/3 105/133/3 115/143/3 116/147/3
f 103/118/91 102/135/91 112/145/91 113/148/91
f 110/128/6 109/136/6 119/146/6 120/129/6
f 107/131/92 106/137/92 116/147/92 117/139/92
f 104/119/2 103/118/2 113/148/2 114/142/2
f 126/149/93 125/150/93 135/151/93 136/152/93
f 115/143/28 114/142/28 124/153/28 125/150/28
f 112/145/28 111/144/28 121/154/28 122/155/28
f 119/146/28 118/138/28 128/141/28 129/156/28
f 116/147/28 115/143/28 125/150/28 126/149/28
f 113/148/28 112/145/28 122/155/28 123/157/28
f 120/129/28 119/146/28 129/156/28 130/158/28
f 117/139/28 116/147/28 126/149/28 127/140/28
f 114/142/28 113/148/28 123/157/28 124/153/28
f 111/130/28 120/129/28 130/158/28 121/159/28
f 133/160/94 132/161/94 142/162/94 143/163/94
f 123/157/95 122/155/95 132/164/95 133/165/95
f 130/158/96 129/156/96 139/166/96 140/167/96
f 127/140/97 126/149/97 136/152/97 137/168/97
f 124/153/98 123/157/98 133/165/98 134/169/98
f 121/159/99 130/158/99 140/167/99 131/170/99
f 128/141/100 127/140/100 137/168/100 138/171/100
f 125/150/101 124/153/101 134/169/101 135/151/101
f 122/155/102 121/154/102 131/172/102 132/164/102
f 129/156/103 128/141/103 138/171/103 139/166/103
f 150/173/104 149/174/104 155/175/104 151/176/104
f 140/177/105 139/178/105 149/174/105 150/173/105
f 137/179/106 136/180/106 146/181/106 147/182/106
f 134/183/107 133/160/107 143/163/107 144/184/107
f 131/185/108 140/177/108 150/173/108 141/186/108
f 138/187/109 137/179/109 147/182/109 148/188/109
f 135/189/110 134/183/110 144/184/110 145/190/110
f 132/161/111 131/191/111 141/192/111 142/162/111
f 139/178/112 138/187/112 148/188/112 149/174/112
f 136/180/113 135/189/113 145/190/113 146/181/113
f 151/176/114 155/175/114 160/193/114 156/194/114
f 147/182/115 146/181/115 154/195/115
f 144/184/116 143/163/116 152/196/116 153/197/116
f 141/186/117 150/173/117 151/198/117
f 148/188/118 147/182/118 154/195/118 155/199/118
f 145/190/119 144/184/119 153/200/119
f 142/162/120 141/192/120 151/201/120 152/202/120
f 149/174/121 148/188/121 155/175/121
f 146/181/122 145/190/122 153/200/122 154/203/122
f 143/163/123 142/162/123 152/196/123
f 156/194/124 160/193/124 165/204/124 161/205/124
f 153/197/28 152/196/28 157/206/28 158/207/28
f 152/202/28 151/201/28 156/208/28 157/209/28
f 155/199/28 154/195/28 159/210/28 160/211/28
f 154/203/28 153/200/28 158/212/28 159/213/28
f 162/214/28 161/215/28 165/216/28 164/217/28 163/218/28
f 158/207/125 157/206/125 162/219/125 163/220/125
f 159/213/126 158/212/126 163/221/126 164/222/126
f 157/209/127 156/208/127 161/223/127 162/224/127
f 160/211/128 159/210/128 164/225/128 165/226/128
