# Blender v2.83.5 OBJ File: 'compasshand01.blend'
# www.blender.org
mtllib compasshand01.mtl
o Cylinder_Cylinder.002
v 0.000000 0.001914 -0.040000
v 0.000000 0.016747 -0.040000
v 0.024721 0.001914 -0.032361
v 0.024721 0.016747 -0.032361
v 0.040000 0.001914 -0.012361
v 0.040000 0.016747 -0.012361
v 0.040000 0.001914 0.012361
v 0.040000 0.016747 0.012361
v 0.024721 0.001914 0.032361
v 0.024721 0.016747 0.032361
v 0.000000 0.001914 0.040000
v 0.000000 0.016747 0.040000
v -0.024721 0.001914 0.032361
v -0.024721 0.016747 0.032361
v -0.040000 0.001914 0.012361
v -0.040000 0.016747 0.012361
v -0.040000 0.001914 -0.012361
v -0.040000 0.016747 -0.012361
v -0.024721 0.001914 -0.032361
v -0.024721 0.016747 -0.032361
v 0.000000 0.016747 -0.033031
v 0.020414 0.016747 -0.026723
v 0.033031 0.016747 -0.010207
v 0.033031 0.016747 0.010207
v 0.020414 0.016747 0.026723
v 0.000000 0.016747 0.033031
v -0.020414 0.016747 0.026723
v -0.033031 0.016747 0.010207
v -0.033031 0.016747 -0.010207
v -0.020414 0.016747 -0.026723
v 0.000000 0.007506 -0.033031
v 0.020414 0.007506 -0.026723
v 0.033031 0.007506 -0.010207
v 0.033031 0.007506 0.010207
v 0.020414 0.007506 0.026723
v 0.000000 0.007506 0.033031
v -0.020414 0.007506 0.026723
v -0.033031 0.007506 0.010207
v -0.033031 0.007506 -0.010207
v -0.020414 0.007506 -0.026723
v 0.000000 0.007506 -0.005393
v 0.003333 0.007506 -0.004363
v 0.005393 0.007506 -0.001667
v 0.005393 0.007506 0.001667
v 0.003333 0.007506 0.004363
v 0.000000 0.007506 0.005393
v -0.003333 0.007506 0.004363
v -0.005393 0.007506 0.001667
v -0.005393 0.007506 -0.001667
v -0.003333 0.007506 -0.004363
v 0.000000 0.016103 -0.005393
v 0.003333 0.016103 -0.004363
v 0.005393 0.016103 -0.001667
v 0.005393 0.016103 0.001667
v 0.003333 0.016103 0.004363
v 0.000000 0.016103 0.005393
v -0.003333 0.016103 0.004363
v -0.005393 0.016103 0.001667
v -0.005393 0.016103 -0.001667
v -0.003333 0.016103 -0.004363
v -0.005393 0.007506 -0.000000
v -0.005393 0.016103 -0.000000
v -0.005393 0.011805 0.001667
v -0.005393 0.011805 -0.001667
v -0.005393 0.011805 -0.000000
v -0.021531 0.016103 0.001667
v -0.021531 0.016103 -0.001667
v -0.021531 0.016103 -0.000000
v -0.021531 0.011805 0.001667
v -0.021531 0.011805 -0.001667
v -0.021531 0.011805 -0.000000
v -0.021531 0.016257 0.002791
v -0.021531 0.016257 -0.002791
v -0.021531 0.016257 -0.000000
v -0.021531 0.011651 0.002791
v -0.021531 0.011651 -0.002791
v -0.021531 0.011651 -0.000000
v -0.029175 0.013954 -0.000000
v 0.005393 0.011805 -0.000000
v 0.005393 0.011805 0.001667
v 0.005393 0.011805 -0.001667
v 0.005393 0.016103 -0.000000
v 0.005393 0.007506 -0.000000
v 0.021492 0.016103 -0.001667
v 0.021492 0.016103 0.001667
v 0.021492 0.011805 -0.000000
v 0.021492 0.011805 0.001667
v 0.021492 0.011805 -0.001667
v 0.021492 0.016103 -0.000000
v 0.021492 0.016350 -0.002904
v 0.021492 0.016350 0.002904
v 0.021492 0.011558 -0.000000
v 0.021492 0.011558 0.002904
v 0.021492 0.011558 -0.002904
v 0.021492 0.016350 -0.000000
v 0.029597 0.013954 -0.000000
vt 0.555317 0.773083
vt 0.555317 0.791889
vt 0.551556 0.791889
vt 0.551556 0.773083
vt 0.547794 0.791889
vt 0.547794 0.773083
vt 0.544033 0.791889
vt 0.544033 0.773083
vt 0.540272 0.791889
vt 0.540272 0.773083
vt 0.536510 0.791889
vt 0.536510 0.773083
vt 0.532749 0.791889
vt 0.532749 0.773083
vt 0.528987 0.791889
vt 0.528987 0.773083
vt 0.525226 0.791889
vt 0.525226 0.773083
vt 0.532749 0.791889
vt 0.528987 0.791889
vt 0.521465 0.791889
vt 0.521465 0.773083
vt 0.517703 0.791889
vt 0.517703 0.773083
vt 0.545914 0.772707
vt 0.551220 0.770982
vt 0.554499 0.766469
vt 0.554499 0.760890
vt 0.551220 0.756376
vt 0.545914 0.754652
vt 0.540608 0.756376
vt 0.537328 0.760890
vt 0.537328 0.766469
vt 0.540608 0.770982
vt 0.551556 0.791889
vt 0.555317 0.791889
vt 0.555317 0.791889
vt 0.551556 0.791889
vt 0.536510 0.791889
vt 0.540272 0.791889
vt 0.544033 0.791889
vt 0.547794 0.791889
vt 0.521465 0.791889
vt 0.517703 0.791889
vt 0.525226 0.791889
vt 0.797130 0.968091
vt 0.800019 0.968091
vt 0.800019 0.968091
vt 0.797130 0.968091
vt 0.528987 0.791889
vt 0.525226 0.791889
vt 0.540272 0.791889
vt 0.536510 0.791889
vt 0.547794 0.791889
vt 0.521465 0.791889
vt 0.532749 0.791889
vt 0.544033 0.791889
vt 0.517703 0.791889
vt 0.362340 0.724631
vt 0.362340 0.724631
vt 0.362340 0.724631
vt 0.362340 0.724631
vt 0.805797 0.968091
vt 0.808686 0.968091
vt 0.808686 0.968091
vt 0.807242 0.968091
vt 0.805797 0.968091
vt 0.785573 0.968091
vt 0.788462 0.968091
vt 0.788462 0.968091
vt 0.785573 0.968091
vt 0.794240 0.968091
vt 0.794240 0.968091
vt 0.802908 0.968091
vt 0.802908 0.968091
vt 0.811575 0.968091
vt 0.814464 0.968091
vt 0.814464 0.968091
vt 0.811575 0.968091
vt 0.791351 0.968091
vt 0.792796 0.968091
vt 0.791351 0.968091
vt 0.348398 0.705681
vt 0.343588 0.707243
vt 0.338779 0.705681
vt 0.335806 0.701589
vt 0.335806 0.699061
vt 0.335806 0.696532
vt 0.338779 0.692441
vt 0.343588 0.690878
vt 0.348398 0.692441
vt 0.351370 0.696532
vt 0.351370 0.699061
vt 0.351370 0.701589
vt 0.335065 0.724631
vt 0.338474 0.724631
vt 0.338474 0.724631
vt 0.335065 0.724631
vt 0.345293 0.724631
vt 0.348702 0.724631
vt 0.348702 0.724631
vt 0.345293 0.724631
vt 0.345293 0.724631
vt 0.355521 0.724631
vt 0.358930 0.724631
vt 0.358930 0.724631
vt 0.358930 0.724631
vt 0.355521 0.724631
vt 0.365749 0.724631
vt 0.369159 0.724631
vt 0.369159 0.724631
vt 0.365749 0.724631
vt 0.335806 0.701589
vt 0.335806 0.699061
vt 0.352112 0.724631
vt 0.352112 0.724631
vt 0.362340 0.724631
vt 0.341884 0.724631
vt 0.341884 0.724631
vt 0.341884 0.724631
vt 0.341884 0.724631
vt 0.341884 0.724631
vt 0.343588 0.724631
vt 0.343588 0.724631
vt 0.364098 0.851417
vt 0.364098 0.851417
vt 0.364098 0.851417
vt 0.364098 0.851417
vt 0.362217 0.851417
vt 0.362217 0.851417
vt 0.343588 0.724631
vt 0.345293 0.724631
vt 0.345293 0.724631
vt 0.335806 0.696532
vt 0.360336 0.851417
vt 0.360336 0.851417
vt 0.360336 0.851417
vt 0.353632 0.820417
vt 0.353632 0.823207
vt 0.353632 0.823207
vt 0.353632 0.820417
vt 0.360336 0.851417
vt 0.360336 0.851417
vt 0.353632 0.825996
vt 0.353632 0.825996
vt 0.360635 0.724631
vt 0.360635 0.724631
vt 0.353632 0.823207
vt 0.362217 0.851417
vt 0.364098 0.851417
vt 0.353632 0.820417
vt 0.360635 0.724631
vt 0.550082 0.854592
vt 0.551963 0.854592
vt 0.551963 0.854592
vt 0.550082 0.854592
vt 0.539861 0.826382
vt 0.539861 0.823592
vt 0.539861 0.823592
vt 0.539861 0.826382
vt 0.358930 0.724631
vt 0.351370 0.696532
vt 0.351370 0.699061
vt 0.351370 0.701589
vt 0.358930 0.724631
vt 0.548201 0.854592
vt 0.548201 0.854592
vt 0.548201 0.854592
vt 0.478546 0.766469
vt 0.478546 0.763679
vt 0.478546 0.763679
vt 0.478546 0.766469
vt 0.548201 0.854592
vt 0.548201 0.854592
vt 0.551963 0.854592
vt 0.551963 0.854592
vt 0.551963 0.854592
vt 0.539861 0.826382
vt 0.488767 0.791889
vt 0.490648 0.791889
vt 0.488767 0.791889
vt 0.539861 0.829171
vt 0.539861 0.829171
vn 0.2952 0.0000 -0.9554
vn 0.7947 0.0000 -0.6071
vn 1.0000 0.0000 0.0000
vn 0.7947 0.0000 0.6071
vn 0.2952 0.0000 0.9554
vn -0.2952 0.0000 0.9554
vn -0.7947 0.0000 0.6071
vn -1.0000 0.0000 0.0000
vn 0.0000 1.0000 0.0000
vn -0.7947 0.0000 -0.6071
vn -0.2952 0.0000 -0.9554
vn 0.0000 -1.0000 0.0000
vn 0.0000 0.0000 -1.0000
vn 0.0000 0.0000 1.0000
vn -0.3430 0.0000 -0.9393
vn -0.2885 -0.9575 0.0000
vn -0.2885 0.9575 0.0000
vn -0.3430 0.0000 0.9393
vn 0.2835 -0.9590 0.0000
vn 0.3373 0.0000 0.9414
vn 0.3373 0.0000 -0.9414
vn 0.2835 0.9590 0.0000
usemtl Material.001
s off
f 1/1/1 2/2/1 4/3/1 3/4/1
f 3/4/2 4/3/2 6/5/2 5/6/2
f 5/6/3 6/5/3 8/7/3 7/8/3
f 7/8/4 8/7/4 10/9/4 9/10/4
f 9/10/5 10/9/5 12/11/5 11/12/5
f 11/12/6 12/11/6 14/13/6 13/14/6
f 13/14/7 14/13/7 16/15/7 15/16/7
f 15/16/8 16/15/8 18/17/8 17/18/8
f 16/15/9 14/13/9 27/19/9 28/20/9
f 17/18/10 18/17/10 20/21/10 19/22/10
f 19/22/11 20/21/11 2/23/11 1/24/11
f 1/25/12 3/26/12 5/27/12 7/28/12 9/29/12 11/30/12 13/31/12 15/32/12 17/33/12 19/34/12
f 22/35/6 21/36/6 31/37/6 32/38/6
f 14/13/9 12/11/9 26/39/9 27/19/9
f 12/11/9 10/9/9 25/40/9 26/39/9
f 10/9/9 8/7/9 24/41/9 25/40/9
f 4/3/9 2/2/9 21/36/9 22/35/9
f 8/7/9 6/5/9 23/42/9 24/41/9
f 6/5/9 4/3/9 22/35/9 23/42/9
f 2/23/9 20/21/9 30/43/9 21/44/9
f 20/21/9 18/17/9 29/45/9 30/43/9
f 18/17/9 16/15/9 28/20/9 29/45/9
f 37/46/9 36/47/9 46/48/9 47/49/9
f 29/45/3 28/20/3 38/50/3 39/51/3
f 26/39/11 25/40/11 35/52/11 36/53/11
f 23/42/7 22/35/7 32/38/7 33/54/7
f 30/43/4 29/45/4 39/51/4 40/55/4
f 27/19/1 26/39/1 36/53/1 37/56/1
f 24/41/8 23/42/8 33/54/8 34/57/8
f 21/44/5 30/43/5 40/55/5 31/58/5
f 28/20/2 27/19/2 37/56/2 38/50/2
f 25/40/10 24/41/10 34/57/10 35/52/10
f 81/59/13 53/60/13 84/61/13 88/62/13
f 34/63/9 33/64/9 43/65/9 83/66/9 44/67/9
f 31/68/9 40/69/9 50/70/9 41/71/9
f 38/72/9 37/46/9 47/49/9 48/73/9
f 35/74/9 34/63/9 44/67/9 45/75/9
f 32/76/9 31/77/9 41/78/9 42/79/9
f 39/80/9 38/72/9 48/73/9 61/81/9 49/82/9
f 36/47/9 35/74/9 45/75/9 46/48/9
f 33/64/9 32/76/9 42/79/9 43/65/9
f 40/69/9 39/80/9 49/82/9 50/70/9
f 52/83/9 51/84/9 60/85/9 59/86/9 62/87/9 58/88/9 57/89/9 56/90/9 55/91/9 54/92/9 82/93/9 53/94/9
f 41/95/11 50/96/11 60/97/11 51/98/11
f 48/99/7 47/100/7 57/101/7 58/102/7 63/103/7
f 45/104/4 44/105/4 80/106/4 54/107/4 55/108/4
f 42/109/1 41/110/1 51/111/1 52/112/1
f 62/87/9 59/86/9 67/113/9 68/114/9
f 46/115/5 45/104/5 55/108/5 56/116/5
f 43/117/2 42/109/2 52/112/2 53/60/2 81/59/2
f 50/96/10 49/118/10 64/119/10 59/120/10 60/97/10
f 47/100/6 46/115/6 56/116/6 57/101/6
f 59/120/13 64/119/13 70/121/13 67/122/13
f 49/118/8 61/123/8 65/124/8 64/119/8
f 61/123/8 48/99/8 63/103/8 65/124/8
f 69/125/3 66/126/3 72/127/3 75/128/3
f 71/129/3 69/125/3 75/128/3 77/130/3
f 64/119/12 65/124/12 71/131/12 70/121/12
f 63/103/14 58/102/14 66/132/14 69/133/14
f 58/88/9 62/87/9 68/114/9 66/134/9
f 65/124/12 63/103/12 69/133/12 71/131/12
f 73/135/15 76/136/15 78/137/15
f 76/136/16 77/130/16 78/137/16
f 66/138/3 68/139/3 74/140/3 72/141/3
f 70/142/3 71/129/3 77/130/3 76/136/3
f 67/143/3 70/142/3 76/136/3 73/135/3
f 68/139/3 67/144/3 73/145/3 74/140/3
f 83/146/3 43/117/3 81/59/3 79/147/3
f 44/105/3 83/146/3 79/147/3 80/106/3
f 74/140/17 73/145/17 78/148/17
f 77/130/16 75/128/16 78/149/16
f 75/128/18 72/127/18 78/150/18
f 72/141/17 74/140/17 78/151/17
f 79/147/12 81/59/12 88/62/12 86/152/12
f 86/153/8 88/154/8 94/155/8 92/156/8
f 89/157/8 85/158/8 91/159/8 95/160/8
f 80/106/12 79/147/12 86/152/12 87/161/12
f 82/93/9 54/92/9 85/162/9 89/163/9
f 53/94/9 82/93/9 89/163/9 84/164/9
f 54/107/14 80/106/14 87/161/14 85/165/14
f 93/166/19 92/156/19 96/167/19
f 91/168/20 93/166/20 96/167/20
f 84/169/8 89/170/8 95/171/8 90/172/8
f 85/173/8 87/174/8 93/166/8 91/168/8
f 87/174/8 86/153/8 92/156/8 93/166/8
f 88/154/8 84/175/8 90/176/8 94/155/8
f 94/155/21 90/176/21 96/177/21
f 95/160/22 91/159/22 96/178/22
f 92/179/19 94/180/19 96/181/19
f 90/182/22 95/160/22 96/183/22
