# Blender v2.83.5 OBJ File: 'lamp02.blend'
# www.blender.org
mtllib lamp02.mtl
o Cube
v 0.072154 0.032157 -0.072154
v 0.072154 0.020706 -0.072154
v 0.072154 0.032157 0.072154
v 0.072154 0.020706 0.072154
v -0.072154 0.032157 -0.072154
v -0.072154 0.020706 -0.072154
v -0.072154 0.032157 0.072154
v -0.072154 0.020706 0.072154
v 0.064377 0.040560 -0.064377
v 0.064377 0.040560 0.064377
v -0.064377 0.040560 -0.064377
v -0.064377 0.040560 0.064377
v 0.064377 0.236056 -0.064377
v 0.064377 0.236056 0.064377
v -0.064377 0.236056 -0.064377
v -0.064377 0.236056 0.064377
v 0.026546 0.257310 -0.026546
v 0.026546 0.257310 0.026546
v -0.026546 0.257310 -0.026546
v -0.026546 0.257310 0.026546
v 0.022541 0.290364 -0.022541
v 0.022541 0.290364 0.022541
v -0.022541 0.290364 -0.022541
v -0.022541 0.290364 0.022541
v 0.064377 0.040560 0.064377
v -0.064377 0.040560 0.064377
v 0.064377 0.040560 -0.064377
v -0.064377 0.040560 -0.064377
v 0.064377 0.236056 0.064377
v -0.064377 0.236056 0.064377
v 0.064377 0.236056 -0.064377
v -0.064377 0.236056 -0.064377
v 0.049086 0.052348 0.064377
v -0.049086 0.052348 0.064377
v 0.049086 0.224268 0.064377
v -0.049086 0.224268 0.064377
v -0.064377 0.052047 0.050420
v -0.064377 0.052047 -0.050420
v -0.064377 0.224570 0.050420
v -0.064377 0.224570 -0.050420
v -0.049162 0.053227 -0.064377
v 0.049162 0.053227 -0.064377
v -0.049162 0.223390 -0.064377
v 0.049162 0.223390 -0.064377
v 0.064377 0.052279 -0.050087
v 0.064377 0.052279 0.050087
v 0.064377 0.224338 -0.050087
v 0.064377 0.224338 0.050087
v 0.050497 0.237256 0.054655
v -0.050497 0.237256 0.054655
v -0.054655 0.237574 0.050706
v -0.054655 0.237574 -0.050706
v -0.050980 0.237989 -0.054655
v 0.050980 0.237989 -0.054655
v 0.054655 0.237413 -0.050600
v 0.054655 0.237413 0.050600
v 0.056040 0.041867 0.060654
v -0.056040 0.041867 0.060654
v -0.060654 0.041515 0.056272
v -0.060654 0.041515 -0.056272
v -0.056575 0.041054 -0.060654
v 0.056575 0.041054 -0.060654
v 0.060654 0.041693 -0.056154
v 0.060654 0.041693 0.056154
v 0.078411 0.010868 -0.078411
v 0.078411 0.010868 0.078411
v -0.078411 0.010868 -0.078411
v -0.078411 0.010868 0.078411
v 0.000000 0.039284 -0.026151
v 0.000000 0.091585 -0.026151
v 0.015371 0.039284 -0.021156
v 0.015371 0.091585 -0.021156
v 0.024871 0.039284 -0.008081
v 0.024871 0.091585 -0.008081
v 0.024871 0.039284 0.008081
v 0.024871 0.091585 0.008081
v 0.015371 0.039284 0.021156
v 0.015371 0.091585 0.021156
v -0.000000 0.039284 0.026151
v -0.000000 0.091585 0.026151
v -0.015371 0.039284 0.021156
v -0.015371 0.091585 0.021156
v -0.024871 0.039284 0.008081
v -0.024871 0.091585 0.008081
v -0.024871 0.039284 -0.008081
v -0.024871 0.091585 -0.008081
v -0.015371 0.039284 -0.021156
v -0.015371 0.091585 -0.021156
v 0.000000 0.084002 -0.002137
v 0.000000 0.097438 -0.002137
v 0.002033 0.084002 -0.000660
v 0.002033 0.097438 -0.000660
v 0.001256 0.084002 0.001729
v 0.001256 0.097438 0.001729
v -0.001256 0.084002 0.001729
v -0.001256 0.097438 0.001729
v -0.002033 0.084002 -0.000660
v -0.002033 0.097438 -0.000660
v 0.000388 0.105621 -0.006444
v 0.002421 0.105621 -0.004967
v 0.001645 0.105621 -0.002577
v -0.000868 0.105621 -0.002577
v -0.001644 0.105621 -0.004967
v 0.012743 0.290364 -0.012743
v 0.012743 0.290364 0.012743
v -0.012743 0.290364 -0.012743
v -0.012743 0.290364 0.012743
v 0.010849 0.309154 -0.010848
v 0.010849 0.309154 0.010848
v -0.010849 0.309154 -0.010848
v -0.010849 0.309154 0.010848
v -0.004983 0.335228 -0.051455
v 0.004833 0.334980 -0.051455
v -0.005747 0.304993 -0.041628
v 0.004069 0.304745 -0.041628
v -0.005408 0.292745 -0.013803
v 0.003112 0.292530 -0.013803
v -0.005408 0.292745 0.013803
v 0.003112 0.292530 0.013803
v -0.005747 0.304993 0.041628
v 0.004069 0.304745 0.041628
v -0.004983 0.335228 0.051455
v 0.004833 0.334980 0.051455
v -0.004218 0.365463 0.041628
v 0.005598 0.365215 0.041628
v -0.003261 0.377678 0.013803
v 0.005260 0.377462 0.013803
v -0.003261 0.377678 -0.013803
v 0.005260 0.377462 -0.013803
v -0.004218 0.365463 -0.041628
v 0.005598 0.365215 -0.041628
v 0.004227 0.311022 -0.032986
v 0.004833 0.334980 -0.040773
v 0.003335 0.301346 -0.010937
v 0.003335 0.301346 0.010937
v 0.004227 0.311021 0.032986
v 0.004833 0.334980 0.040773
v 0.005439 0.358938 0.032986
v 0.005037 0.368646 0.010937
v 0.005037 0.368646 -0.010937
v 0.005439 0.358938 -0.032986
v -0.005570 0.311269 -0.032986
v -0.004964 0.335227 -0.040773
v -0.005169 0.301561 -0.010937
v -0.005169 0.301561 0.010937
v -0.005570 0.311269 0.032986
v -0.004964 0.335227 0.040773
v -0.004358 0.359186 0.032986
v -0.003467 0.368861 0.010937
v -0.003467 0.368861 -0.010937
v -0.004358 0.359186 -0.032986
vt 0.550350 0.763299
vt 0.550350 0.754599
vt 0.550350 0.754599
vt 0.550350 0.763299
vt 0.541650 0.780700
vt 0.550350 0.780700
vt 0.550350 0.789401
vt 0.541650 0.789401
vt 0.541650 0.754599
vt 0.541650 0.763299
vt 0.541650 0.772000
vt 0.541650 0.772000
vt 0.541650 0.763299
vt 0.550350 0.772000
vt 0.550350 0.789401
vt 0.550350 0.780700
vt 0.550350 0.780700
vt 0.550350 0.789401
vt 0.550350 0.772000
vt 0.550350 0.789401
vt 0.550350 0.780700
vt 0.550350 0.780700
vt 0.550350 0.789401
vt 0.550350 0.763299
vt 0.550350 0.772000
vt 0.550350 0.772000
vt 0.550350 0.763299
vt 0.550350 0.754599
vt 0.550350 0.763299
vt 0.550350 0.789401
vt 0.550350 0.780700
vt 0.550350 0.772000
vt 0.550350 0.763299
vt 0.550350 0.763299
vt 0.550350 0.772000
vt 0.550350 0.754599
vt 0.550350 0.754599
vt 0.550350 0.754599
vt 0.550350 0.754599
vt 0.550350 0.763299
vt 0.550350 0.780700
vt 0.550350 0.789401
vt 0.550350 0.763299
vt 0.550350 0.763299
vt 0.550350 0.780700
vt 0.550350 0.780700
vt 0.550350 0.763299
vt 0.550350 0.763299
vt 0.550350 0.780700
vt 0.550350 0.772000
vt 0.550350 0.772000
vt 0.550350 0.754599
vt 0.550350 0.754599
vt 0.550350 0.754599
vt 0.550350 0.789401
vt 0.550350 0.789401
vt 0.550350 0.754599
vt 0.550350 0.754599
vt 0.550350 0.772000
vt 0.550350 0.772000
vt 0.550350 0.772000
vt 0.550350 0.780700
vt 0.550350 0.780700
vt 0.550350 0.780700
vt 0.550350 0.754599
vt 0.550350 0.754599
vt 0.550350 0.763299
vt 0.550350 0.763299
vt 0.550350 0.772000
vt 0.550350 0.772000
vt 0.550350 0.789401
vt 0.550350 0.763299
vt 0.550350 0.763299
vt 0.550350 0.780700
vt 0.550350 0.780700
vt 0.550350 0.772000
vt 0.550350 0.772000
vt 0.550350 0.754599
vt 0.550350 0.754599
vt 0.550350 0.789401
vt 0.532949 0.772000
vt 0.541650 0.780700
vt 0.532949 0.780700
vt 0.541650 0.789401
vt 0.541650 0.754599
vt 0.814125 0.963508
vt 0.814125 0.980909
vt 0.810645 0.980909
vt 0.810645 0.963508
vt 0.807165 0.980909
vt 0.807165 0.963508
vt 0.803685 0.980909
vt 0.803685 0.963508
vt 0.800204 0.980909
vt 0.800204 0.963508
vt 0.796724 0.980909
vt 0.796724 0.963508
vt 0.793244 0.980909
vt 0.793244 0.963508
vt 0.789764 0.980909
vt 0.789764 0.963508
vt 0.791436 0.959313
vt 0.791436 0.976714
vt 0.787956 0.976714
vt 0.787956 0.959313
vt 0.792933 0.961565
vt 0.788024 0.963160
vt 0.783114 0.961565
vt 0.780080 0.957388
vt 0.780080 0.952226
vt 0.783114 0.948050
vt 0.788024 0.946455
vt 0.792933 0.948050
vt 0.795967 0.952226
vt 0.795967 0.957388
vt 0.786284 0.963508
vt 0.786284 0.980909
vt 0.782803 0.980909
vt 0.782803 0.963508
vt 0.779323 0.980909
vt 0.779323 0.963508
vt 0.563203 0.969556
vt 0.563203 0.986957
vt 0.556242 0.986957
vt 0.556242 0.969556
vt 0.549282 0.986957
vt 0.549282 0.969556
vt 0.542321 0.986957
vt 0.542321 0.969556
vt 0.549282 0.986957
vt 0.542321 0.986957
vt 0.535361 0.986957
vt 0.535361 0.969556
vt 0.528401 0.986957
vt 0.528401 0.969556
vt 0.545045 0.963436
vt 0.537101 0.969208
vt 0.529157 0.963436
vt 0.532192 0.954098
vt 0.542011 0.954098
vt 0.535361 0.986957
vt 0.556242 0.986957
vt 0.528401 0.986957
vt 0.563203 0.986957
vt 0.550350 0.754599
vt 0.550350 0.763299
vt 0.550350 0.780700
vt 0.550350 0.789401
vt 0.550350 0.772000
vt 0.550350 0.772000
vt 0.559051 0.772000
vt 0.559051 0.780700
vt 0.550350 0.780700
vt 0.550350 0.789401
vt 0.115754 0.964076
vt 0.115754 0.981477
vt 0.112274 0.981477
vt 0.112274 0.964076
vt 0.108794 0.981477
vt 0.108794 0.964076
vt 0.105313 0.981477
vt 0.105313 0.964076
vt 0.101833 0.981477
vt 0.101833 0.964076
vt 0.098353 0.981477
vt 0.098353 0.964076
vt 0.094873 0.981477
vt 0.094873 0.964076
vt 0.094520 0.962000
vt 0.094520 0.979401
vt 0.091040 0.979401
vt 0.091040 0.962000
vt 0.091393 0.964076
vt 0.091393 0.981477
vt 0.087912 0.981477
vt 0.087912 0.964076
vt 0.105313 0.981477
vt 0.101833 0.981477
vt 0.084432 0.981477
vt 0.084432 0.964076
vt 0.080952 0.981477
vt 0.080952 0.964076
vt 0.112274 0.981477
vt 0.115754 0.981477
vt 0.094873 0.981477
vt 0.098353 0.981477
vt 0.098353 0.981477
vt 0.094873 0.981477
vt 0.115754 0.981477
vt 0.112274 0.981477
vt 0.108794 0.981477
vt 0.084432 0.981477
vt 0.080952 0.981477
vt 0.087912 0.981477
vt 0.091393 0.981477
vt 0.080952 0.981477
vt 0.084432 0.981477
vt 0.108794 0.981477
vt 0.105313 0.981477
vt 0.091393 0.981477
vt 0.101480 0.979401
vt 0.104960 0.979401
vt 0.104960 0.979401
vt 0.101480 0.979401
vt 0.087912 0.981477
vt 0.101833 0.981477
vt 0.091040 0.979401
vt 0.094520 0.979401
vn -0.7339 0.6792 0.0000
vn 0.0000 0.0000 1.0000
vn -1.0000 0.0000 0.0000
vn 0.0000 0.5367 -0.8438
vn 1.0000 0.0000 0.0000
vn 0.0000 0.0000 -1.0000
vn 0.7339 0.6792 0.0000
vn 0.0000 0.6792 -0.7339
vn 0.0000 0.6792 0.7339
vn 0.0000 0.8718 0.4898
vn 0.0000 0.1203 -0.9927
vn 0.0000 0.8718 -0.4898
vn 0.4898 0.8718 0.0000
vn -0.4898 0.8718 0.0000
vn 0.0000 1.0000 0.0000
vn 0.9927 0.1203 0.0000
vn -0.9927 0.1203 0.0000
vn 0.0000 0.1203 0.9927
vn -0.6846 0.0000 0.7289
vn -0.6828 0.0000 -0.7306
vn 0.6760 0.0000 0.7369
vn 0.6742 0.0000 -0.7386
vn -0.6169 -0.4297 -0.6594
vn -0.0014 -1.0000 -0.0065
vn 0.8009 -0.5988 0.0000
vn 0.6197 -0.4069 0.6711
vn -0.8025 -0.5967 0.0000
vn 0.0000 -0.5992 -0.8006
vn -0.6341 -0.4011 0.6611
vn 0.6022 -0.4355 -0.6691
vn 0.0000 -0.5543 0.8323
vn 0.6815 -0.1773 0.7100
vn -0.0014 1.0000 -0.0065
vn -0.9434 0.3318 0.0000
vn -0.6873 -0.1838 0.7027
vn 0.0000 0.3347 -0.9423
vn 0.6701 -0.1760 -0.7211
vn 0.0000 0.2925 0.9563
vn -0.6760 -0.1831 -0.7138
vn 0.9428 0.3333 0.0000
vn 0.0000 -1.0000 0.0000
vn 0.0000 0.5367 0.8438
vn -0.8438 0.5367 0.0000
vn 0.8438 0.5367 0.0000
vn 0.3090 0.0000 -0.9511
vn 0.8090 0.0000 -0.5878
vn 0.8090 0.0000 0.5878
vn 0.3090 0.0000 0.9511
vn -0.3090 0.0000 0.9511
vn -0.8090 0.0000 0.5878
vn -0.8090 0.0000 -0.5878
vn -0.3090 0.0000 -0.9511
vn 0.5878 0.0000 -0.8090
vn 0.9511 0.0000 0.3090
vn -0.0000 0.4657 0.8849
vn -0.9511 0.0000 0.3090
vn -0.5878 0.0000 -0.8090
vn -0.9312 0.2034 0.3026
vn 0.9446 0.1167 0.3069
vn -0.5461 -0.3697 -0.7517
vn 0.5353 -0.4131 -0.7367
vn -0.9950 0.1003 0.0000
vn 0.0000 0.1003 0.9950
vn 0.0000 0.1003 -0.9950
vn 0.9950 0.1003 0.0000
vn -0.0078 -0.3089 -0.9511
vn -0.0231 -0.9151 -0.4025
vn -0.0253 -0.9997 0.0000
vn -0.0231 -0.9151 0.4025
vn -0.0078 -0.3089 0.9511
vn 0.0078 0.3089 0.9511
vn 0.0231 0.9151 0.4025
vn 0.0253 0.9997 0.0000
vn 0.9990 -0.0401 -0.0194
vn 0.0231 0.9151 -0.4025
vn 0.0078 0.3089 -0.9511
vn -0.9997 0.0258 0.0017
vn 0.9997 -0.0253 0.0000
vn 0.9990 -0.0401 0.0194
vn 0.9998 -0.0105 0.0194
vn 0.9998 -0.0105 -0.0194
vn -0.9997 0.0247 0.0017
vn -0.9991 0.0384 0.0202
vn -0.9997 0.0235 0.0000
vn -0.9991 0.0384 -0.0202
vn -0.9997 0.0247 -0.0017
vn -0.9997 0.0258 -0.0017
vn -0.9997 0.0122 -0.0202
vn -0.9996 0.0271 0.0000
vn -0.9997 0.0122 0.0202
usemtl Material
s off
f 5/1/1 7/2/1 12/3/1 11/4/1
f 4/5/2 3/6/2 7/7/2 8/8/2
f 8/9/3 7/2/3 5/1/3 6/10/3
f 6/10/4 2/11/4 65/12/4 67/13/4
f 2/11/5 1/14/5 3/6/5 4/5/5
f 6/10/6 5/1/6 1/14/6 2/11/6
f 12/15/2 10/16/2 25/17/2 26/18/2
f 3/6/7 1/14/7 9/19/7 10/16/7
f 1/14/8 5/1/8 11/4/8 9/19/8
f 7/7/9 3/6/9 10/16/9 12/15/9
f 16/20/10 14/21/10 18/22/10 20/23/10
f 15/24/2 13/25/2 31/26/2 32/27/2
f 11/4/2 12/3/2 26/28/2 28/29/2
f 14/21/2 16/20/2 30/30/2 29/31/2
f 17/32/11 19/33/11 23/34/11 21/35/11
f 13/25/12 15/24/12 19/33/12 17/32/12
f 14/21/13 13/25/13 17/32/13 18/22/13
f 15/24/14 16/36/14 20/37/14 19/33/14
f 23/34/15 24/38/15 107/39/15 106/40/15
f 18/22/16 17/32/16 21/35/16 22/41/16
f 19/33/17 20/37/17 24/38/17 23/34/17
f 20/23/18 18/22/18 22/41/18 24/42/18
f 32/27/3 28/29/3 38/43/3 40/44/3
f 25/17/2 29/31/2 35/45/2 33/46/2
f 28/29/6 32/27/6 43/47/6 41/48/6
f 31/26/5 29/31/5 48/49/5 47/50/5
f 13/25/2 14/21/2 29/31/2 31/26/2
f 9/19/2 11/4/2 28/29/2 27/51/2
f 10/16/2 9/19/2 27/51/2 25/17/2
f 16/36/2 15/24/2 32/27/2 30/52/2
f 30/52/2 26/28/2 34/53/2 36/54/2
f 29/31/2 30/30/2 36/55/2 35/45/2
f 26/18/2 25/17/2 33/46/2 34/56/2
f 26/28/3 30/52/3 39/57/3 37/58/3
f 30/52/3 32/27/3 40/44/3 39/57/3
f 28/29/3 26/28/3 37/58/3 38/43/3
f 32/27/6 31/26/6 44/59/6 43/47/6
f 27/51/6 28/29/6 41/48/6 42/60/6
f 31/26/6 27/51/6 42/60/6 44/59/6
f 25/17/5 27/51/5 45/61/5 46/62/5
f 29/31/5 25/17/5 46/62/5 48/49/5
f 27/51/5 31/26/5 47/50/5 45/61/5
f 42/60/19 45/61/19 47/50/19 44/59/19
f 35/45/20 48/49/20 46/62/20 33/46/20
f 38/43/21 41/48/21 43/47/21 40/44/21
f 36/54/22 34/53/22 37/58/22 39/57/22
f 48/49/23 35/45/23 49/63/23 56/64/23
f 49/63/24 50/65/24 51/66/24 52/67/24 53/68/24 54/69/24 55/70/24 56/64/24
f 39/57/25 40/44/25 52/67/25 51/66/25
f 40/44/26 43/47/26 53/68/26 52/67/26
f 47/50/27 48/49/27 56/64/27 55/70/27
f 35/45/28 36/55/28 50/71/28 49/63/28
f 44/59/29 47/50/29 55/70/29 54/69/29
f 36/54/30 39/57/30 51/66/30 50/65/30
f 43/47/31 44/59/31 54/69/31 53/68/31
f 41/48/32 38/43/32 60/72/32 61/73/32
f 57/74/33 64/75/33 63/76/33 62/77/33 61/73/33 60/72/33 59/78/33 58/79/33
f 46/62/34 45/61/34 63/76/34 64/75/34
f 45/61/35 42/60/35 62/77/35 63/76/35
f 34/56/36 33/46/36 57/74/36 58/80/36
f 37/58/37 34/53/37 58/79/37 59/78/37
f 42/60/38 41/48/38 61/73/38 62/77/38
f 33/46/39 46/62/39 64/75/39 57/74/39
f 38/43/40 37/58/40 59/78/40 60/72/40
f 67/81/41 65/12/41 66/82/41 68/83/41
f 4/5/42 8/8/42 68/84/42 66/82/42
f 8/9/43 6/10/43 67/13/43 68/85/43
f 2/11/44 4/5/44 66/82/44 65/12/44
f 69/86/45 70/87/45 72/88/45 71/89/45
f 71/89/46 72/88/46 74/90/46 73/91/46
f 73/91/5 74/90/5 76/92/5 75/93/5
f 75/93/47 76/92/47 78/94/47 77/95/47
f 77/95/48 78/94/48 80/96/48 79/97/48
f 79/97/49 80/96/49 82/98/49 81/99/49
f 81/99/50 82/98/50 84/100/50 83/101/50
f 83/102/3 84/103/3 86/104/3 85/105/3
f 72/106/15 70/107/15 88/108/15 86/109/15 84/110/15 82/111/15 80/112/15 78/113/15 76/114/15 74/115/15
f 85/116/51 86/117/51 88/118/51 87/119/51
f 87/119/52 88/118/52 70/120/52 69/121/52
f 89/122/53 90/123/53 92/124/53 91/125/53
f 91/125/54 92/124/54 94/126/54 93/127/54
f 93/127/2 94/126/2 96/128/2 95/129/2
f 96/128/55 94/126/55 101/130/55 102/131/55
f 95/129/56 96/128/56 98/132/56 97/133/56
f 97/133/57 98/132/57 90/134/57 89/135/57
f 100/136/15 99/137/15 103/138/15 102/139/15 101/140/15
f 98/132/58 96/128/58 102/131/58 103/141/58
f 94/126/59 92/124/59 100/142/59 101/130/59
f 90/134/60 98/132/60 103/141/60 99/143/60
f 92/124/61 90/123/61 99/144/61 100/142/61
f 106/40/62 107/39/62 111/145/62 110/146/62
f 24/42/15 22/41/15 105/147/15 107/148/15
f 21/35/15 23/34/15 106/40/15 104/149/15
f 22/41/15 21/35/15 104/149/15 105/147/15
f 108/150/15 110/151/15 111/152/15 109/153/15
f 107/148/63 105/147/63 109/153/63 111/154/63
f 104/149/64 106/40/64 110/146/64 108/150/64
f 105/147/65 104/149/65 108/150/65 109/153/65
f 112/155/66 113/156/66 115/157/66 114/158/66
f 114/158/67 115/157/67 117/159/67 116/160/67
f 116/160/68 117/159/68 119/161/68 118/162/68
f 118/162/69 119/161/69 121/163/69 120/164/69
f 120/164/70 121/163/70 123/165/70 122/166/70
f 122/166/71 123/165/71 125/167/71 124/168/71
f 124/169/72 125/170/72 127/171/72 126/172/72
f 126/173/73 127/174/73 129/175/73 128/176/73
f 121/163/74 119/161/74 135/177/74 136/178/74
f 128/176/75 129/175/75 131/179/75 130/180/75
f 130/180/76 131/179/76 113/181/76 112/182/76
f 112/155/77 114/158/77 142/183/77 143/184/77
f 138/185/66 137/186/66 147/187/66 148/188/66
f 115/157/78 113/156/78 133/189/78 132/190/78
f 119/161/78 117/159/78 134/191/78 135/177/78
f 117/159/79 115/157/79 132/190/79 134/191/79
f 113/181/78 131/179/78 141/192/78 133/193/78
f 131/179/80 129/175/80 140/194/80 141/192/80
f 129/175/78 127/174/78 139/195/78 140/194/78
f 127/174/81 125/167/81 138/185/81 139/195/81
f 125/167/78 123/165/78 137/186/78 138/185/78
f 123/165/78 121/163/78 136/178/78 137/186/78
f 130/180/82 112/155/82 143/196/82 151/197/82
f 135/177/73 134/191/73 144/198/73 145/199/73
f 133/193/70 141/192/70 151/197/70 143/196/70
f 139/195/67 138/185/67 148/188/67 149/200/67
f 136/201/75 135/202/75 145/203/75 146/204/75
f 132/190/71 133/189/71 143/184/71 142/183/71
f 140/194/68 139/195/68 149/200/68 150/205/68
f 137/186/76 136/178/76 146/206/76 147/187/76
f 134/191/72 132/190/72 142/183/72 144/198/72
f 141/192/69 140/194/69 150/205/69 151/197/69
f 128/176/83 130/180/83 151/197/83 150/205/83
f 126/173/84 128/176/84 150/205/84 149/200/84
f 124/169/85 126/172/85 149/207/85 148/208/85
f 122/166/86 124/168/86 148/188/86 147/187/86
f 120/164/87 122/166/87 147/187/87 146/206/87
f 118/162/88 120/164/88 146/206/88 145/199/88
f 116/160/89 118/162/89 145/199/89 144/198/89
f 114/158/90 116/160/90 144/198/90 142/183/90
