# Blender v2.83.5 OBJ File: 'pictureframetable02.blend'
# www.blender.org
mtllib pictureframetable02.mtl
o Cube_Cube.001
v -0.003355 -0.000043 0.075387
v -0.021064 0.096554 0.075163
v -0.003355 -0.000043 -0.082178
v -0.021064 0.096554 -0.082402
v 0.016239 0.000896 0.075387
v 0.000418 0.100561 0.075163
v 0.016239 0.000896 -0.082178
v 0.000418 0.100561 -0.082402
v -0.003948 0.008532 0.065963
v -0.013648 0.084274 0.065963
v -0.003948 0.008532 -0.072754
v -0.013648 0.084274 -0.072754
v 0.012216 0.012083 0.065963
v -0.000080 0.088746 0.065963
v 0.012216 0.012083 -0.072754
v -0.000080 0.088746 -0.072754
v -0.003355 -0.000043 -0.001517
v -0.009912 0.032021 0.075387
v -0.021064 0.096554 -0.001742
v -0.009912 0.032021 -0.082178
v -0.009912 0.032021 -0.001517
v -0.003355 -0.000043 0.021333
v -0.013191 0.048054 0.075387
v -0.021064 0.096554 -0.024592
v -0.006634 0.015989 -0.082178
v -0.003355 -0.000043 -0.024368
v -0.006634 0.015989 0.075387
v -0.021064 0.096554 0.021109
v -0.013191 0.048054 -0.082178
v -0.009912 0.032021 -0.024368
v -0.009912 0.032021 0.021333
v -0.006634 0.015989 -0.001517
v -0.013191 0.048054 -0.001517
v -0.013191 0.048054 0.021333
v -0.006634 0.015989 0.021333
v -0.006634 0.015989 -0.024368
v -0.013191 0.048054 -0.024368
v -0.013191 0.048054 -0.001517
v -0.009912 0.032021 0.021333
v -0.009912 0.032021 -0.024368
v -0.009912 0.032021 -0.001517
v -0.013191 0.048054 0.021333
v -0.013191 0.048054 -0.024368
v -0.034321 0.000364 -0.001517
v -0.017965 0.000867 -0.001517
v -0.017965 0.000867 -0.024368
v -0.034321 0.000364 -0.024368
v -0.034321 0.000364 0.021333
v -0.017965 0.000867 0.021333
v -0.034321 0.000364 -0.001517
v -0.017965 0.000867 -0.001517
vt 0.292673 0.898502
vt 0.294882 0.898502
vt 0.294882 0.900712
vt 0.292673 0.900712
vt 0.286044 0.900712
vt 0.288254 0.900712
vt 0.290463 0.900712
vt 0.294882 0.909549
vt 0.286044 0.909549
vt 0.286044 0.918387
vt 0.286044 0.918387
vt 0.294882 0.918387
vt 0.294882 0.918387
vt 0.294882 0.927225
vt 0.292673 0.927225
vt 0.290463 0.927225
vt 0.288254 0.927225
vt 0.286044 0.927225
vt 0.277206 0.909549
vt 0.277206 0.918387
vt 0.277206 0.916178
vt 0.277206 0.913968
vt 0.277206 0.911759
vt 0.303720 0.909549
vt 0.303720 0.911759
vt 0.303720 0.913968
vt 0.303720 0.916178
vt 0.303720 0.918387
vt 0.286044 0.891874
vt 0.286044 0.900712
vt 0.294882 0.900712
vt 0.294882 0.891874
vt 0.286044 0.909549
vt 0.294882 0.909549
vt 0.286044 0.927225
vt 0.294882 0.927225
vt 0.277206 0.909549
vt 0.277206 0.918387
vt 0.303720 0.918387
vt 0.303720 0.909549
vt 0.288254 0.898502
vt 0.290463 0.898502
vt 0.288254 0.894083
vt 0.290463 0.894083
vt 0.290463 0.896293
vt 0.288254 0.896293
vt 0.292673 0.894083
vt 0.294882 0.894083
vt 0.294882 0.896293
vt 0.292673 0.896293
vt 0.000000 0.000000
vt 0.000000 0.000000
vt 0.000000 0.000000
vt 0.000000 0.000000
vt 0.290463 0.891874
vt 0.292673 0.891874
vt 0.294882 0.891874
vt 0.286044 0.894083
vt 0.286044 0.896293
vt 0.286044 0.891874
vt 0.288254 0.891874
vt 0.286044 0.898502
vt 0.290463 0.898502
vt 0.292673 0.898502
vt 0.292673 0.896293
vt 0.290463 0.896293
vt 0.290463 0.894083
vt 0.290463 0.898502
vt 0.292673 0.898502
vt 0.292673 0.894083
vt 0.290463 0.896293
vt 0.290463 0.894083
vt 0.292673 0.894083
vt 0.292673 0.896293
vt 0.290463 0.896293
vt 0.292699 0.907899
vt 0.292699 0.907899
vt 0.292699 0.907899
vt 0.292699 0.907899
vt 0.292673 0.896293
vt 0.000000 0.000000
vt 0.000000 0.000000
vt 0.000000 0.000000
vt 0.000000 0.000000
vn -0.9871 -0.1602 0.0000
vn -0.0023 -0.0027 -1.0000
vn 0.9592 0.1526 -0.2380
vn 0.0023 0.0027 1.0000
vn 0.0479 -0.9989 0.0000
vn -0.1834 0.9830 0.0000
vn 0.9919 0.1270 0.0000
vn -0.0000 0.0000 1.0000
vn 0.9991 -0.0422 0.0000
vn 0.0000 0.0000 -1.0000
vn -0.2146 0.9767 0.0000
vn 0.3130 -0.9497 0.0000
vn 0.9410 0.3384 0.0000
vn 0.9604 0.1534 0.2327
vn -0.9797 -0.2003 0.0000
vn 0.9682 -0.2503 0.0000
vn 0.0307 -0.9995 0.0000
vn -0.9143 0.4051 0.0000
usemtl Material.001
s off
f 37/1/1 24/2/1 4/3/1 29/4/1
f 3/5/2 25/6/2 20/7/2 29/4/2 4/3/2 8/8/2 7/9/2
f 5/10/3 13/11/3 14/12/3 6/13/3
f 5/10/4 6/13/4 2/14/4 23/15/4 18/16/4 27/17/4 1/18/4
f 3/19/5 7/9/5 5/10/5 1/20/5 22/21/5 17/22/5 26/23/5
f 8/8/6 4/24/6 24/25/6 19/26/6 28/27/6 2/28/6 6/13/6
f 9/29/7 11/30/7 12/31/7 10/32/7
f 11/30/8 15/33/8 16/34/8 12/31/8
f 6/13/9 14/12/9 16/34/9 8/8/9
f 13/11/10 9/35/10 10/36/10 14/12/10
f 11/37/11 9/38/11 13/11/11 15/33/11
f 16/34/12 14/12/12 10/39/12 12/40/12
f 7/9/13 15/33/13 13/11/13 5/10/13
f 7/9/14 8/8/14 16/34/14 15/33/14
f 36/41/15 30/42/15 20/7/15 25/6/15
f 35/43/15 31/44/15 21/45/15 32/46/15
f 34/47/1 28/48/1 19/49/1 33/50/1
f 33/51/8 21/52/8 41/53/8 38/54/8
f 18/55/15 23/56/15 34/47/15 31/44/15
f 23/56/1 2/57/1 28/48/1 34/47/1
f 22/58/15 35/43/15 32/46/15 17/59/15
f 1/60/15 27/61/15 35/43/15 22/58/15
f 27/61/15 18/55/15 31/44/15 35/43/15
f 26/62/15 36/41/15 25/6/15 3/5/15
f 17/59/15 32/46/15 36/41/15 26/62/15
f 32/46/15 21/45/15 30/42/15 36/41/15
f 30/42/15 37/1/15 29/4/15 20/7/15
f 37/1/8 30/42/8 40/63/8 43/64/8
f 33/50/1 19/49/1 24/2/1 37/1/1
f 33/50/8 37/1/8 43/64/8 38/65/8
f 30/42/8 21/45/8 41/66/8 40/63/8
f 21/45/8 31/44/8 39/67/8 41/66/8
f 30/42/10 46/68/10 47/69/10 37/1/10
f 31/44/8 34/47/8 42/70/8 39/67/8
f 34/47/8 33/50/8 38/65/8 42/70/8
f 21/45/16 45/71/16 46/68/16 30/42/16
f 49/72/17 48/73/17 50/74/17 51/75/17
f 47/76/17 46/77/17 45/78/17 44/79/17
f 41/66/16 39/67/16 49/72/16 51/75/16
f 39/67/8 42/70/8 48/73/8 49/72/8
f 37/1/18 47/69/18 44/80/18 33/50/18
f 42/70/18 38/65/18 50/74/18 48/73/18
f 38/54/10 41/53/10 51/81/10 50/82/10
f 33/51/10 21/52/10 45/83/10 44/84/10
