# Blender v2.83.5 OBJ File: 'pictureframetable01.blend'
# www.blender.org
mtllib pictureframetable01.mtl
o Cube_Cube.001
v -0.003355 -0.000043 0.044183
v -0.016469 0.064086 0.044183
v -0.003355 -0.000043 -0.047218
v -0.016469 0.064086 -0.047218
v 0.016239 0.000896 0.044183
v 0.003125 0.068093 0.044183
v 0.016239 0.000896 -0.047218
v 0.003125 0.068093 -0.047218
v -0.003948 0.008532 0.034759
v -0.013648 0.055966 0.034759
v -0.003948 0.008532 -0.037794
v -0.013648 0.055966 -0.037794
v 0.013418 0.012083 0.034759
v 0.003718 0.059517 0.034759
v 0.013418 0.012083 -0.037794
v 0.003718 0.059517 -0.037794
v -0.003355 -0.000043 -0.001517
v -0.009912 0.032021 0.044183
v -0.016469 0.064086 -0.001517
v -0.009912 0.032021 -0.047218
v -0.009912 0.032021 -0.001517
v -0.003355 -0.000043 0.021333
v -0.013191 0.048054 0.044183
v -0.016469 0.064086 -0.024368
v -0.006634 0.015989 -0.047218
v -0.003355 -0.000043 -0.024368
v -0.006634 0.015989 0.044183
v -0.016469 0.064086 0.021333
v -0.013191 0.048054 -0.047218
v -0.009912 0.032021 -0.024368
v -0.009912 0.032021 0.021333
v -0.006634 0.015989 -0.001517
v -0.013191 0.048054 -0.001517
v -0.013191 0.048054 0.021333
v -0.006634 0.015989 0.021333
v -0.006634 0.015989 -0.024368
v -0.013191 0.048054 -0.024368
v -0.026925 -0.001902 0.009497
v -0.026925 -0.001902 -0.009340
v -0.040411 -0.002240 0.009497
v -0.040411 -0.002240 -0.009340
vt 0.292673 0.898502
vt 0.294882 0.898502
vt 0.294882 0.900712
vt 0.292673 0.900712
vt 0.286044 0.900712
vt 0.288254 0.900712
vt 0.290463 0.900712
vt 0.294882 0.909549
vt 0.286044 0.909549
vt 0.286044 0.918387
vt 0.286044 0.918387
vt 0.294882 0.918387
vt 0.294882 0.918387
vt 0.294882 0.927225
vt 0.292673 0.927225
vt 0.290463 0.927225
vt 0.288254 0.927225
vt 0.286044 0.927225
vt 0.277206 0.909549
vt 0.277206 0.918387
vt 0.277206 0.916178
vt 0.277206 0.913968
vt 0.277206 0.911759
vt 0.303720 0.909549
vt 0.303720 0.911759
vt 0.303720 0.913968
vt 0.303720 0.916178
vt 0.303720 0.918387
vt 0.286044 0.891874
vt 0.286044 0.900712
vt 0.294882 0.900712
vt 0.294882 0.891874
vt 0.286044 0.909549
vt 0.294882 0.909549
vt 0.286044 0.927225
vt 0.294882 0.927225
vt 0.277206 0.909549
vt 0.277206 0.918387
vt 0.303720 0.918387
vt 0.303720 0.909549
vt 0.288254 0.898502
vt 0.290463 0.898502
vt 0.288254 0.894083
vt 0.290463 0.894083
vt 0.290463 0.896293
vt 0.288254 0.896293
vt 0.292673 0.894083
vt 0.294882 0.894083
vt 0.294882 0.896293
vt 0.292673 0.896293
vt 0.290463 0.891874
vt 0.292673 0.891874
vt 0.294882 0.891874
vt 0.286044 0.894083
vt 0.286044 0.896293
vt 0.286044 0.891874
vt 0.288254 0.891874
vt 0.286044 0.898502
vt 0.292673 0.896293
vt 0.290463 0.896293
vt 0.292673 0.898502
vt 0.290463 0.898502
vn -0.9797 -0.2003 0.0000
vn -0.0000 0.0000 -1.0000
vn 0.9769 0.1944 -0.0885
vn -0.0000 0.0000 1.0000
vn 0.0479 -0.9989 0.0000
vn -0.2003 0.9797 0.0000
vn 0.9797 0.2003 0.0000
vn 0.9976 0.0690 0.0000
vn 0.2003 -0.9797 0.0000
vn 0.9696 0.2445 0.0000
vn 0.9769 0.1944 0.0885
vn 0.1596 0.1705 0.9723
vn 0.0251 -0.9997 0.0000
vn 0.8939 -0.4483 0.0000
vn -0.2128 -0.2274 -0.9503
vn -0.8795 0.4760 0.0000
usemtl Material.001
s off
f 37/1/1 24/2/1 4/3/1 29/4/1
f 3/5/2 25/6/2 20/7/2 29/4/2 4/3/2 8/8/2 7/9/2
f 5/10/3 13/11/3 14/12/3 6/13/3
f 5/10/4 6/13/4 2/14/4 23/15/4 18/16/4 27/17/4 1/18/4
f 3/19/5 7/9/5 5/10/5 1/20/5 22/21/5 17/22/5 26/23/5
f 8/8/6 4/24/6 24/25/6 19/26/6 28/27/6 2/28/6 6/13/6
f 9/29/7 11/30/7 12/31/7 10/32/7
f 11/30/4 15/33/4 16/34/4 12/31/4
f 6/13/8 14/12/8 16/34/8 8/8/8
f 13/11/2 9/35/2 10/36/2 14/12/2
f 11/37/6 9/38/6 13/11/6 15/33/6
f 16/34/9 14/12/9 10/39/9 12/40/9
f 7/9/10 15/33/10 13/11/10 5/10/10
f 7/9/11 8/8/11 16/34/11 15/33/11
f 36/41/1 30/42/1 20/7/1 25/6/1
f 35/43/1 31/44/1 21/45/1 32/46/1
f 34/47/1 28/48/1 19/49/1 33/50/1
f 31/44/1 34/47/1 33/50/1 21/45/1
f 18/51/1 23/52/1 34/47/1 31/44/1
f 23/52/1 2/53/1 28/48/1 34/47/1
f 22/54/1 35/43/1 32/46/1 17/55/1
f 1/56/1 27/57/1 35/43/1 22/54/1
f 27/57/1 18/51/1 31/44/1 35/43/1
f 26/58/1 36/41/1 25/6/1 3/5/1
f 17/55/1 32/46/1 36/41/1 26/58/1
f 32/46/1 21/45/1 30/42/1 36/41/1
f 30/42/1 37/1/1 29/4/1 20/7/1
f 21/45/12 33/50/12 40/59/12 38/60/12
f 33/50/1 19/49/1 24/2/1 37/1/1
f 38/60/13 40/59/13 41/61/13 39/62/13
f 30/42/14 21/45/14 38/60/14 39/62/14
f 37/1/15 30/42/15 39/62/15 41/61/15
f 33/50/16 37/1/16 41/61/16 40/59/16
