# Blender v2.83.5 OBJ File: 'shelveswood01.blend'
# www.blender.org
mtllib shelveswood01.mtl
o Cube.001_Cube.003
v -0.082851 -0.009479 0.294139
v -0.082851 0.015694 0.292939
v -0.067184 -0.009571 -0.303139
v -0.067184 0.017424 -0.303139
v 0.028802 -0.007378 0.294139
v 0.028802 0.021036 0.294139
v 0.027530 -0.012128 -0.304304
v 0.026360 0.012535 -0.304271
v 0.034220 0.016785 -0.005066
v 0.034805 -0.009753 -0.005083
v 0.021519 -0.010941 -0.154693
v 0.028484 -0.008565 0.144528
v 0.028192 0.018910 0.144536
v 0.020642 0.014660 -0.154669
v -0.069111 0.016813 0.135518
v -0.069111 -0.009525 0.136117
v 0.032869 -0.008618 0.299925
v 0.035252 0.018113 0.295490
v 0.032869 -0.013986 -0.299925
v 0.032869 0.013205 -0.299925
v 0.112500 -0.015258 0.299925
v 0.112500 0.022194 0.299925
v 0.112500 -0.015258 -0.299925
v 0.112500 0.026583 -0.299925
v 0.078773 0.023878 0.299925
v 0.062708 0.014998 -0.299925
v 0.112500 0.024388 0.000000
v 0.112500 0.023291 0.149963
v 0.112500 0.024114 -0.149764
v 0.112500 0.022743 0.224944
v 0.112500 0.024937 -0.074981
v 0.112500 0.023840 0.074981
v 0.112500 0.024663 -0.224746
v 0.112500 -0.015258 0.000000
v 0.112500 -0.015258 -0.149764
v 0.112500 -0.015258 0.149963
v 0.112500 -0.015258 -0.224746
v 0.112500 -0.015258 0.074981
v 0.112500 -0.015258 -0.074981
v 0.112500 -0.015258 0.224944
v 0.112500 0.027205 0.149963
v 0.112500 0.026048 0.224944
v 0.112500 -0.026796 0.149963
v 0.112500 -0.026796 0.224944
v 0.051543 -0.024159 0.149963
v 0.051543 -0.025175 0.224944
v 0.051543 -0.011276 0.149963
v 0.051543 -0.011019 0.224944
v 0.123738 0.011967 0.149963
v 0.123738 0.011418 0.224944
v 0.123738 -0.015258 0.149963
v 0.123738 -0.015258 0.224944
v 0.123738 0.027205 0.149963
v 0.123738 0.026048 0.224944
v 0.123738 -0.026796 0.149963
v 0.123738 -0.026796 0.224944
v 0.112500 0.083698 0.157843
v 0.112500 0.083885 0.218009
v 0.123738 0.083698 0.157843
v 0.123738 0.083885 0.218009
v 0.112500 0.027205 -0.224547
v 0.112500 0.026048 -0.149566
v 0.112500 -0.026796 -0.224547
v 0.112500 -0.026796 -0.149566
v 0.051543 -0.024159 -0.224547
v 0.051543 -0.025175 -0.149566
v 0.051543 -0.011276 -0.224547
v 0.051543 -0.011019 -0.149566
v 0.123738 0.011967 -0.224547
v 0.123738 0.011418 -0.149566
v 0.123738 -0.015258 -0.224547
v 0.123738 -0.015258 -0.149566
v 0.123738 0.027205 -0.224547
v 0.123738 0.026048 -0.149566
v 0.123738 -0.026796 -0.224547
v 0.123738 -0.026796 -0.149566
v 0.112500 0.083698 -0.216667
v 0.112500 0.083885 -0.156501
v 0.123738 0.083698 -0.216667
v 0.123738 0.083885 -0.156501
v -0.070928 -0.016723 0.167192
v -0.070928 -0.017272 0.207714
v -0.070928 -0.009761 0.167192
v -0.070928 -0.009622 0.207714
v -0.060881 -0.018133 -0.209113
v -0.060881 -0.018730 -0.165000
v -0.060881 -0.010553 -0.209113
v -0.060881 -0.010402 -0.165000
v 0.046163 0.015659 -0.059577
v 0.044972 -0.011302 -0.053551
vt 0.657646 0.771055
vt 0.659761 0.771055
vt 0.659761 0.772113
vt 0.657646 0.772113
vt 0.659761 0.774228
vt 0.657646 0.774228
vt 0.657646 0.774756
vt 0.659761 0.774756
vt 0.659761 0.775285
vt 0.659761 0.775814
vt 0.659761 0.776343
vt 0.657646 0.776343
vt 0.657646 0.775814
vt 0.657646 0.775285
vt 0.659761 0.778458
vt 0.657646 0.778458
vt 0.655531 0.774228
vt 0.655531 0.776343
vt 0.655531 0.775285
vt 0.661876 0.774228
vt 0.661876 0.775285
vt 0.661876 0.776343
vt 0.657646 0.769998
vt 0.659761 0.769998
vt 0.665215 0.771174
vt 0.671242 0.771174
vt 0.671242 0.774187
vt 0.665215 0.774187
vt 0.671242 0.777201
vt 0.671242 0.780214
vt 0.665215 0.780214
vt 0.665215 0.785488
vt 0.671242 0.785488
vt 0.671242 0.786242
vt 0.665215 0.786242
vt 0.671242 0.789255
vt 0.671242 0.792269
vt 0.665215 0.792269
vt 0.659188 0.780214
vt 0.665215 0.780968
vt 0.665215 0.781721
vt 0.665215 0.782475
vt 0.665215 0.783228
vt 0.665215 0.783981
vt 0.665215 0.784735
vt 0.659188 0.786242
vt 0.659188 0.783228
vt 0.674256 0.780214
vt 0.677269 0.780214
vt 0.677269 0.783228
vt 0.677269 0.786242
vt 0.674256 0.786242
vt 0.671242 0.784735
vt 0.671242 0.783981
vt 0.671242 0.783228
vt 0.671242 0.782475
vt 0.671242 0.781721
vt 0.671242 0.780968
vt 0.482847 0.957065
vt 0.479650 0.957065
vt 0.479650 0.957065
vt 0.482847 0.957065
vt 0.481206 0.970103
vt 0.481206 0.970103
vt 0.481206 0.970103
vt 0.481206 0.970103
vt 0.479650 0.956666
vt 0.479650 0.957065
vt 0.479650 0.957065
vt 0.479650 0.956666
vt 0.479650 0.956666
vt 0.479650 0.956666
vt 0.479650 0.956666
vt 0.479650 0.957065
vt 0.479650 0.956666
vt 0.481206 0.970103
vt 0.481206 0.970103
vt 0.481206 0.970103
vt 0.479650 0.956666
vt 0.479650 0.957065
vt 0.479650 0.956666
vt 0.482847 0.956666
vt 0.482847 0.956666
vt 0.482847 0.957065
vt 0.484906 0.964313
vt 0.484906 0.962727
vt 0.484906 0.962727
vt 0.484906 0.964313
vt 0.482847 0.956666
vt 0.481206 0.970103
vt 0.481206 0.970103
vt 0.481206 0.970103
vt 0.481206 0.970103
vt 0.481206 0.970103
vt 0.482847 0.956666
vt 0.482847 0.957065
vt 0.482847 0.957065
vt 0.479650 0.957065
vt 0.479650 0.957065
vt 0.482847 0.957065
vt 0.481206 0.970103
vt 0.481206 0.970103
vt 0.481206 0.970103
vt 0.481206 0.970103
vt 0.477166 0.954265
vt 0.477166 0.955850
vt 0.477166 0.955850
vt 0.477166 0.954265
vt 0.479650 0.956666
vt 0.479650 0.956666
vt 0.479650 0.956666
vt 0.479650 0.956666
vt 0.479650 0.957065
vt 0.479650 0.957065
vt 0.479650 0.957065
vt 0.479650 0.956666
vt 0.479650 0.956666
vt 0.481206 0.970103
vt 0.481206 0.970103
vt 0.481206 0.970103
vt 0.479650 0.956666
vt 0.479650 0.957065
vt 0.479650 0.956666
vt 0.482847 0.956666
vt 0.482847 0.956666
vt 0.482847 0.957065
vt 0.482847 0.956666
vt 0.481206 0.970103
vt 0.481206 0.970103
vt 0.481206 0.970103
vt 0.481206 0.970103
vt 0.481206 0.970103
vt 0.482847 0.956666
vt 0.482847 0.957065
vt 0.479650 0.957065
vt 0.479650 0.957065
vt 0.000000 0.000000
vt 0.000000 0.000000
vt 0.000000 0.000000
vt 0.000000 0.000000
vt 0.479650 0.957065
vt 0.479650 0.957065
vt 0.000000 0.000000
vt 0.000000 0.000000
vt 0.000000 0.000000
vt 0.000000 0.000000
vt 0.477166 0.955850
vt 0.477166 0.954265
vt 0.665215 0.768160
vt 0.671242 0.768160
vn -1.0000 -0.0000 -0.0044
vn -0.0122 0.0004 -0.9999
vn 0.9997 0.0163 -0.0164
vn -0.0061 0.0224 0.9997
vn -0.0022 -1.0000 0.0042
vn 0.0011 1.0000 -0.0060
vn 0.9984 0.0406 0.0387
vn -0.9962 -0.0030 -0.0868
vn -0.9983 0.0277 0.0518
vn -0.0000 0.0000 -1.0000
vn 1.0000 0.0000 0.0000
vn -0.0271 0.0383 0.9989
vn -0.0569 -0.9984 0.0041
vn -0.1146 0.9934 -0.0103
vn -0.1097 0.9940 -0.0021
vn -0.0000 0.0000 1.0000
vn -0.0349 -0.9994 -0.0068
vn -0.1393 0.0000 -0.9902
vn -1.0000 0.0000 0.0000
vn 0.0000 -1.0000 0.0000
vn 0.0000 1.0000 -0.0031
vn 0.0000 0.1382 -0.9904
vn 0.0000 0.1191 0.9929
vn -0.0177 0.0000 0.9998
vn -0.0156 -0.0120 0.9998
vn -0.1360 0.0000 -0.9907
vn 0.0020 0.0077 1.0000
vn -0.0021 -0.0081 -1.0000
vn 0.0088 -0.0086 -0.9999
vn 0.0177 0.0000 -0.9998
vn 0.0151 0.0112 -0.9998
vn -0.0088 0.0086 0.9999
vn 0.0119 0.9999 -0.0034
vn -0.1393 0.0000 0.9902
vn -0.0625 -0.9980 -0.0135
vn 0.0060 1.0000 -0.0034
vn -0.1360 0.0000 0.9907
vn -0.0554 -0.9984 -0.0135
vn -0.9977 0.0600 -0.0328
usemtl Material.001
s off
f 16/1/1 15/2/1 4/3/1 3/4/1
f 3/4/2 4/3/2 8/5/2 7/6/2
f 11/7/3 14/8/3 9/9/3 13/10/3 6/11/3 5/12/3 12/13/3 10/14/3
f 5/12/4 6/11/4 2/15/4 1/16/4
f 3/17/5 7/6/5 11/7/5 10/14/5 12/13/5 5/12/5 1/18/5 16/19/5
f 8/5/6 4/20/6 15/21/6 2/22/6 6/11/6 13/10/6 9/9/6 14/8/6
f 7/6/7 8/5/7 14/8/7 11/7/7
f 1/23/8 2/24/8 15/2/8 16/1/8
f 90/25/9 89/26/9 20/27/9 19/28/9
f 19/28/10 20/27/10 26/29/10 24/30/10 23/31/10
f 40/32/11 30/33/11 22/34/11 21/35/11
f 21/35/12 22/34/12 25/36/12 18/37/12 17/38/12
f 19/39/13 23/31/13 37/40/13 35/41/13 39/42/13 34/43/13 38/44/13 36/45/13 40/32/13 21/35/13 17/46/13 90/47/13
f 26/48/14 20/49/14 89/50/14 18/51/14 25/52/14
f 24/30/15 26/48/15 25/52/15 22/34/15 30/33/15 28/53/15 32/54/15 27/55/15 31/56/15 29/57/15 33/58/15
f 30/59/16 40/60/16 52/61/16 50/62/16
f 42/63/16 30/64/16 50/65/16 54/66/16
f 43/67/17 44/68/17 46/69/17 45/70/17
f 47/71/18 45/70/18 81/72/18 83/73/18
f 40/60/16 48/74/16 46/69/16 44/68/16
f 43/67/10 45/70/10 47/71/10 36/75/10
f 41/76/19 42/63/19 58/77/19 57/78/19
f 23/31/11 24/30/11 33/58/11 29/57/11 31/56/11 27/55/11 32/54/11 28/53/11 36/45/11 38/44/11 34/43/11 39/42/11 35/41/11 37/40/11
f 51/79/11 52/61/11 56/80/11 55/81/11
f 50/62/11 49/82/11 53/83/11 54/84/11
f 51/79/11 49/82/11 50/62/11 52/61/11
f 43/67/10 36/75/10 51/79/10 55/81/10
f 44/85/20 43/86/20 55/87/20 56/88/20
f 36/75/10 28/89/10 49/82/10 51/79/10
f 28/90/10 41/76/10 53/91/10 49/92/10
f 40/60/16 44/68/16 56/80/16 52/61/16
f 57/78/21 58/77/21 60/93/21 59/94/21
f 54/84/11 53/83/11 59/95/11 60/96/11
f 53/91/22 41/76/22 57/78/22 59/94/22
f 42/63/23 54/66/23 60/93/23 58/77/23
f 30/64/19 42/63/19 41/76/19 28/90/19
f 29/97/24 35/98/24 72/99/24 70/100/24
f 62/101/25 29/102/25 70/103/25 74/104/25
f 63/105/17 64/106/17 66/107/17 65/108/17
f 67/109/26 65/110/26 85/111/26 87/112/26
f 35/98/27 68/113/27 66/114/27 64/115/27
f 63/116/28 65/110/28 67/109/28 37/117/28
f 61/118/19 62/101/19 78/119/19 77/120/19
f 71/121/11 72/99/11 76/122/11 75/123/11
f 70/100/11 69/124/11 73/125/11 74/126/11
f 71/121/11 69/124/11 70/100/11 72/99/11
f 63/116/29 37/117/29 71/121/29 75/123/29
f 37/117/30 33/127/30 69/124/30 71/121/30
f 33/128/31 61/118/31 73/129/31 69/130/31
f 35/98/32 64/115/32 76/122/32 72/99/32
f 77/120/21 78/119/21 80/131/21 79/132/21
f 74/126/11 73/125/11 79/133/11 80/134/11
f 73/129/22 61/118/22 77/120/22 79/132/22
f 62/101/23 74/104/23 80/131/23 78/119/23
f 29/102/19 62/101/19 61/118/19 33/128/19
f 63/116/20 75/123/20 76/122/20 64/115/20
f 81/72/19 82/135/19 84/136/19 83/73/19
f 48/137/33 47/138/33 83/139/33 84/140/33
f 46/69/34 48/74/34 84/136/34 82/135/34
f 45/70/35 46/69/35 82/135/35 81/72/35
f 85/111/19 86/141/19 88/142/19 87/112/19
f 68/143/36 67/144/36 87/145/36 88/146/36
f 66/114/37 68/113/37 88/142/37 86/141/37
f 65/108/38 66/107/38 86/147/38 85/148/38
f 17/149/39 18/150/39 89/26/39 90/25/39
