# Blender v2.83.5 OBJ File: 'tablebowl01.blend'
# www.blender.org
mtllib tablebowl01.mtl
o Cylinder.001_Cylinder
v 0.000000 -0.003431 -0.045880
v 0.000000 0.018538 -0.059042
v 0.017558 -0.003431 -0.042388
v 0.022594 0.018538 -0.054548
v 0.032442 -0.003431 -0.032442
v 0.041749 0.018538 -0.041749
v 0.042388 -0.003431 -0.017558
v 0.054548 0.018538 -0.022594
v 0.045880 -0.003431 0.000000
v 0.059042 0.018538 0.000000
v 0.042388 -0.003431 0.017558
v 0.054548 0.018538 0.022594
v 0.032442 -0.003431 0.032442
v 0.041749 0.018538 0.041749
v 0.017558 -0.003431 0.042388
v 0.022594 0.018538 0.054548
v 0.000000 -0.003431 0.045880
v 0.000000 0.018538 0.059042
v -0.017557 -0.003431 0.042388
v -0.022594 0.018538 0.054548
v -0.032442 -0.003431 0.032442
v -0.041749 0.018538 0.041749
v -0.042388 -0.003431 0.017558
v -0.054547 0.018538 0.022594
v -0.045880 -0.003431 0.000000
v -0.059042 0.018538 0.000000
v -0.042388 -0.003431 -0.017558
v -0.054547 0.018538 -0.022594
v -0.032442 -0.003431 -0.032442
v -0.041749 0.018538 -0.041749
v -0.017557 -0.003431 -0.042388
v -0.022594 0.018538 -0.054548
v 0.000000 0.057708 -0.073125
v 0.027984 0.057708 -0.067559
v 0.051707 0.057708 -0.051707
v 0.067559 0.057708 -0.027984
v 0.073125 0.057708 0.000000
v 0.067559 0.057708 0.027984
v 0.051707 0.057708 0.051707
v 0.027984 0.057708 0.067559
v 0.000000 0.057708 0.073125
v -0.027984 0.057708 0.067559
v -0.051707 0.057708 0.051707
v -0.067559 0.057708 0.027984
v -0.073125 0.057708 0.000000
v -0.067559 0.057708 -0.027984
v -0.051707 0.057708 -0.051707
v -0.027984 0.057708 -0.067559
v 0.000000 0.057708 -0.062496
v 0.023916 0.057708 -0.057739
v 0.044191 0.057708 -0.044191
v 0.057739 0.057708 -0.023916
v 0.062496 0.057708 0.000000
v 0.057739 0.057708 0.023916
v 0.044191 0.057708 0.044191
v 0.023916 0.057708 0.057739
v 0.000000 0.057708 0.062496
v -0.023916 0.057708 0.057739
v -0.044191 0.057708 0.044191
v -0.057739 0.057708 0.023916
v -0.062496 0.057708 0.000000
v -0.057739 0.057708 -0.023916
v -0.044191 0.057708 -0.044191
v -0.023916 0.057708 -0.057739
v 0.000000 0.002665 -0.043997
v 0.016837 0.002665 -0.040648
v 0.031111 0.002665 -0.031111
v 0.040648 0.002665 -0.016837
v 0.043997 0.002665 0.000000
v 0.040648 0.002665 0.016837
v 0.031111 0.002665 0.031111
v 0.016837 0.002665 0.040648
v 0.000000 0.002665 0.043997
v -0.016837 0.002665 0.040648
v -0.031111 0.002665 0.031111
v -0.040648 0.002665 0.016837
v -0.043997 0.002665 0.000000
v -0.040648 0.002665 -0.016837
v -0.031111 0.002665 -0.031111
v -0.016837 0.002665 -0.040648
vt 0.560924 0.781075
vt 0.560924 0.794376
vt 0.559261 0.794376
vt 0.559261 0.781075
vt 0.557598 0.794376
vt 0.557598 0.781075
vt 0.555936 0.794376
vt 0.555936 0.781075
vt 0.554273 0.794376
vt 0.554273 0.781075
vt 0.552610 0.794376
vt 0.552610 0.781075
vt 0.550947 0.794376
vt 0.550947 0.781075
vt 0.549285 0.794376
vt 0.549285 0.781075
vt 0.547622 0.794376
vt 0.547622 0.781075
vt 0.545959 0.794376
vt 0.545959 0.781075
vt 0.544297 0.794376
vt 0.544297 0.781075
vt 0.542634 0.794376
vt 0.542634 0.781075
vt 0.540971 0.794376
vt 0.540971 0.781075
vt 0.539309 0.794376
vt 0.539309 0.781075
vt 0.537646 0.794376
vt 0.537646 0.781075
vt 0.559261 0.794376
vt 0.557598 0.794376
vt 0.535983 0.794376
vt 0.535983 0.781075
vt 0.534321 0.794376
vt 0.534321 0.781075
vt 0.554273 0.780809
vt 0.556716 0.780323
vt 0.558788 0.778939
vt 0.560172 0.776867
vt 0.560658 0.774424
vt 0.560172 0.771981
vt 0.558788 0.769909
vt 0.556716 0.768525
vt 0.554273 0.768039
vt 0.551830 0.768525
vt 0.549758 0.769909
vt 0.548374 0.771981
vt 0.547888 0.774424
vt 0.548374 0.776867
vt 0.549758 0.778939
vt 0.551830 0.780323
vt 0.544297 0.794376
vt 0.545959 0.794376
vt 0.545959 0.794376
vt 0.544297 0.794376
vt 0.550947 0.794376
vt 0.549285 0.794376
vt 0.542634 0.794376
vt 0.540971 0.794376
vt 0.554273 0.794376
vt 0.552610 0.794376
vt 0.537646 0.794376
vt 0.535983 0.794376
vt 0.555936 0.794376
vt 0.547622 0.794376
vt 0.560924 0.794376
vt 0.539309 0.794376
vt 0.534321 0.794376
vt 0.535983 0.794376
vt 0.537646 0.794376
vt 0.537646 0.794376
vt 0.535983 0.794376
vt 0.557598 0.794376
vt 0.555936 0.794376
vt 0.542634 0.794376
vt 0.554273 0.794376
vt 0.540971 0.794376
vt 0.552610 0.794376
vt 0.539309 0.794376
vt 0.550947 0.794376
vt 0.549285 0.794376
vt 0.547622 0.794376
vt 0.560924 0.794376
vt 0.559261 0.794376
vt 0.534321 0.794376
vt 0.543415 0.780323
vt 0.540971 0.780809
vt 0.538528 0.780323
vt 0.536457 0.778939
vt 0.535073 0.776867
vt 0.534587 0.774424
vt 0.535073 0.771981
vt 0.536457 0.769909
vt 0.538528 0.768525
vt 0.540971 0.768039
vt 0.543415 0.768525
vt 0.545486 0.769909
vt 0.546870 0.771981
vt 0.547356 0.774424
vt 0.546870 0.776867
vt 0.545486 0.778939
vt 0.549285 0.794376
vt 0.547622 0.794376
vt 0.560924 0.794376
vt 0.559261 0.794376
vt 0.534321 0.794376
vt 0.545959 0.794376
vt 0.557598 0.794376
vt 0.544297 0.794376
vt 0.555936 0.794376
vt 0.542634 0.794376
vt 0.554273 0.794376
vt 0.540971 0.794376
vt 0.552610 0.794376
vt 0.539309 0.794376
vt 0.550947 0.794376
vn 0.1682 -0.5066 -0.8456
vn 0.4790 -0.5066 -0.7169
vn 0.7169 -0.5066 -0.4790
vn 0.8456 -0.5066 -0.1682
vn 0.8456 -0.5066 0.1682
vn 0.7169 -0.5066 0.4790
vn 0.4790 -0.5066 0.7169
vn 0.1682 -0.5066 0.8456
vn -0.1682 -0.5066 0.8456
vn -0.4790 -0.5066 0.7169
vn -0.7169 -0.5066 0.4790
vn -0.8456 -0.5066 0.1682
vn -0.8456 -0.5066 -0.1682
vn -0.7169 -0.5066 -0.4790
vn 0.5239 -0.3326 -0.7841
vn -0.4790 -0.5066 -0.7169
vn -0.1682 -0.5066 -0.8456
vn 0.0000 -1.0000 0.0000
vn 0.0000 1.0000 0.0000
vn 0.5239 -0.3326 0.7841
vn -0.9250 -0.3326 0.1840
vn 0.9250 -0.3326 0.1840
vn -0.5239 -0.3326 0.7841
vn -0.5239 -0.3326 -0.7841
vn 0.7841 -0.3326 -0.5239
vn 0.1840 -0.3326 0.9250
vn 0.1840 -0.3326 -0.9250
vn -0.9250 -0.3326 -0.1840
vn 0.7841 -0.3326 0.5239
vn -0.7841 -0.3326 0.5239
vn -0.1840 -0.3326 -0.9250
vn 0.9250 -0.3326 -0.1840
vn -0.1840 -0.3326 0.9250
vn -0.7841 -0.3326 -0.5239
vn 0.5276 0.3131 0.7897
vn -0.1853 0.3131 -0.9315
vn -0.1853 0.3131 0.9315
vn 0.1853 0.3131 0.9315
vn 0.1853 0.3131 -0.9315
vn -0.5276 0.3131 0.7897
vn 0.5276 0.3131 -0.7897
vn -0.7897 0.3131 0.5276
vn 0.7897 0.3131 -0.5276
vn -0.9315 0.3131 0.1853
vn 0.9315 0.3131 -0.1853
vn -0.9315 0.3131 -0.1853
vn 0.9315 0.3131 0.1853
vn -0.7897 0.3131 -0.5276
vn 0.7897 0.3131 0.5276
vn -0.5276 0.3131 -0.7897
usemtl Material.002
s off
f 1/1/1 2/2/1 4/3/1 3/4/1
f 3/4/2 4/3/2 6/5/2 5/6/2
f 5/6/3 6/5/3 8/7/3 7/8/3
f 7/8/4 8/7/4 10/9/4 9/10/4
f 9/10/5 10/9/5 12/11/5 11/12/5
f 11/12/6 12/11/6 14/13/6 13/14/6
f 13/14/7 14/13/7 16/15/7 15/16/7
f 15/16/8 16/15/8 18/17/8 17/18/8
f 17/18/9 18/17/9 20/19/9 19/20/9
f 19/20/10 20/19/10 22/21/10 21/22/10
f 21/22/11 22/21/11 24/23/11 23/24/11
f 23/24/12 24/23/12 26/25/12 25/26/12
f 25/26/13 26/25/13 28/27/13 27/28/13
f 27/28/14 28/27/14 30/29/14 29/30/14
f 6/5/15 4/3/15 34/31/15 35/32/15
f 29/30/16 30/29/16 32/33/16 31/34/16
f 31/34/17 32/33/17 2/35/17 1/36/17
f 1/37/18 3/38/18 5/39/18 7/40/18 9/41/18 11/42/18 13/43/18 15/44/18 17/45/18 19/46/18 21/47/18 23/48/18 25/49/18 27/50/18 29/51/18 31/52/18
f 43/53/19 42/54/19 58/55/19 59/56/19
f 16/15/20 14/13/20 39/57/20 40/58/20
f 26/25/21 24/23/21 44/59/21 45/60/21
f 12/11/22 10/9/22 37/61/22 38/62/22
f 22/21/23 20/19/23 42/54/23 43/53/23
f 32/33/24 30/29/24 47/63/24 48/64/24
f 8/7/25 6/5/25 35/32/25 36/65/25
f 18/17/26 16/15/26 40/58/26 41/66/26
f 4/3/27 2/2/27 33/67/27 34/31/27
f 28/27/28 26/25/28 45/60/28 46/68/28
f 14/13/29 12/11/29 38/62/29 39/57/29
f 24/23/30 22/21/30 43/53/30 44/59/30
f 2/35/31 32/33/31 48/64/31 33/69/31
f 10/9/32 8/7/32 36/65/32 37/61/32
f 20/19/33 18/17/33 41/66/33 42/54/33
f 30/29/34 28/27/34 46/68/34 47/63/34
f 64/70/35 63/71/35 79/72/35 80/73/35
f 36/65/19 35/32/19 51/74/19 52/75/19
f 44/59/19 43/53/19 59/56/19 60/76/19
f 37/61/19 36/65/19 52/75/19 53/77/19
f 45/60/19 44/59/19 60/76/19 61/78/19
f 38/62/19 37/61/19 53/77/19 54/79/19
f 46/68/19 45/60/19 61/78/19 62/80/19
f 39/57/19 38/62/19 54/79/19 55/81/19
f 47/63/19 46/68/19 62/80/19 63/71/19
f 40/58/19 39/57/19 55/81/19 56/82/19
f 48/64/19 47/63/19 63/71/19 64/70/19
f 41/66/19 40/58/19 56/82/19 57/83/19
f 34/31/19 33/67/19 49/84/19 50/85/19
f 33/69/19 48/64/19 64/70/19 49/86/19
f 42/54/19 41/66/19 57/83/19 58/55/19
f 35/32/19 34/31/19 50/85/19 51/74/19
f 66/87/19 65/88/19 80/89/19 79/90/19 78/91/19 77/92/19 76/93/19 75/94/19 74/95/19 73/96/19 72/97/19 71/98/19 70/99/19 69/100/19 68/101/19 67/102/19
f 57/83/36 56/82/36 72/103/36 73/104/36
f 50/85/37 49/84/37 65/105/37 66/106/37
f 49/86/38 64/70/38 80/73/38 65/107/38
f 58/55/39 57/83/39 73/104/39 74/108/39
f 51/74/40 50/85/40 66/106/40 67/109/40
f 59/56/41 58/55/41 74/108/41 75/110/41
f 52/75/42 51/74/42 67/109/42 68/111/42
f 60/76/43 59/56/43 75/110/43 76/112/43
f 53/77/44 52/75/44 68/111/44 69/113/44
f 61/78/45 60/76/45 76/112/45 77/114/45
f 54/79/46 53/77/46 69/113/46 70/115/46
f 62/80/47 61/78/47 77/114/47 78/116/47
f 55/81/48 54/79/48 70/115/48 71/117/48
f 63/71/49 62/80/49 78/116/49 79/72/49
f 56/82/50 55/81/50 71/117/50 72/103/50
