# Blender v2.83.5 OBJ File: 'tablecupchampagneglass01.blend'
# www.blender.org
mtllib tablecupchampagneglass01.mtl
o Cylinder_Cylinder.001
v -0.002748 0.000700 -0.033897
v -0.002748 0.002863 -0.033897
v 0.021221 0.000700 -0.023969
v 0.021221 0.002863 -0.023969
v 0.031149 0.000700 -0.000000
v 0.031149 0.002863 -0.000000
v 0.021221 0.000700 0.023969
v 0.021221 0.002863 0.023969
v -0.002748 0.000700 0.033897
v -0.002748 0.002863 0.033897
v -0.026717 0.000700 0.023969
v -0.026717 0.002863 0.023969
v -0.036645 0.000700 -0.000000
v -0.036645 0.002863 -0.000000
v -0.026717 0.000700 -0.023969
v -0.026717 0.002863 -0.023969
v -0.002748 0.014648 -0.006451
v 0.001814 0.014648 -0.004562
v 0.003703 0.014648 -0.000000
v 0.001814 0.014648 0.004561
v -0.002748 0.014648 0.006451
v -0.007309 0.014648 0.004561
v -0.009199 0.014648 -0.000000
v -0.007309 0.014648 -0.004562
v -0.002748 0.053145 -0.006451
v 0.001814 0.053145 -0.004562
v 0.003703 0.053145 -0.000000
v 0.001814 0.053145 0.004561
v -0.002748 0.053145 0.006451
v -0.007309 0.053145 0.004561
v -0.009199 0.053145 -0.000000
v -0.007309 0.053145 -0.004562
v -0.002748 0.081755 -0.025882
v 0.015553 0.081755 -0.018301
v 0.023134 0.081755 -0.000000
v 0.015553 0.081755 0.018301
v -0.002748 0.081755 0.025882
v -0.021049 0.081755 0.018301
v -0.028630 0.081755 -0.000000
v -0.021049 0.081755 -0.018301
v -0.002748 0.165971 -0.024589
v 0.014639 0.165971 -0.017387
v 0.021841 0.165971 -0.000000
v 0.014639 0.165971 0.017387
v -0.002748 0.165971 0.024589
v -0.020135 0.165971 0.017387
v -0.027337 0.165971 -0.000000
v -0.020135 0.165971 -0.017387
v -0.002748 0.165971 -0.023373
v 0.013779 0.165971 -0.016527
v 0.020625 0.165971 -0.000000
v 0.013779 0.165971 0.016527
v -0.002748 0.165971 0.023373
v -0.019275 0.165971 0.016527
v -0.026121 0.165971 -0.000000
v -0.019275 0.165971 -0.016527
v -0.002748 0.082052 -0.024127
v 0.014312 0.082052 -0.017060
v 0.021379 0.082052 -0.000000
v 0.014312 0.082052 0.017060
v -0.002748 0.082052 0.024127
v -0.019808 0.082052 0.017060
v -0.026874 0.082052 -0.000000
v -0.019808 0.082052 -0.017060
v -0.002748 0.059623 -0.008734
v 0.003428 0.059623 -0.006176
v 0.005986 0.059623 -0.000000
v 0.003428 0.059623 0.006176
v -0.002748 0.059623 0.008734
v -0.008924 0.059623 0.006176
v -0.011482 0.059623 -0.000000
v -0.008924 0.059623 -0.006176
vt 0.434411 0.776876
vt 0.434411 0.789286
vt 0.431308 0.789286
vt 0.431308 0.776876
vt 0.428205 0.789286
vt 0.428205 0.776876
vt 0.425103 0.789286
vt 0.425103 0.776876
vt 0.422000 0.789286
vt 0.422000 0.776876
vt 0.418897 0.789286
vt 0.418897 0.776876
vt 0.415795 0.789286
vt 0.415795 0.776876
vt 0.431308 0.789286
vt 0.428205 0.789286
vt 0.412692 0.789286
vt 0.412692 0.776876
vt 0.409590 0.789286
vt 0.409590 0.776876
vt 0.428205 0.776628
vt 0.432418 0.774883
vt 0.434162 0.770671
vt 0.432418 0.766458
vt 0.428205 0.764714
vt 0.423993 0.766458
vt 0.422248 0.770671
vt 0.423993 0.774883
vt 0.422000 0.789286
vt 0.425103 0.789286
vt 0.425103 0.789286
vt 0.422000 0.789286
vt 0.418897 0.789286
vt 0.412692 0.789286
vt 0.409590 0.789286
vt 0.434411 0.789286
vt 0.415795 0.789286
vt 0.409590 0.789286
vt 0.412692 0.789286
vt 0.412692 0.789286
vt 0.409590 0.789286
vt 0.431308 0.789286
vt 0.428205 0.789286
vt 0.415795 0.789286
vt 0.418897 0.789286
vt 0.434411 0.789286
vt 0.418897 0.789286
vt 0.422000 0.789286
vt 0.422000 0.789286
vt 0.418897 0.789286
vt 0.415795 0.789286
vt 0.425103 0.789286
vt 0.431308 0.789286
vt 0.428205 0.789286
vt 0.434411 0.789286
vt 0.412692 0.789286
vt 0.415795 0.789286
vt 0.415795 0.789286
vt 0.412692 0.789286
vt 0.428205 0.789286
vt 0.425103 0.789286
vt 0.434411 0.789286
vt 0.431308 0.789286
vt 0.409590 0.789286
vt 0.418897 0.789286
vt 0.418897 0.789286
vt 0.415795 0.789286
vt 0.422000 0.789286
vt 0.428205 0.789286
vt 0.425103 0.789286
vt 0.434411 0.789286
vt 0.431308 0.789286
vt 0.409590 0.789286
vt 0.431308 0.789286
vt 0.434411 0.789286
vt 0.434411 0.789286
vt 0.431308 0.789286
vt 0.425103 0.789286
vt 0.422000 0.789286
vt 0.428205 0.789286
vt 0.412692 0.789286
vt 0.409590 0.789286
vt 0.420007 0.774883
vt 0.415795 0.776628
vt 0.411583 0.774883
vt 0.409838 0.770671
vt 0.411583 0.766458
vt 0.415795 0.764714
vt 0.420007 0.766458
vt 0.421752 0.770671
vt 0.412692 0.789286
vt 0.409590 0.789286
vt 0.418897 0.789286
vt 0.415795 0.789286
vt 0.425103 0.789286
vt 0.422000 0.789286
vt 0.428205 0.789286
vn 0.3827 -0.0000 -0.9239
vn 0.9239 -0.0000 -0.3827
vn 0.9239 -0.0000 0.3827
vn 0.3827 -0.0000 0.9239
vn -0.3827 0.0000 0.9239
vn -0.9239 0.0000 0.3827
vn 0.3894 0.9068 -0.1613
vn -0.9239 0.0000 -0.3827
vn -0.3827 0.0000 -0.9239
vn 0.0000 -1.0000 -0.0000
vn -0.1613 0.9068 0.3894
vn -0.1613 0.9068 -0.3894
vn 0.1613 0.9068 -0.3894
vn 0.3894 0.9068 0.1613
vn -0.3894 0.9068 0.1613
vn 0.1613 0.9068 0.3894
vn -0.3894 0.9068 -0.1613
vn -0.3242 -0.5315 -0.7826
vn -0.3826 0.0142 0.9238
vn -0.7826 -0.5315 0.3242
vn 0.3242 -0.5315 0.7826
vn 0.7826 -0.5315 -0.3242
vn -0.7826 -0.5315 -0.3242
vn -0.3242 -0.5315 0.7826
vn 0.7826 -0.5315 0.3242
vn 0.3242 -0.5315 -0.7826
vn 0.0000 1.0000 0.0000
vn 0.9238 0.0142 0.3826
vn 0.3826 0.0142 -0.9238
vn -0.3826 0.0142 -0.9238
vn -0.9238 0.0142 0.3826
vn 0.3826 0.0142 0.9238
vn 0.9238 0.0142 -0.3826
vn -0.9238 0.0142 -0.3826
vn 0.9238 -0.0083 -0.3827
vn -0.3232 0.5355 0.7803
vn -0.3827 -0.0083 -0.9238
vn -0.9238 -0.0083 0.3827
vn 0.9238 -0.0083 0.3827
vn 0.3827 -0.0083 -0.9238
vn -0.9238 -0.0083 -0.3827
vn -0.3827 -0.0083 0.9238
vn 0.3827 -0.0083 0.9238
vn 0.3232 0.5355 0.7803
vn 0.7803 0.5355 -0.3232
vn -0.3232 0.5355 -0.7803
vn -0.7803 0.5355 0.3232
vn 0.7803 0.5355 0.3232
vn 0.3232 0.5355 -0.7803
vn -0.7803 0.5355 -0.3232
usemtl Material.002
s off
f 1/1/1 2/2/1 4/3/1 3/4/1
f 3/4/2 4/3/2 6/5/2 5/6/2
f 5/6/3 6/5/3 8/7/3 7/8/3
f 7/8/4 8/7/4 10/9/4 9/10/4
f 9/10/5 10/9/5 12/11/5 11/12/5
f 11/12/6 12/11/6 14/13/6 13/14/6
f 6/5/7 4/3/7 18/15/7 19/16/7
f 13/14/8 14/13/8 16/17/8 15/18/8
f 15/18/9 16/17/9 2/19/9 1/20/9
f 1/21/10 3/22/10 5/23/10 7/24/10 9/25/10 11/26/10 13/27/10 15/28/10
f 21/29/4 20/30/4 28/31/4 29/32/4
f 12/11/11 10/9/11 21/29/11 22/33/11
f 2/19/12 16/17/12 24/34/12 17/35/12
f 4/3/13 2/2/13 17/36/13 18/15/13
f 8/7/14 6/5/14 19/16/14 20/30/14
f 14/13/15 12/11/15 22/33/15 23/37/15
f 10/9/16 8/7/16 20/30/16 21/29/16
f 16/17/17 14/13/17 23/37/17 24/34/17
f 25/38/18 32/39/18 40/40/18 33/41/18
f 19/16/2 18/15/2 26/42/2 27/43/2
f 24/34/8 23/37/8 31/44/8 32/39/8
f 22/33/5 21/29/5 29/32/5 30/45/5
f 20/30/3 19/16/3 27/43/3 28/31/3
f 18/15/1 17/36/1 25/46/1 26/42/1
f 17/35/9 24/34/9 32/39/9 25/38/9
f 23/37/6 22/33/6 30/45/6 31/44/6
f 38/47/19 37/48/19 45/49/19 46/50/19
f 31/44/20 30/45/20 38/47/20 39/51/20
f 29/32/21 28/31/21 36/52/21 37/48/21
f 27/43/22 26/42/22 34/53/22 35/54/22
f 32/39/23 31/44/23 39/51/23 40/40/23
f 30/45/24 29/32/24 37/48/24 38/47/24
f 28/31/25 27/43/25 35/54/25 36/52/25
f 26/42/26 25/46/26 33/55/26 34/53/26
f 48/56/27 47/57/27 55/58/27 56/59/27
f 36/52/28 35/54/28 43/60/28 44/61/28
f 34/53/29 33/55/29 41/62/29 42/63/29
f 33/41/30 40/40/30 48/56/30 41/64/30
f 39/51/31 38/47/31 46/50/31 47/57/31
f 37/48/32 36/52/32 44/61/32 45/49/32
f 35/54/33 34/53/33 42/63/33 43/60/33
f 40/40/34 39/51/34 47/57/34 48/56/34
f 55/58/35 54/65/35 62/66/35 63/67/35
f 46/50/27 45/49/27 53/68/27 54/65/27
f 44/61/27 43/60/27 51/69/27 52/70/27
f 42/63/27 41/62/27 49/71/27 50/72/27
f 41/64/27 48/56/27 56/59/27 49/73/27
f 47/57/27 46/50/27 54/65/27 55/58/27
f 45/49/27 44/61/27 52/70/27 53/68/27
f 43/60/27 42/63/27 50/72/27 51/69/27
f 58/74/36 57/75/36 65/76/36 66/77/36
f 53/68/37 52/70/37 60/78/37 61/79/37
f 51/69/38 50/72/38 58/74/38 59/80/38
f 56/59/39 55/58/39 63/67/39 64/81/39
f 54/65/40 53/68/40 61/79/40 62/66/40
f 52/70/41 51/69/41 59/80/41 60/78/41
f 50/72/42 49/71/42 57/75/42 58/74/42
f 49/73/43 56/59/43 64/81/43 57/82/43
f 66/83/27 65/84/27 72/85/27 71/86/27 70/87/27 69/88/27 68/89/27 67/90/27
f 57/82/44 64/81/44 72/91/44 65/92/44
f 63/67/45 62/66/45 70/93/45 71/94/45
f 61/79/46 60/78/46 68/95/46 69/96/46
f 59/80/47 58/74/47 66/77/47 67/97/47
f 64/81/48 63/67/48 71/94/48 72/91/48
f 62/66/49 61/79/49 69/96/49 70/93/49
f 60/78/50 59/80/50 67/97/50 68/95/50
