# Blender v2.83.5 OBJ File: 'tablefork01.blend'
# www.blender.org
mtllib tablefork01.mtl
o Cube_Cube.001
v -0.097663 0.001829 0.005204
v -0.000000 -0.000070 0.005204
v 0.000000 0.003729 0.005204
v -0.000000 0.001829 0.005204
v -0.000000 0.000873 0.004245
v 0.000000 0.002786 0.004245
v -0.097663 0.001829 -0.007117
v 0.000000 -0.000070 -0.007117
v -0.000000 0.003729 -0.007117
v -0.000000 0.002779 -0.006154
v 0.000000 0.000880 -0.006154
v 0.000319 0.000888 0.002392
v -0.000000 0.001380 0.005204
v -0.000000 0.002279 0.005204
v -0.077706 -0.000070 -0.007117
v -0.097663 0.000928 -0.007117
v -0.097413 -0.000070 -0.006119
v -0.077706 0.003729 -0.007117
v -0.097413 0.003729 -0.006119
v -0.097663 0.002731 -0.007117
v -0.097413 -0.000070 0.004206
v -0.097663 0.000928 0.005204
v -0.077706 -0.000070 0.005204
v -0.077706 0.003729 0.005204
v -0.097663 0.002731 0.005204
v -0.097413 0.003729 0.004206
v 0.000319 0.000895 -0.004300
v 0.000319 0.002764 -0.004300
v 0.000319 0.002771 0.002392
v 0.000000 0.001829 -0.007117
v 0.000000 0.000880 -0.007117
v -0.000000 0.002779 -0.007117
v 0.052019 0.000829 0.002302
v 0.052019 0.000835 -0.004226
v 0.052019 0.002659 -0.004226
v 0.052019 0.002666 0.002302
v 0.056253 0.000071 0.008641
v 0.056253 0.000083 -0.010516
v 0.056253 0.003412 -0.010516
v 0.056253 0.003423 0.008641
v 0.092674 0.003883 0.006675
v 0.092674 0.003884 -0.008242
v 0.092674 0.004228 -0.008242
v 0.092674 0.004229 0.006675
v 0.092674 0.004229 0.000779
v 0.092674 0.003883 0.000779
v 0.092674 0.004228 -0.004224
v 0.092674 0.003884 -0.004224
v 0.092674 0.004229 0.002470
v 0.092674 0.003883 0.002470
v 0.092674 0.004228 -0.007078
v 0.092674 0.003884 -0.007078
v 0.092674 0.004228 -0.002756
v 0.092674 0.003884 -0.002756
v 0.092674 0.004229 0.005212
v 0.092674 0.003883 0.005212
v 0.063946 0.001952 -0.005149
v 0.063946 0.000080 -0.005149
v 0.063946 0.001950 -0.007833
v 0.063946 0.000081 -0.007833
v 0.056253 0.000077 -0.000962
v 0.056253 0.000080 -0.005149
v 0.056253 0.000074 0.003274
v 0.056253 0.003418 -0.000962
v 0.056253 0.003415 -0.005149
v 0.056253 0.003421 0.003274
v 0.063958 0.001955 0.000508
v 0.063958 0.000077 0.000508
v 0.063958 0.001953 -0.002465
v 0.063958 0.000078 -0.002465
v 0.063982 0.001957 0.003274
v 0.063982 0.000074 0.003274
v 0.063982 0.001959 0.005958
v 0.063982 0.000073 0.005958
vt 0.471004 0.905695
vt 0.471004 0.914780
vt 0.477817 0.919322
vt 0.461918 0.887524
vt 0.461918 0.887524
vt 0.461918 0.887524
vt 0.461918 0.887524
vt 0.461918 0.887524
vt 0.489174 0.905695
vt 0.489174 0.914780
vt 0.492980 0.914780
vt 0.493716 0.914101
vt 0.493716 0.906373
vt 0.492980 0.905695
vt 0.475546 0.897346
vt 0.475546 0.901152
vt 0.477817 0.901152
vt 0.480089 0.901152
vt 0.480089 0.896609
vt 0.477932 0.896609
vt 0.484631 0.919322
vt 0.482245 0.896609
vt 0.484631 0.895931
vt 0.484631 0.888203
vt 0.482245 0.887524
vt 0.482360 0.901152
vt 0.484631 0.901152
vt 0.484631 0.897346
vt 0.482360 0.901152
vt 0.461918 0.887524
vt 0.461918 0.887524
vt 0.480089 0.919322
vt 0.480089 0.919322
vt 0.482360 0.919322
vt 0.466461 0.906373
vt 0.467198 0.905695
vt 0.466461 0.905695
vt 0.493716 0.905695
vt 0.466461 0.914101
vt 0.467198 0.914780
vt 0.480089 0.887524
vt 0.477932 0.887524
vt 0.475546 0.888203
vt 0.475546 0.895931
vt 0.480089 0.919322
vt 0.477817 0.919322
vt 0.461918 0.887524
vt 0.482360 0.901152
vt 0.475546 0.919322
vt 0.475546 0.923128
vt 0.477932 0.923865
vt 0.480089 0.923865
vt 0.477817 0.919322
vt 0.482245 0.923865
vt 0.484631 0.923128
vt 0.466461 0.914780
vt 0.484631 0.923865
vt 0.461918 0.887524
vt 0.414261 0.971739
vt 0.414270 0.971756
vt 0.414270 0.971756
vt 0.414261 0.971739
vt 0.414271 0.971756
vt 0.414271 0.971756
vt 0.414272 0.971746
vt 0.414272 0.971746
vt 0.414261 0.971739
vt 0.414261 0.971739
vt 0.414271 0.971756
vt 0.414270 0.971756
vt 0.414261 0.971739
vt 0.414272 0.971746
vt 0.414268 0.971752
vt 0.414265 0.971747
vt 0.414263 0.971743
vt 0.414261 0.971739
vt 0.414261 0.971739
vt 0.414261 0.971739
vt 0.414261 0.971739
vt 0.414270 0.971756
vt 0.414270 0.971756
vt 0.414261 0.971739
vt 0.414268 0.971752
vt 0.414268 0.971752
vt 0.414261 0.971739
vt 0.414261 0.971739
vt 0.414261 0.971739
vt 0.414269 0.971754
vt 0.414261 0.971739
vt 0.414267 0.971750
vt 0.414261 0.971739
vt 0.414265 0.971747
vt 0.414265 0.971747
vt 0.414261 0.971739
vt 0.414261 0.971739
vt 0.414263 0.971743
vt 0.414261 0.971739
vt 0.414261 0.971739
vt 0.414261 0.971739
vt 0.414262 0.971741
vt 0.414261 0.971739
vt 0.414269 0.971754
vt 0.407888 0.958881
vt 0.407888 0.958881
vt 0.407888 0.958881
vt 0.407888 0.958881
vt 0.414261 0.971739
vt 0.414267 0.971750
vt 0.414261 0.971739
vt 0.414261 0.971739
vt 0.414262 0.971741
vt 0.414263 0.971743
vt 0.407888 0.958881
vn 1.0000 -0.0000 0.0000
vn 0.0471 0.9989 -0.0007
vn 0.0000 1.0000 0.0000
vn 0.0000 0.0000 1.0000
vn -0.9698 0.2437 0.0000
vn -0.0356 -0.7111 0.7022
vn -0.0356 0.7111 0.7022
vn -0.0000 -1.0000 0.0000
vn -1.0000 0.0000 0.0000
vn -0.9698 -0.2437 0.0000
vn 0.9855 0.0000 -0.1696
vn 0.0471 -0.9989 -0.0007
vn 0.9855 -0.0000 0.1696
vn 0.0000 0.0000 -1.0000
vn -0.0356 -0.7111 -0.7022
vn -0.0356 0.7111 -0.7022
vn -0.0011 -1.0000 -0.0009
vn 0.0014 0.0000 -1.0000
vn 0.0017 0.0000 1.0000
vn 0.0020 1.0000 -0.0009
vn -0.8296 0.0000 -0.5584
vn -0.8316 0.0000 0.5554
vn -0.1756 -0.9845 -0.0007
vn -0.1756 0.9845 -0.0007
vn 0.0623 0.0000 -0.9981
vn 0.0322 0.0000 -0.9995
vn 0.0094 0.0000 -1.0000
vn 0.0539 0.0000 0.9985
vn -0.0263 0.0000 0.9997
vn -0.0635 0.8842 0.4627
vn 0.1237 -0.9609 -0.2476
vn 0.0000 -1.0000 -0.0005
vn 0.1869 0.9824 -0.0005
vn 0.1313 -0.9913 -0.0008
vn 0.0101 0.0000 0.9999
vn -0.0790 0.9969 -0.0001
vn 0.0280 0.0000 0.9996
vn -0.0260 0.0000 -0.9997
vn -0.0605 0.9004 -0.4308
vn 0.1860 0.9825 -0.0005
vn 0.1864 0.9825 -0.0014
vn 0.1867 0.9824 -0.0005
vn 0.1867 0.9824 -0.0009
vn -0.0789 0.9969 -0.0002
vn 0.1315 -0.9913 -0.0014
vn 0.1226 -0.9659 0.2281
vn 0.0001 -1.0000 -0.0008
vn 0.0001 -1.0000 -0.0005
vn 0.0000 -1.0000 -0.0006
usemtl Material.001
s off
f 2/1/1 8/2/1 11/3/1 5/4/1
f 10/5/2 6/6/2 29/7/2 28/8/2
f 3/9/3 9/10/3 18/11/3 19/12/3 26/13/3 24/14/3
f 23/15/4 2/16/4 13/17/4 4/18/4 1/19/4 22/20/4
f 6/6/1 10/5/1 9/21/1 3/9/1
f 25/22/5 26/23/5 19/24/5 20/25/5
f 1/19/4 4/18/4 14/26/4 3/27/4 24/28/4 25/22/4
f 14/26/1 4/18/1 13/17/1 5/4/1 6/29/1
f 5/4/1 13/30/1 2/1/1
f 3/9/1 14/31/1 6/6/1
f 10/32/1 30/33/1 32/34/1
f 21/35/6 23/36/6 22/37/6
f 24/14/7 26/13/7 25/38/7
f 21/35/8 17/39/8 15/40/8 8/2/8 2/1/8 23/36/8
f 1/19/9 25/22/9 20/25/9 7/41/9
f 16/42/9 22/20/9 1/19/9 7/41/9
f 17/43/10 21/44/10 22/20/10 16/42/10
f 11/3/11 10/32/11 28/45/11 27/46/11
f 5/4/12 11/3/12 27/46/12 12/47/12
f 6/29/13 5/4/13 12/47/13 29/48/13
f 8/49/14 15/50/14 16/51/14 7/52/14 30/33/14 31/53/14
f 30/33/14 7/52/14 20/54/14 18/55/14 9/21/14 32/34/14
f 15/40/15 17/39/15 16/56/15
f 18/55/16 20/54/16 19/57/16
f 11/3/1 31/53/1 30/33/1 10/32/1
f 10/5/1 32/58/1 9/21/1
f 8/2/1 31/53/1 11/3/1
f 12/59/17 27/60/17 34/61/17 33/62/17
f 27/60/18 28/63/18 35/64/18 34/61/18
f 29/65/19 12/59/19 33/62/19 36/66/19
f 28/67/20 29/65/20 36/66/20 35/68/20
f 34/61/21 35/64/21 39/69/21 38/70/21
f 36/66/22 33/62/22 37/71/22 40/72/22
f 33/62/23 34/61/23 38/70/23 62/73/23 61/74/23 63/75/23 37/71/23
f 35/68/24 36/66/24 40/72/24 66/76/24 64/77/24 65/78/24 39/79/24
f 38/70/25 39/69/25 43/80/25 42/81/25
f 47/82/26 48/83/26 58/84/26 57/85/26
f 43/86/1 51/87/1 52/88/1 42/81/1
f 47/82/1 53/89/1 54/90/1 48/83/1
f 45/91/27 46/92/27 68/93/27 67/94/27
f 45/91/1 49/95/1 50/96/1 46/92/1
f 55/97/1 44/98/1 41/99/1 56/100/1
f 40/72/28 37/71/28 41/99/28 44/98/28
f 59/101/1 57/85/1 58/84/1 60/102/1
f 52/88/29 51/87/29 59/101/29 60/102/29
f 59/103/30 51/104/30 43/105/30 39/106/30
f 52/88/31 60/102/31 38/70/31 42/81/31
f 38/70/32 60/102/32 58/84/32 62/73/32
f 39/106/33 65/78/33 57/85/33 59/103/33
f 69/107/1 67/94/1 68/93/1 70/108/1
f 54/90/34 70/108/34 58/84/34 48/83/34
f 54/90/35 53/89/35 69/107/35 70/108/35
f 53/89/36 47/82/36 57/85/36 69/107/36
f 71/109/1 73/110/1 74/111/1 72/112/1
f 50/96/37 49/95/37 71/109/37 72/112/37
f 55/97/38 56/100/38 74/111/38 73/110/38
f 44/98/39 55/97/39 73/110/39 40/72/39
f 66/76/40 40/72/40 73/110/40 71/109/40
f 66/76/41 71/109/41 67/113/41 64/77/41
f 69/107/42 64/77/42 67/113/42
f 57/85/43 65/78/43 64/77/43 69/107/43
f 67/113/44 71/109/44 49/95/44 45/91/44
f 50/96/45 72/112/45 68/93/45 46/92/45
f 41/99/46 37/71/46 74/111/46 56/100/46
f 63/75/32 72/112/32 74/111/32 37/71/32
f 63/75/47 61/74/47 68/93/47 72/112/47
f 68/93/48 61/74/48 70/108/48
f 58/84/49 70/108/49 61/74/49 62/73/49
