# Blender v2.83.5 OBJ File: 'tablespoon-01.blend'
# www.blender.org
mtllib tablespoon-01.mtl
o Cylinder_Cylinder.001
v 0.078394 0.003333 -0.013707
v 0.078394 0.003782 -0.013707
v 0.088523 0.003333 -0.011100
v 0.088523 0.003782 -0.011100
v 0.094783 0.003333 -0.004275
v 0.094783 0.003782 -0.004275
v 0.094783 0.003333 0.004161
v 0.094783 0.003782 0.004161
v 0.088523 0.003333 0.010986
v 0.088523 0.003782 0.010986
v 0.078394 0.003333 0.013593
v 0.078394 0.003782 0.013593
v 0.059693 0.003104 0.012329
v 0.059693 0.004010 0.012329
v 0.044873 0.000385 0.004250
v 0.044873 0.002815 0.004250
v 0.044873 0.000393 -0.004390
v 0.044873 0.002807 -0.004390
v 0.059693 0.003104 -0.012444
v 0.059693 0.004010 -0.012444
v -0.097663 0.001829 0.006097
v -0.000000 -0.000070 0.006097
v 0.000000 0.003729 0.006097
v 0.000000 0.001829 0.006097
v -0.000000 0.000873 0.005138
v 0.000000 0.002786 0.005138
v -0.097663 0.001829 -0.006224
v 0.000000 -0.000070 -0.006224
v -0.000000 0.003729 -0.006224
v -0.000000 0.002779 -0.005260
v 0.000000 0.000880 -0.005260
v 0.000319 0.000888 0.003285
v 0.000000 0.001380 0.006097
v 0.000000 0.002279 0.006097
v -0.077706 -0.000070 -0.006224
v -0.097663 0.000928 -0.006224
v -0.097413 -0.000070 -0.005226
v -0.077706 0.003729 -0.006224
v -0.097413 0.003729 -0.005226
v -0.097663 0.002731 -0.006224
v -0.097413 -0.000070 0.005099
v -0.097663 0.000928 0.006097
v -0.077706 -0.000070 0.006097
v -0.077706 0.003729 0.006097
v -0.097663 0.002731 0.006097
v -0.097413 0.003729 0.005099
v 0.000319 0.000895 -0.003407
v 0.000319 0.002764 -0.003407
v 0.000319 0.002771 0.003285
v 0.000000 0.001829 -0.006224
v 0.000000 0.000880 -0.006224
v -0.000000 0.002779 -0.006224
v 0.059693 0.001403 -0.007906
v 0.078394 0.001174 -0.008661
v 0.088523 0.001174 -0.004764
v 0.059693 0.001403 0.007728
v 0.078394 0.001174 0.008520
v 0.088523 0.001174 0.004640
v 0.059693 -0.000209 0.005968
v 0.078394 0.000020 0.004621
v 0.088523 0.000020 0.004337
v 0.059693 -0.000209 -0.006133
v 0.078394 0.000020 -0.004756
v 0.088523 0.000020 -0.004459
vt 0.403407 0.960966
vt 0.403407 0.964373
vt 0.402726 0.964373
vt 0.402726 0.960966
vt 0.402044 0.964373
vt 0.402044 0.960966
vt 0.401363 0.964373
vt 0.401363 0.960966
vt 0.400681 0.964373
vt 0.400681 0.960966
vt 0.400000 0.964373
vt 0.400000 0.960966
vt 0.399319 0.964373
vt 0.399319 0.960966
vt 0.398637 0.964373
vt 0.398637 0.960966
vt 0.397335 0.960101
vt 0.397335 0.960585
vt 0.396741 0.959768
vt 0.397956 0.960966
vt 0.397956 0.964373
vt 0.397274 0.964373
vt 0.397274 0.960966
vt 0.396593 0.964373
vt 0.396593 0.960966
vt 0.400742 0.958619
vt 0.400742 0.957939
vt 0.400148 0.958757
vt 0.471004 0.905695
vt 0.471004 0.914780
vt 0.477817 0.919322
vt 0.461918 0.887524
vt 0.461918 0.887524
vt 0.461918 0.887524
vt 0.461918 0.887524
vt 0.461918 0.887524
vt 0.489174 0.905695
vt 0.489174 0.914780
vt 0.492980 0.914780
vt 0.493716 0.914101
vt 0.493716 0.906373
vt 0.492980 0.905695
vt 0.475546 0.897346
vt 0.475546 0.901152
vt 0.477817 0.901152
vt 0.480089 0.901152
vt 0.480089 0.896609
vt 0.477932 0.896609
vt 0.484631 0.919322
vt 0.482245 0.896609
vt 0.484631 0.895931
vt 0.484631 0.888203
vt 0.482245 0.887524
vt 0.482360 0.901152
vt 0.484631 0.901152
vt 0.484631 0.897346
vt 0.482360 0.901152
vt 0.461918 0.887524
vt 0.461918 0.887524
vt 0.480089 0.919322
vt 0.480089 0.919322
vt 0.482360 0.919322
vt 0.466461 0.906373
vt 0.467198 0.905695
vt 0.466461 0.905695
vt 0.493716 0.905695
vt 0.466461 0.914101
vt 0.467198 0.914780
vt 0.480089 0.887524
vt 0.477932 0.887524
vt 0.475546 0.888203
vt 0.475546 0.895931
vt 0.480089 0.919322
vt 0.477817 0.919322
vt 0.461918 0.887524
vt 0.482360 0.901152
vt 0.475546 0.919322
vt 0.475546 0.923128
vt 0.477932 0.923865
vt 0.480089 0.923865
vt 0.477817 0.919322
vt 0.482245 0.923865
vt 0.484631 0.923128
vt 0.466461 0.914780
vt 0.484631 0.923865
vt 0.461918 0.887524
vt 0.414261 0.971739
vt 0.414270 0.971756
vt 0.414270 0.971756
vt 0.414261 0.971739
vt 0.414271 0.971756
vt 0.414271 0.971756
vt 0.414272 0.971746
vt 0.414272 0.971746
vt 0.414261 0.971739
vt 0.414261 0.971739
vt 0.398296 0.958607
vt 0.397335 0.958431
vt 0.397335 0.957939
vt 0.398296 0.957627
vt 0.399258 0.958700
vt 0.399258 0.957939
vt 0.399852 0.959768
vt 0.399258 0.960585
vt 0.399258 0.959826
vt 0.398296 0.960898
vt 0.398296 0.959921
vt 0.396741 0.958757
vt 0.399852 0.958757
vt 0.402665 0.958736
vt 0.403259 0.958757
vt 0.402665 0.957939
vt 0.401704 0.958702
vt 0.401704 0.957627
vt 0.401704 0.959825
vt 0.402665 0.959790
vt 0.400742 0.959911
vt 0.400148 0.959768
vt 0.403259 0.959768
vt 0.401704 0.960898
vt 0.402665 0.960585
vt 0.400742 0.960585
vn 0.2493 0.0000 -0.9684
vn 0.7370 0.0000 -0.6759
vn 1.0000 0.0000 0.0000
vn 0.7370 0.0000 0.6759
vn 0.2493 0.0000 0.9684
vn -0.0674 0.0000 0.9977
vn -0.4787 0.0000 0.8780
vn 0.1964 0.8501 0.4885
vn -0.4774 0.0000 -0.8787
vn -0.0674 0.0000 -0.9977
vn -0.0888 -0.8834 0.4601
vn 0.0471 0.9989 -0.0007
vn 0.0000 1.0000 0.0000
vn 0.0000 0.0000 1.0000
vn -0.9698 0.2438 0.0000
vn -0.0356 -0.7111 0.7022
vn -0.0356 0.7111 0.7022
vn -0.0000 -1.0000 0.0000
vn -1.0000 0.0000 0.0000
vn -0.9698 -0.2438 0.0000
vn 0.9855 0.0000 -0.1696
vn 0.0471 -0.9989 -0.0007
vn 0.9855 -0.0000 0.1696
vn 0.0000 0.0000 -1.0000
vn -0.0356 -0.7111 -0.7022
vn -0.0356 0.7111 -0.7022
vn -0.0113 -0.9999 -0.0009
vn -0.0221 0.0000 -0.9998
vn -0.0216 0.0000 0.9998
vn -0.0010 1.0000 -0.0009
vn 0.0368 0.8796 -0.4742
vn -0.1319 0.9017 -0.4118
vn -0.3833 0.8541 0.3515
vn -0.1325 0.9011 0.4129
vn 0.0365 0.8778 0.4777
vn 0.0946 0.9955 -0.0003
vn -0.3845 0.9231 0.0000
vn 0.0122 0.9999 0.0000
vn 0.1948 0.8533 -0.4836
vn -0.3828 0.8545 -0.3511
vn 0.4373 -0.8049 0.4011
vn 0.0121 -0.9179 0.3967
vn 0.0556 -0.9192 0.3899
vn 0.0122 -0.9999 0.0000
vn -0.0403 -0.9992 -0.0004
vn 0.4678 -0.8839 0.0000
vn 0.0560 -0.9189 -0.3905
vn 0.0124 -0.9172 -0.3982
vn -0.0903 -0.8818 -0.4629
vn 0.4376 -0.8046 -0.4014
usemtl Material.001
s off
f 1/1/1 2/2/1 4/3/1 3/4/1
f 3/4/2 4/3/2 6/5/2 5/6/2
f 5/6/3 6/5/3 8/7/3 7/8/3
f 7/8/4 8/7/4 10/9/4 9/10/4
f 9/10/5 10/9/5 12/11/5 11/12/5
f 11/12/6 12/11/6 14/13/6 13/14/6
f 13/14/7 14/13/7 16/15/7 15/16/7
f 53/17/8 20/18/8 18/19/8
f 17/20/9 18/21/9 20/22/9 19/23/9
f 19/23/10 20/22/10 2/24/10 1/25/10
f 59/26/11 13/27/11 15/28/11
f 22/29/3 28/30/3 31/31/3 25/32/3
f 30/33/12 26/34/12 49/35/12 48/36/12
f 23/37/13 29/38/13 38/39/13 39/40/13 46/41/13 44/42/13
f 43/43/14 22/44/14 33/45/14 24/46/14 21/47/14 42/48/14
f 26/34/3 30/33/3 29/49/3 23/37/3
f 45/50/15 46/51/15 39/52/15 40/53/15
f 21/47/14 24/46/14 34/54/14 23/55/14 44/56/14 45/50/14
f 34/54/3 24/46/3 33/45/3 25/32/3 26/57/3
f 25/32/3 33/58/3 22/29/3
f 23/37/3 34/59/3 26/34/3
f 30/60/3 50/61/3 52/62/3
f 41/63/16 43/64/16 42/65/16
f 44/42/17 46/41/17 45/66/17
f 41/63/18 37/67/18 35/68/18 28/30/18 22/29/18 43/64/18
f 21/47/19 45/50/19 40/53/19 27/69/19
f 36/70/19 42/48/19 21/47/19 27/69/19
f 37/71/20 41/72/20 42/48/20 36/70/20
f 31/31/21 30/60/21 48/73/21 47/74/21
f 25/32/22 31/31/22 47/74/22 32/75/22
f 26/57/23 25/32/23 32/75/23 49/76/23
f 28/77/24 35/78/24 36/79/24 27/80/24 50/61/24 51/81/24
f 50/61/24 27/80/24 40/82/24 38/83/24 29/49/24 52/62/24
f 35/68/25 37/67/25 36/84/25
f 38/83/26 40/82/26 39/85/26
f 31/31/3 51/81/3 50/61/3 30/60/3
f 30/33/3 52/86/3 29/49/3
f 28/30/3 51/81/3 31/31/3
f 32/87/27 47/88/27 17/89/27 15/90/27
f 47/88/28 48/91/28 18/92/28 17/89/28
f 49/93/29 32/87/29 15/90/29 16/94/29
f 48/95/30 49/93/30 16/94/30 18/96/30
f 57/97/31 56/98/31 14/99/31 12/100/31
f 58/101/32 57/97/32 12/100/32 10/102/32
f 6/103/33 4/104/33 55/105/33
f 4/104/34 2/106/34 54/107/34 55/105/34
f 2/106/35 20/18/35 53/17/35 54/107/35
f 56/98/36 53/17/36 18/19/36 16/108/36
f 8/109/37 6/103/37 55/105/37 58/101/37
f 55/105/13 54/107/13 57/97/13 58/101/13
f 54/107/38 53/17/38 56/98/38 57/97/38
f 14/99/39 56/98/39 16/108/39
f 10/102/40 8/109/40 58/101/40
f 61/110/41 7/111/41 9/112/41
f 59/26/42 60/113/42 11/114/42 13/27/42
f 60/113/43 61/110/43 9/112/43 11/114/43
f 63/115/18 64/116/18 61/110/18 60/113/18
f 62/117/44 63/115/44 60/113/44 59/26/44
f 62/117/45 59/26/45 15/28/45 17/118/45
f 5/119/46 7/111/46 61/110/46 64/116/46
f 1/120/47 3/121/47 64/116/47 63/115/47
f 19/122/48 1/120/48 63/115/48 62/117/48
f 19/122/49 62/117/49 17/118/49
f 3/121/50 5/119/50 64/116/50
