# Blender v2.83.5 OBJ File: 'vase02.blend'
# www.blender.org
mtllib vase02.mtl
o Cylinder
v 0.000000 0.003350 -0.051890
v 0.000000 0.043952 -0.070922
v 0.030500 0.003350 -0.041980
v 0.041687 0.043952 -0.057377
v 0.049350 0.003350 -0.016035
v 0.067451 0.043952 -0.021916
v 0.049350 0.003350 0.016035
v 0.067451 0.043952 0.021916
v 0.030500 0.003350 0.041980
v 0.041687 0.043952 0.057377
v 0.000000 0.003350 0.051890
v -0.000000 0.043952 0.070922
v -0.030500 0.003350 0.041980
v -0.041687 0.043952 0.057377
v -0.049350 0.003350 0.016035
v -0.067451 0.043952 0.021916
v -0.049350 0.003350 -0.016035
v -0.067451 0.043952 -0.021916
v -0.030500 0.003350 -0.041980
v -0.041687 0.043952 -0.057377
v 0.000000 0.092883 -0.078083
v 0.045896 0.092883 -0.063171
v 0.074262 0.092883 -0.024129
v 0.074262 0.092883 0.024129
v 0.045896 0.092883 0.063171
v -0.000000 0.092883 0.078083
v -0.045896 0.092883 0.063171
v -0.074262 0.092883 0.024129
v -0.074262 0.092883 -0.024129
v -0.045896 0.092883 -0.063171
v 0.000000 0.146756 -0.070148
v 0.041232 0.146756 -0.056751
v 0.066714 0.146756 -0.021677
v 0.066714 0.146756 0.021677
v 0.041232 0.146756 0.056751
v -0.000000 0.146756 0.070148
v -0.041232 0.146756 0.056751
v -0.066714 0.146756 0.021677
v -0.066714 0.146756 -0.021677
v -0.041232 0.146756 -0.056751
v 0.000000 0.191260 -0.054573
v 0.032077 0.191260 -0.044151
v 0.051902 0.191260 -0.016864
v 0.051902 0.191260 0.016864
v 0.032077 0.191260 0.044151
v 0.000000 0.191260 0.054573
v -0.032077 0.191260 0.044151
v -0.051902 0.191260 0.016864
v -0.051902 0.191260 -0.016864
v -0.032077 0.191260 -0.044151
v 0.000000 0.243613 -0.031325
v 0.018412 0.243613 -0.025342
v 0.029792 0.243613 -0.009680
v 0.029792 0.243613 0.009680
v 0.018412 0.243613 0.025342
v 0.000000 0.243613 0.031325
v -0.018412 0.243613 0.025342
v -0.029792 0.243613 0.009680
v -0.029792 0.243613 -0.009680
v -0.018412 0.243613 -0.025342
v 0.000000 0.243130 -0.025210
v 0.014818 0.243130 -0.020395
v 0.023976 0.243130 -0.007790
v 0.023976 0.243130 0.007790
v 0.014818 0.243130 0.020395
v 0.000000 0.243130 0.025210
v -0.014818 0.243130 0.020395
v -0.023976 0.243130 0.007790
v -0.023976 0.243130 -0.007790
v -0.014818 0.243130 -0.020395
v 0.000000 0.093064 -0.067949
v 0.039939 0.093064 -0.054972
v 0.064623 0.093064 -0.020997
v 0.064623 0.093064 0.020997
v 0.039939 0.093064 0.054972
v 0.000000 0.093064 0.067949
v -0.039939 0.093064 0.054972
v -0.064623 0.093064 0.020997
v -0.064623 0.093064 -0.020997
v -0.039939 0.093064 -0.054972
v 0.000000 0.014669 -0.050208
v 0.029511 0.014669 -0.040619
v 0.047751 0.014669 -0.015515
v 0.047751 0.014669 0.015515
v 0.029511 0.014669 0.040619
v 0.000000 0.014669 0.050208
v -0.029511 0.014669 0.040619
v -0.047750 0.014669 0.015515
v -0.047750 0.014669 -0.015515
v -0.029511 0.014669 -0.040619
v 0.000000 0.280138 -0.031325
v 0.018412 0.280138 -0.025342
v 0.029792 0.280138 -0.009680
v 0.029792 0.280138 0.009680
v 0.018412 0.280138 0.025342
v 0.000000 0.280138 0.031325
v -0.018412 0.280138 0.025342
v -0.029792 0.280138 0.009680
v -0.029792 0.280138 -0.009680
v -0.018412 0.280138 -0.025342
v 0.000000 0.279655 -0.025210
v 0.014818 0.279655 -0.020395
v 0.023976 0.279655 -0.007790
v 0.023976 0.279655 0.007790
v 0.014818 0.279655 0.020395
v 0.000000 0.279655 0.025210
v -0.014818 0.279655 0.020395
v -0.023976 0.279655 0.007790
v -0.023976 0.279655 -0.007790
v -0.014818 0.279655 -0.020395
v -0.000000 0.310029 -0.045693
v 0.026858 0.310029 -0.036967
v 0.043457 0.310029 -0.014120
v 0.043457 0.310029 0.014120
v 0.026858 0.310029 0.036967
v -0.000000 0.310029 0.045693
v -0.026858 0.310029 0.036967
v -0.043457 0.310029 0.014120
v -0.043457 0.310029 -0.014120
v -0.026858 0.310029 -0.036967
v 0.000000 0.309325 -0.036774
v 0.021615 0.309325 -0.029751
v 0.034974 0.309325 -0.011364
v 0.034974 0.309325 0.011364
v 0.021615 0.309325 0.029751
v 0.000000 0.309325 0.036774
v -0.021615 0.309325 0.029751
v -0.034974 0.309325 0.011364
v -0.034974 0.309325 -0.011364
v -0.021615 0.309325 -0.029751
vt 0.367713 0.835058
vt 0.367713 0.847224
vt 0.365280 0.847224
vt 0.365280 0.835058
vt 0.362847 0.847224
vt 0.362847 0.835058
vt 0.360413 0.847224
vt 0.360413 0.835058
vt 0.357980 0.847224
vt 0.357980 0.835058
vt 0.355547 0.847224
vt 0.355547 0.835058
vt 0.353113 0.847224
vt 0.353113 0.835058
vt 0.350680 0.847224
vt 0.350680 0.835058
vt 0.348247 0.847224
vt 0.348247 0.835058
vt 0.355547 0.847224
vt 0.353113 0.847224
vt 0.345813 0.847224
vt 0.345813 0.835058
vt 0.343380 0.847224
vt 0.343380 0.835058
vt 0.361630 0.834814
vt 0.365063 0.833699
vt 0.367184 0.830779
vt 0.367184 0.827170
vt 0.365063 0.824250
vt 0.361630 0.823134
vt 0.358197 0.824250
vt 0.356076 0.827170
vt 0.356076 0.830779
vt 0.358197 0.833699
vt 0.357980 0.847224
vt 0.357980 0.847224
vt 0.355547 0.847224
vt 0.360413 0.847224
vt 0.367713 0.847224
vt 0.365280 0.847224
vt 0.362847 0.847224
vt 0.345813 0.847224
vt 0.343380 0.847224
vt 0.348247 0.847224
vt 0.350680 0.847224
vt 0.362847 0.847224
vt 0.365280 0.847224
vt 0.365280 0.847224
vt 0.362847 0.847224
vt 0.348247 0.847224
vt 0.345813 0.847224
vt 0.353113 0.847224
vt 0.360413 0.847224
vt 0.343380 0.847224
vt 0.350680 0.847224
vt 0.367713 0.847224
vt 0.353113 0.847224
vt 0.355547 0.847224
vt 0.355547 0.847224
vt 0.353113 0.847224
vt 0.348247 0.847224
vt 0.345813 0.847224
vt 0.360413 0.847224
vt 0.343380 0.847224
vt 0.350680 0.847224
vt 0.357980 0.847224
vt 0.367713 0.847224
vt 0.362847 0.847224
vt 0.360413 0.847224
vt 0.345813 0.847224
vt 0.343380 0.847224
vt 0.350680 0.847224
vt 0.357980 0.847224
vt 0.367713 0.847224
vt 0.365280 0.847224
vt 0.348247 0.847224
vt 0.353113 0.847224
vt 0.350680 0.847224
vt 0.362847 0.847224
vt 0.365280 0.847224
vt 0.365280 0.847224
vt 0.362847 0.847224
vt 0.357980 0.847224
vt 0.355547 0.847224
vt 0.355547 0.847224
vt 0.357980 0.847224
vt 0.355547 0.847224
vt 0.360413 0.847224
vt 0.360413 0.847224
vt 0.357980 0.847224
vt 0.362847 0.847224
vt 0.345813 0.847224
vt 0.343380 0.847224
vt 0.343380 0.847224
vt 0.345813 0.847224
vt 0.360413 0.847224
vt 0.365280 0.847224
vt 0.348247 0.847224
vt 0.348247 0.847224
vt 0.345813 0.847224
vt 0.348247 0.847224
vt 0.348247 0.847224
vt 0.345813 0.847224
vt 0.353113 0.847224
vt 0.355547 0.847224
vt 0.353113 0.847224
vt 0.360413 0.847224
vt 0.343380 0.847224
vt 0.350680 0.847224
vt 0.350680 0.847224
vt 0.357980 0.847224
vt 0.367713 0.847224
vt 0.367713 0.847224
vt 0.352896 0.833699
vt 0.349463 0.834814
vt 0.346031 0.833699
vt 0.343909 0.830779
vt 0.343909 0.827170
vt 0.346031 0.824250
vt 0.349463 0.823134
vt 0.352896 0.824250
vt 0.355017 0.827170
vt 0.355017 0.830779
vt 0.355547 0.847224
vt 0.353113 0.847224
vt 0.362847 0.847224
vt 0.360413 0.847224
vt 0.343380 0.847224
vt 0.350680 0.847224
vt 0.357980 0.847224
vt 0.367713 0.847224
vt 0.365280 0.847224
vt 0.365280 0.847224
vt 0.367713 0.847224
vt 0.367713 0.847224
vt 0.365280 0.847224
vt 0.345813 0.847224
vt 0.348247 0.847224
vt 0.348247 0.847224
vt 0.350680 0.847224
vt 0.348247 0.847224
vt 0.367713 0.847224
vt 0.365280 0.847224
vt 0.367713 0.847224
vt 0.350680 0.847224
vt 0.350680 0.847224
vt 0.353113 0.847224
vt 0.353113 0.847224
vt 0.353113 0.847224
vt 0.355547 0.847224
vt 0.355547 0.847224
vt 0.357980 0.847224
vt 0.345813 0.847224
vt 0.362847 0.847224
vt 0.343380 0.847224
vt 0.357980 0.847224
vt 0.362847 0.847224
vt 0.362847 0.847224
vt 0.345813 0.847224
vt 0.360413 0.847224
vt 0.360413 0.847224
vt 0.343380 0.847224
vt 0.343380 0.847224
vn 0.2822 -0.4072 -0.8686
vn 0.7389 -0.4072 -0.5369
vn 0.9133 -0.4072 0.0000
vn 0.7389 -0.4072 0.5369
vn 0.2822 -0.4072 0.8686
vn -0.2822 -0.4072 0.8686
vn -0.7389 -0.4072 0.5369
vn -0.9133 -0.4072 0.0000
vn -0.3061 -0.1379 0.9420
vn -0.7389 -0.4072 -0.5369
vn -0.2822 -0.4072 -0.8686
vn 0.0000 -1.0000 -0.0000
vn 0.3060 0.1387 0.9419
vn 0.3061 -0.1379 0.9420
vn 0.8013 -0.1379 0.5822
vn 0.3061 -0.1379 -0.9420
vn 0.9905 -0.1379 0.0000
vn 0.8013 -0.1379 -0.5822
vn -0.3061 -0.1379 -0.9420
vn -0.8013 -0.1379 -0.5822
vn -0.9905 -0.1379 0.0000
vn -0.8013 -0.1379 0.5822
vn 0.7676 0.3158 -0.5577
vn 0.8012 0.1387 -0.5821
vn -0.8012 0.1387 -0.5821
vn -0.3060 0.1387 0.9419
vn 0.9903 0.1387 0.0000
vn -0.3060 0.1387 -0.9419
vn -0.8012 0.1387 0.5821
vn 0.8012 0.1387 0.5821
vn 0.3060 0.1387 -0.9419
vn -0.9903 0.1387 0.0000
vn -0.2847 0.3891 0.8761
vn -0.7676 0.3158 -0.5577
vn -0.2932 0.3158 0.9024
vn 0.9488 0.3158 0.0000
vn -0.2932 0.3158 -0.9024
vn -0.7676 0.3158 0.5577
vn 0.7676 0.3158 0.5577
vn 0.2932 0.3158 -0.9024
vn -0.9488 0.3158 0.0000
vn 0.2932 0.3158 0.9024
vn 0.9212 0.3891 0.0000
vn -0.2847 0.3891 -0.8761
vn -0.7453 0.3891 0.5415
vn 0.7453 0.3891 0.5415
vn 0.2847 0.3891 -0.8761
vn -0.9212 0.3891 0.0000
vn 0.2847 0.3891 0.8761
vn 0.7453 0.3891 -0.5415
vn -0.7453 0.3891 -0.5415
vn -0.8090 -0.0000 0.5878
vn -0.7809 -0.2614 0.5673
vn -0.3090 -0.0000 -0.9511
vn -0.3090 -0.0000 0.9511
vn -0.8090 -0.0000 -0.5878
vn 0.3090 0.0000 0.9511
vn -1.0000 -0.0000 0.0000
vn 0.8090 0.0000 0.5878
vn 0.7909 0.2104 0.5746
vn 0.7809 -0.2614 0.5673
vn 0.2983 -0.2614 -0.9180
vn -0.9652 -0.2614 0.0000
vn 0.2983 -0.2614 0.9180
vn 0.7809 -0.2614 -0.5673
vn -0.7809 -0.2614 -0.5673
vn -0.2983 -0.2614 0.9180
vn 0.9652 -0.2614 0.0000
vn -0.2983 -0.2614 -0.9180
vn 0.0000 1.0000 0.0000
vn 0.3021 0.2104 -0.9298
vn -0.9776 0.2104 0.0000
vn 0.3021 0.2104 0.9298
vn 0.7909 0.2104 -0.5746
vn -0.7909 0.2104 -0.5746
vn -0.3021 0.2104 0.9298
vn 0.9776 0.2104 0.0000
vn -0.3021 0.2104 -0.9298
vn -0.7909 0.2104 0.5746
vn 0.2810 -0.4158 -0.8650
vn 0.7586 0.3476 0.5511
vn -0.9095 -0.4158 0.0000
vn -0.2898 0.3476 0.8918
vn 0.9377 0.3476 0.0000
vn -0.7358 -0.4158 0.5346
vn 0.7586 0.3476 -0.5511
vn -0.2810 -0.4158 0.8650
vn 0.2898 0.3476 -0.8918
vn 0.2810 -0.4158 0.8650
vn 0.3090 0.0000 -0.9511
vn 0.8090 0.0000 -0.5878
vn 1.0000 0.0000 0.0000
vn 0.0827 0.9966 0.0000
vn -0.0256 0.9966 -0.0786
vn -0.0669 0.9966 0.0486
vn 0.0669 0.9966 0.0486
vn 0.0256 0.9966 -0.0786
vn -0.0669 0.9966 -0.0486
vn 0.0256 0.9966 0.0786
vn 0.0669 0.9966 -0.0486
vn -0.0827 0.9966 0.0000
vn -0.0256 0.9966 0.0786
vn -0.7586 0.3476 0.5511
vn -0.7358 -0.4158 -0.5346
vn 0.2898 0.3476 0.8918
vn 0.7358 -0.4158 -0.5346
vn -0.9377 0.3476 0.0000
vn -0.2810 -0.4158 -0.8650
vn 0.9095 -0.4158 0.0000
vn -0.7586 0.3476 -0.5511
vn 0.7358 -0.4158 0.5346
vn -0.2898 0.3476 -0.8918
usemtl Material.001
s off
f 1/1/1 2/2/1 4/3/1 3/4/1
f 3/4/2 4/3/2 6/5/2 5/6/2
f 5/6/3 6/5/3 8/7/3 7/8/3
f 7/8/4 8/7/4 10/9/4 9/10/4
f 9/10/5 10/9/5 12/11/5 11/12/5
f 11/12/6 12/11/6 14/13/6 13/14/6
f 13/14/7 14/13/7 16/15/7 15/16/7
f 15/16/8 16/15/8 18/17/8 17/18/8
f 14/13/9 12/11/9 26/19/9 27/20/9
f 17/18/10 18/17/10 20/21/10 19/22/10
f 19/22/11 20/21/11 2/23/11 1/24/11
f 1/25/12 3/26/12 5/27/12 7/28/12 9/29/12 11/30/12 13/31/12 15/32/12 17/33/12 19/34/12
f 26/19/13 25/35/13 35/36/13 36/37/13
f 12/11/14 10/9/14 25/35/14 26/19/14
f 10/9/15 8/7/15 24/38/15 25/35/15
f 4/3/16 2/2/16 21/39/16 22/40/16
f 8/7/17 6/5/17 23/41/17 24/38/17
f 6/5/18 4/3/18 22/40/18 23/41/18
f 2/23/19 20/21/19 30/42/19 21/43/19
f 20/21/20 18/17/20 29/44/20 30/42/20
f 18/17/21 16/15/21 28/45/21 29/44/21
f 16/15/22 14/13/22 27/20/22 28/45/22
f 33/46/23 32/47/23 42/48/23 43/49/23
f 23/41/24 22/40/24 32/47/24 33/46/24
f 30/42/25 29/44/25 39/50/25 40/51/25
f 27/20/26 26/19/26 36/37/26 37/52/26
f 24/38/27 23/41/27 33/46/27 34/53/27
f 21/43/28 30/42/28 40/51/28 31/54/28
f 28/45/29 27/20/29 37/52/29 38/55/29
f 25/35/30 24/38/30 34/53/30 35/36/30
f 22/40/31 21/39/31 31/56/31 32/47/31
f 29/44/32 28/45/32 38/55/32 39/50/32
f 47/57/33 46/58/33 56/59/33 57/60/33
f 40/51/34 39/50/34 49/61/34 50/62/34
f 37/52/35 36/37/35 46/58/35 47/57/35
f 34/53/36 33/46/36 43/49/36 44/63/36
f 31/54/37 40/51/37 50/62/37 41/64/37
f 38/55/38 37/52/38 47/57/38 48/65/38
f 35/36/39 34/53/39 44/63/39 45/66/39
f 32/47/40 31/56/40 41/67/40 42/48/40
f 39/50/41 38/55/41 48/65/41 49/61/41
f 36/37/42 35/36/42 45/66/42 46/58/42
f 44/63/43 43/49/43 53/68/43 54/69/43
f 41/64/44 50/62/44 60/70/44 51/71/44
f 48/65/45 47/57/45 57/60/45 58/72/45
f 45/66/46 44/63/46 54/69/46 55/73/46
f 42/48/47 41/67/47 51/74/47 52/75/47
f 49/61/48 48/65/48 58/72/48 59/76/48
f 46/58/49 45/66/49 55/73/49 56/59/49
f 43/49/50 42/48/50 52/75/50 53/68/50
f 50/62/51 49/61/51 59/76/51 60/70/51
f 58/72/52 57/60/52 97/77/52 98/78/52
f 63/79/53 62/80/53 72/81/53 73/82/53
f 65/83/54 66/84/54 106/85/54 105/86/54
f 57/60/55 56/59/55 96/87/55 97/77/55
f 64/88/56 65/83/56 105/86/56 104/89/56
f 56/59/57 55/73/57 95/90/57 96/87/57
f 63/79/58 64/88/58 104/89/58 103/91/58
f 70/92/57 61/93/57 101/94/57 110/95/57
f 55/73/59 54/69/59 94/96/59 95/90/59
f 62/80/52 63/79/52 103/91/52 102/97/52
f 69/98/59 70/92/59 110/95/59 109/99/59
f 80/100/60 79/101/60 89/102/60 90/103/60
f 70/92/61 69/98/61 79/101/61 80/100/61
f 67/104/62 66/84/62 76/105/62 77/106/62
f 64/88/63 63/79/63 73/82/63 74/107/63
f 61/93/64 70/92/64 80/100/64 71/108/64
f 68/109/65 67/104/65 77/106/65 78/110/65
f 65/83/66 64/88/66 74/107/66 75/111/66
f 62/80/67 61/112/67 71/113/67 72/81/67
f 69/98/68 68/109/68 78/110/68 79/101/68
f 66/84/69 65/83/69 75/111/69 76/105/69
f 82/114/70 81/115/70 90/116/70 89/117/70 88/118/70 87/119/70 86/120/70 85/121/70 84/122/70 83/123/70
f 77/106/71 76/105/71 86/124/71 87/125/71
f 74/107/72 73/82/72 83/126/72 84/127/72
f 71/108/73 80/100/73 90/103/73 81/128/73
f 78/110/74 77/106/74 87/125/74 88/129/74
f 75/111/75 74/107/75 84/127/75 85/130/75
f 72/81/76 71/113/76 81/131/76 82/132/76
f 79/101/77 78/110/77 88/129/77 89/102/77
f 76/105/78 75/111/78 85/130/78 86/124/78
f 73/82/79 72/81/79 82/132/79 83/126/79
f 92/133/80 91/134/80 111/135/80 112/136/80
f 109/99/81 110/95/81 130/137/81 129/138/81
f 99/139/82 98/78/82 118/140/82 119/141/82
f 101/142/83 102/97/83 122/143/83 121/144/83
f 108/145/84 109/99/84 129/138/84 128/146/84
f 98/78/85 97/77/85 117/147/85 118/140/85
f 107/148/86 108/145/86 128/146/86 127/149/86
f 97/77/87 96/87/87 116/150/87 117/147/87
f 106/85/88 107/148/88 127/149/88 126/151/88
f 96/87/89 95/90/89 115/152/89 116/150/89
f 66/84/90 67/104/90 107/148/90 106/85/90
f 59/76/58 58/72/58 98/78/58 99/139/58
f 52/75/90 51/74/90 91/134/90 92/133/90
f 67/104/91 68/109/91 108/145/91 107/148/91
f 60/70/56 59/76/56 99/139/56 100/153/56
f 53/68/91 52/75/91 92/133/91 93/154/91
f 68/109/92 69/98/92 109/99/92 108/145/92
f 51/71/54 60/70/54 100/153/54 91/155/54
f 61/112/55 62/80/55 102/97/55 101/142/55
f 54/69/92 53/68/92 93/154/92 94/96/92
f 118/140/93 128/146/93 129/138/93 119/141/93
f 115/152/94 125/156/94 126/151/94 116/150/94
f 112/136/95 122/143/95 123/157/95 113/158/95
f 119/141/96 129/138/96 130/137/96 120/159/96
f 116/150/97 126/151/97 127/149/97 117/147/97
f 114/160/98 124/161/98 125/156/98 115/152/98
f 120/159/99 130/137/99 121/162/99 111/135/99
f 117/147/100 127/149/100 128/146/100 118/140/100
f 113/158/101 123/157/101 124/161/101 114/160/101
f 111/135/102 121/144/102 122/143/102 112/136/102
f 102/97/103 103/91/103 123/157/103 122/143/103
f 100/153/104 99/139/104 119/141/104 120/159/104
f 110/95/105 101/94/105 121/162/105 130/137/105
f 93/154/106 92/133/106 112/136/106 113/158/106
f 103/91/107 104/89/107 124/161/107 123/157/107
f 91/155/108 100/153/108 120/159/108 111/163/108
f 94/96/109 93/154/109 113/158/109 114/160/109
f 104/89/110 105/86/110 125/156/110 124/161/110
f 95/90/111 94/96/111 114/160/111 115/152/111
f 105/86/112 106/85/112 126/151/112 125/156/112
