# Blender v2.83.5 OBJ File: 'vase03.blend'
# www.blender.org
mtllib vase03.mtl
o Cylinder
v 0.000000 0.001348 -0.028754
v 0.000000 0.042670 -0.039300
v 0.016901 0.001348 -0.023262
v 0.023100 0.042670 -0.031794
v 0.027346 0.001348 -0.008885
v 0.037376 0.042670 -0.012144
v 0.027346 0.001348 0.008885
v 0.037376 0.042670 0.012144
v 0.016901 0.001348 0.023262
v 0.023100 0.042670 0.031794
v 0.000000 0.001348 0.028754
v 0.000000 0.042670 0.039300
v -0.016901 0.001348 0.023262
v -0.023100 0.042670 0.031794
v -0.027346 0.001348 0.008885
v -0.037376 0.042670 0.012144
v -0.027346 0.001348 -0.008885
v -0.037376 0.042670 -0.012144
v -0.016901 0.001348 -0.023262
v -0.023100 0.042670 -0.031794
v 0.000000 0.092468 -0.043268
v 0.025432 0.092468 -0.035005
v 0.041150 0.092468 -0.013371
v 0.041150 0.092468 0.013371
v 0.025432 0.092468 0.035005
v 0.000000 0.092468 0.043268
v -0.025432 0.092468 0.035005
v -0.041150 0.092468 0.013371
v -0.041150 0.092468 -0.013371
v -0.025432 0.092468 -0.035005
v 0.000000 0.147296 -0.038871
v 0.022848 0.147296 -0.031447
v 0.036968 0.147296 -0.012012
v 0.036968 0.147296 0.012012
v 0.022848 0.147296 0.031447
v 0.000000 0.147296 0.038871
v -0.022848 0.147296 0.031447
v -0.036968 0.147296 0.012012
v -0.036968 0.147296 -0.012012
v -0.022848 0.147296 -0.031447
v 0.000000 0.192590 -0.031351
v 0.018428 0.192590 -0.025364
v 0.029817 0.192590 -0.009688
v 0.029817 0.192590 0.009688
v 0.018428 0.192590 0.025364
v 0.000000 0.192590 0.031351
v -0.018428 0.192590 0.025364
v -0.029817 0.192590 0.009688
v -0.029817 0.192590 -0.009688
v -0.018428 0.192590 -0.025364
v 0.000000 0.233611 -0.021654
v 0.012728 0.233611 -0.017519
v 0.020595 0.233611 -0.006692
v 0.020595 0.233611 0.006692
v 0.012728 0.233611 0.017519
v 0.000000 0.233611 0.021654
v -0.012728 0.233611 0.017519
v -0.020595 0.233611 0.006692
v -0.020595 0.233611 -0.006692
v -0.012728 0.233611 -0.017519
v 0.000000 0.230842 -0.014827
v 0.008715 0.230842 -0.011996
v 0.014102 0.230842 -0.004582
v 0.014102 0.230842 0.004582
v 0.008715 0.230842 0.011996
v 0.000000 0.230842 0.014827
v -0.008715 0.230842 0.011996
v -0.014102 0.230842 0.004582
v -0.014102 0.230842 -0.004582
v -0.008715 0.230842 -0.011996
v 0.000000 0.092653 -0.037652
v 0.022131 0.092653 -0.030461
v 0.035809 0.092653 -0.011635
v 0.035809 0.092653 0.011635
v 0.022131 0.092653 0.030461
v 0.000000 0.092653 0.037652
v -0.022131 0.092653 0.030461
v -0.035809 0.092653 0.011635
v -0.035809 0.092653 -0.011635
v -0.022131 0.092653 -0.030461
v 0.000000 0.012868 -0.027821
v 0.016353 0.012868 -0.022508
v 0.026460 0.012868 -0.008597
v 0.026460 0.012868 0.008597
v 0.016353 0.012868 0.022508
v 0.000000 0.012868 0.027821
v -0.016353 0.012868 0.022508
v -0.026460 0.012868 0.008597
v -0.026460 0.012868 -0.008597
v -0.016353 0.012868 -0.022508
vt 0.372123 0.778361
vt 0.372123 0.790528
vt 0.369690 0.790528
vt 0.369690 0.778361
vt 0.367256 0.790528
vt 0.367256 0.778361
vt 0.364823 0.790528
vt 0.364823 0.778361
vt 0.362390 0.790528
vt 0.362390 0.778361
vt 0.359956 0.790528
vt 0.359956 0.778361
vt 0.357523 0.790528
vt 0.357523 0.778361
vt 0.355090 0.790528
vt 0.355090 0.778361
vt 0.352656 0.790528
vt 0.352656 0.778361
vt 0.359956 0.790528
vt 0.357523 0.790528
vt 0.350223 0.790528
vt 0.350223 0.778361
vt 0.347789 0.790528
vt 0.347789 0.778361
vt 0.366040 0.778118
vt 0.369472 0.777002
vt 0.371594 0.774083
vt 0.371594 0.770473
vt 0.369472 0.767553
vt 0.366040 0.766438
vt 0.362607 0.767553
vt 0.360485 0.770473
vt 0.360485 0.774083
vt 0.362607 0.777002
vt 0.362390 0.790528
vt 0.362390 0.790528
vt 0.359956 0.790528
vt 0.364823 0.790528
vt 0.372123 0.790528
vt 0.369690 0.790528
vt 0.367256 0.790528
vt 0.350223 0.790528
vt 0.347789 0.790528
vt 0.352656 0.790528
vt 0.355090 0.790528
vt 0.367256 0.790528
vt 0.369690 0.790528
vt 0.369690 0.790528
vt 0.367256 0.790528
vt 0.352656 0.790528
vt 0.350223 0.790528
vt 0.357523 0.790528
vt 0.364823 0.790528
vt 0.347789 0.790528
vt 0.355090 0.790528
vt 0.372123 0.790528
vt 0.357523 0.790528
vt 0.359956 0.790528
vt 0.359956 0.790528
vt 0.357523 0.790528
vt 0.352656 0.790528
vt 0.350223 0.790528
vt 0.364823 0.790528
vt 0.347789 0.790528
vt 0.355090 0.790528
vt 0.362390 0.790528
vt 0.372123 0.790528
vt 0.367256 0.790528
vt 0.364823 0.790528
vt 0.350223 0.790528
vt 0.347789 0.790528
vt 0.355090 0.790528
vt 0.362390 0.790528
vt 0.372123 0.790528
vt 0.369690 0.790528
vt 0.352656 0.790528
vt 0.355090 0.790528
vt 0.352656 0.790528
vt 0.367256 0.790528
vt 0.369690 0.790528
vt 0.369690 0.790528
vt 0.367256 0.790528
vt 0.362390 0.790528
vt 0.359956 0.790528
vt 0.350223 0.790528
vt 0.357523 0.790528
vt 0.364823 0.790528
vt 0.347789 0.790528
vt 0.372123 0.790528
vt 0.350223 0.790528
vt 0.352656 0.790528
vt 0.352656 0.790528
vt 0.350223 0.790528
vt 0.359956 0.790528
vt 0.357523 0.790528
vt 0.364823 0.790528
vt 0.347789 0.790528
vt 0.355090 0.790528
vt 0.362390 0.790528
vt 0.372123 0.790528
vt 0.357305 0.777002
vt 0.353873 0.778118
vt 0.350440 0.777002
vt 0.348319 0.774083
vt 0.348319 0.770473
vt 0.350440 0.767553
vt 0.353873 0.766438
vt 0.357305 0.767553
vt 0.359427 0.770473
vt 0.359427 0.774083
vt 0.359956 0.790528
vt 0.357523 0.790528
vt 0.367256 0.790528
vt 0.364823 0.790528
vt 0.347789 0.790528
vt 0.355090 0.790528
vt 0.362390 0.790528
vt 0.372123 0.790528
vt 0.369690 0.790528
vn 0.3003 -0.2359 -0.9242
vn 0.7862 -0.2359 -0.5712
vn 0.9718 -0.2359 0.0000
vn 0.7862 -0.2359 0.5712
vn 0.3003 -0.2359 0.9242
vn -0.3003 -0.2359 0.9242
vn -0.7862 -0.2359 0.5712
vn -0.9718 -0.2359 0.0000
vn -0.3081 -0.0756 0.9483
vn -0.7862 -0.2359 -0.5712
vn -0.3003 -0.2359 -0.9242
vn 0.0000 -1.0000 0.0000
vn 0.3081 0.0761 0.9483
vn 0.3081 -0.0756 0.9483
vn 0.8067 -0.0756 0.5861
vn 0.3081 -0.0756 -0.9483
vn 0.9971 -0.0756 0.0000
vn 0.8067 -0.0756 -0.5861
vn -0.3081 -0.0756 -0.9483
vn -0.8067 -0.0756 -0.5861
vn -0.9971 -0.0756 0.0000
vn -0.8067 -0.0756 0.5861
vn 0.7991 0.1560 -0.5806
vn 0.8067 0.0761 -0.5861
vn -0.8067 0.0761 -0.5861
vn -0.3081 0.0761 0.9483
vn 0.9971 0.0761 0.0000
vn -0.3081 0.0761 -0.9483
vn -0.8067 0.0761 0.5861
vn 0.8067 0.0761 0.5861
vn 0.3081 0.0761 -0.9483
vn -0.9971 0.0761 0.0000
vn -0.3015 0.2193 0.9279
vn -0.7991 0.1560 -0.5806
vn -0.3052 0.1560 0.9394
vn 0.9878 0.1560 0.0000
vn -0.3052 0.1560 -0.9394
vn -0.7991 0.1560 0.5806
vn 0.7991 0.1560 0.5806
vn 0.3052 0.1560 -0.9394
vn -0.9878 0.1560 0.0000
vn 0.3052 0.1560 0.9394
vn 0.9756 0.2193 0.0000
vn -0.3015 0.2193 -0.9279
vn -0.7893 0.2193 0.5735
vn 0.7893 0.2193 0.5735
vn 0.3015 0.2193 -0.9279
vn -0.9756 0.2193 0.0000
vn 0.3015 0.2193 0.9279
vn 0.7893 0.2193 -0.5735
vn -0.7893 0.2193 -0.5735
vn 0.3923 0.9198 0.0000
vn -0.7992 -0.1552 0.5807
vn -0.1212 0.9198 -0.3731
vn -0.3174 0.9198 0.2306
vn 0.3174 0.9198 0.2306
vn 0.1212 0.9198 -0.3731
vn -0.3174 0.9198 -0.2306
vn 0.1212 0.9198 0.3731
vn 0.3174 0.9198 -0.2306
vn -0.3923 0.9198 0.0000
vn -0.1212 0.9198 0.3731
vn 0.8035 0.1164 0.5838
vn 0.7992 -0.1552 0.5807
vn 0.3053 -0.1552 -0.9395
vn -0.9879 -0.1552 0.0000
vn 0.3053 -0.1552 0.9395
vn 0.7992 -0.1552 -0.5807
vn -0.7992 -0.1552 -0.5807
vn -0.3053 -0.1552 0.9395
vn 0.9879 -0.1552 0.0000
vn -0.3053 -0.1552 -0.9395
vn 0.0000 1.0000 0.0000
vn 0.3069 0.1164 -0.9446
vn -0.9932 0.1164 0.0000
vn 0.3069 0.1164 0.9446
vn 0.8035 0.1164 -0.5838
vn -0.8035 0.1164 -0.5838
vn -0.3069 0.1164 0.9446
vn 0.9932 0.1164 0.0000
vn -0.3069 0.1164 -0.9446
vn -0.8035 0.1164 0.5838
usemtl Material.001
s off
f 1/1/1 2/2/1 4/3/1 3/4/1
f 3/4/2 4/3/2 6/5/2 5/6/2
f 5/6/3 6/5/3 8/7/3 7/8/3
f 7/8/4 8/7/4 10/9/4 9/10/4
f 9/10/5 10/9/5 12/11/5 11/12/5
f 11/12/6 12/11/6 14/13/6 13/14/6
f 13/14/7 14/13/7 16/15/7 15/16/7
f 15/16/8 16/15/8 18/17/8 17/18/8
f 14/13/9 12/11/9 26/19/9 27/20/9
f 17/18/10 18/17/10 20/21/10 19/22/10
f 19/22/11 20/21/11 2/23/11 1/24/11
f 1/25/12 3/26/12 5/27/12 7/28/12 9/29/12 11/30/12 13/31/12 15/32/12 17/33/12 19/34/12
f 26/19/13 25/35/13 35/36/13 36/37/13
f 12/11/14 10/9/14 25/35/14 26/19/14
f 10/9/15 8/7/15 24/38/15 25/35/15
f 4/3/16 2/2/16 21/39/16 22/40/16
f 8/7/17 6/5/17 23/41/17 24/38/17
f 6/5/18 4/3/18 22/40/18 23/41/18
f 2/23/19 20/21/19 30/42/19 21/43/19
f 20/21/20 18/17/20 29/44/20 30/42/20
f 18/17/21 16/15/21 28/45/21 29/44/21
f 16/15/22 14/13/22 27/20/22 28/45/22
f 33/46/23 32/47/23 42/48/23 43/49/23
f 23/41/24 22/40/24 32/47/24 33/46/24
f 30/42/25 29/44/25 39/50/25 40/51/25
f 27/20/26 26/19/26 36/37/26 37/52/26
f 24/38/27 23/41/27 33/46/27 34/53/27
f 21/43/28 30/42/28 40/51/28 31/54/28
f 28/45/29 27/20/29 37/52/29 38/55/29
f 25/35/30 24/38/30 34/53/30 35/36/30
f 22/40/31 21/39/31 31/56/31 32/47/31
f 29/44/32 28/45/32 38/55/32 39/50/32
f 47/57/33 46/58/33 56/59/33 57/60/33
f 40/51/34 39/50/34 49/61/34 50/62/34
f 37/52/35 36/37/35 46/58/35 47/57/35
f 34/53/36 33/46/36 43/49/36 44/63/36
f 31/54/37 40/51/37 50/62/37 41/64/37
f 38/55/38 37/52/38 47/57/38 48/65/38
f 35/36/39 34/53/39 44/63/39 45/66/39
f 32/47/40 31/56/40 41/67/40 42/48/40
f 39/50/41 38/55/41 48/65/41 49/61/41
f 36/37/42 35/36/42 45/66/42 46/58/42
f 44/63/43 43/49/43 53/68/43 54/69/43
f 41/64/44 50/62/44 60/70/44 51/71/44
f 48/65/45 47/57/45 57/60/45 58/72/45
f 45/66/46 44/63/46 54/69/46 55/73/46
f 42/48/47 41/67/47 51/74/47 52/75/47
f 49/61/48 48/65/48 58/72/48 59/76/48
f 46/58/49 45/66/49 55/73/49 56/59/49
f 43/49/50 42/48/50 52/75/50 53/68/50
f 50/62/51 49/61/51 59/76/51 60/70/51
f 58/72/52 68/77/52 69/78/52 59/76/52
f 63/79/53 62/80/53 72/81/53 73/82/53
f 55/73/54 65/83/54 66/84/54 56/59/54
f 52/75/55 62/80/55 63/79/55 53/68/55
f 59/76/56 69/78/56 70/85/56 60/70/56
f 56/59/57 66/84/57 67/86/57 57/60/57
f 54/69/58 64/87/58 65/83/58 55/73/58
f 60/70/59 70/85/59 61/88/59 51/74/59
f 57/60/60 67/86/60 68/77/60 58/72/60
f 53/68/61 63/79/61 64/87/61 54/69/61
f 51/74/62 61/89/62 62/80/62 52/75/62
f 80/90/63 79/91/63 89/92/63 90/93/63
f 70/85/64 69/78/64 79/91/64 80/90/64
f 67/86/65 66/84/65 76/94/65 77/95/65
f 64/87/66 63/79/66 73/82/66 74/96/66
f 61/88/67 70/85/67 80/90/67 71/97/67
f 68/77/68 67/86/68 77/95/68 78/98/68
f 65/83/69 64/87/69 74/96/69 75/99/69
f 62/80/70 61/89/70 71/100/70 72/81/70
f 69/78/71 68/77/71 78/98/71 79/91/71
f 66/84/72 65/83/72 75/99/72 76/94/72
f 82/101/73 81/102/73 90/103/73 89/104/73 88/105/73 87/106/73 86/107/73 85/108/73 84/109/73 83/110/73
f 77/95/74 76/94/74 86/111/74 87/112/74
f 74/96/75 73/82/75 83/113/75 84/114/75
f 71/97/76 80/90/76 90/93/76 81/115/76
f 78/98/77 77/95/77 87/112/77 88/116/77
f 75/99/78 74/96/78 84/114/78 85/117/78
f 72/81/79 71/100/79 81/118/79 82/119/79
f 79/91/80 78/98/80 88/116/80 89/92/80
f 76/94/81 75/99/81 85/117/81 86/111/81
f 73/82/82 72/81/82 82/119/82 83/113/82
